M48
; DRILL file {KiCad 9.0.0} date 2025-03-01T12:44:55-0400
; FORMAT={-:-/ absolute / metric / decimal}
; #@! TF.CreationDate,2025-03-01T12:44:55-04:00
; #@! TF.GenerationSoftware,Kicad,Pcbnew,9.0.0
; #@! TF.FileFunction,Plated,1,2,PTH
FMAT,2
METRIC
; #@! TA.AperFunction,Plated,PTH,ViaDrill
T1C0.200
; #@! TA.AperFunction,Plated,PTH,ViaDrill
T2C0.300
; #@! TA.AperFunction,Plated,PTH,ComponentDrill
T3C0.300
; #@! TA.AperFunction,Plated,PTH,ComponentDrill
T4C0.330
; #@! TA.AperFunction,Plated,PTH,ViaDrill
T5C0.500
; #@! TA.AperFunction,Plated,PTH,ComponentDrill
T6C0.500
; #@! TA.AperFunction,Plated,PTH,ViaDrill
T7C0.700
; #@! TA.AperFunction,Plated,PTH,ComponentDrill
T8C0.850
; #@! TA.AperFunction,Plated,PTH,ComponentDrill
T9C1.700
; #@! TA.AperFunction,Plated,PTH,ComponentDrill
T10C1.800
%
G90
G05
T1
X201.043Y-77.126
X216.666Y-69.716
X216.666Y-71.196
X216.666Y-77.546
X216.736Y-68.576
X220.596Y-96.851
X220.596Y-98.121
X228.591Y-82.606
X235.671Y-77.481
X241.846Y-88.526
T2
X201.043Y-75.476
X201.043Y-80.276
X208.701Y-80.04
X211.176Y-80.99
X211.201Y-80.04
X213.136Y-73.896
X213.166Y-81.376
X216.666Y-66.116
T3
X195.543Y-75.876
X195.543Y-79.876
X197.543Y-75.876
X197.543Y-79.876
T4
X217.071Y-96.186
X217.071Y-97.486
X217.071Y-98.786
X218.371Y-96.186
X218.371Y-97.486
X218.371Y-98.786
T5
X200.576Y-86.056
X202.431Y-92.401
X202.692Y-98.044
X203.701Y-93.371
X203.711Y-91.371
X204.421Y-98.061
X204.931Y-92.351
X206.051Y-98.111
X206.151Y-93.201
X206.301Y-91.421
X207.336Y-91.236
X207.471Y-98.044
X207.518Y-92.71
X208.28Y-90.17
X208.351Y-91.291
X209.042Y-92.456
X209.256Y-91.316
X216.506Y-115.796
X216.686Y-110.406
X216.876Y-111.946
X216.926Y-113.436
X217.026Y-100.236
X217.026Y-101.846
X217.106Y-94.336
X217.141Y-92.831
X217.856Y-114.736
X218.016Y-110.906
X218.336Y-92.886
X218.336Y-94.366
X218.366Y-100.236
X218.366Y-101.896
X219.116Y-115.496
X219.136Y-112.116
X219.136Y-113.686
X219.386Y-110.786
X222.25Y-71.12
X222.25Y-72.39
X222.25Y-73.914
X223.774Y-71.12
X223.774Y-72.39
X223.774Y-73.914
X225.044Y-71.12
X225.044Y-73.914
X225.298Y-72.644
T7
X212.716Y-91.306
X213.706Y-94.996
X213.816Y-93.166
X214.496Y-91.286
T8
X222.544Y-89.408
X227.544Y-89.408
T9
X237.556Y-88.511
X237.556Y-93.511
X237.656Y-111.826
X237.656Y-116.826
X237.826Y-100.406
X237.826Y-105.406
T10
X198.391Y-95.761
X198.391Y-100.761
X198.506Y-107.446
X198.506Y-112.446
T6
G00X196.564Y-73.546
M15
G01X195.763Y-73.546
M16
G05
G00X196.564Y-82.206
M15
G01X195.763Y-82.206
M16
G05
G00X200.913Y-73.546
M15
G01X199.814Y-73.546
M16
G05
G00X200.913Y-82.206
M15
G01X199.814Y-82.206
M16
G05
M30
