%TF.GenerationSoftware,KiCad,Pcbnew,9.0.0*%
%TF.CreationDate,2025-03-01T12:45:02-04:00*%
%TF.ProjectId,PROYECT T,50524f59-4543-4542-9054-2e6b69636164,rev?*%
%TF.SameCoordinates,Original*%
%TF.FileFunction,Paste,Top*%
%TF.FilePolarity,Positive*%
%FSLAX46Y46*%
G04 Gerber Fmt 4.6, Leading zero omitted, Abs format (unit mm)*
G04 Created by KiCad (PCBNEW 9.0.0) date 2025-03-01 12:45:02*
%MOMM*%
%LPD*%
G01*
G04 APERTURE LIST*
G04 Aperture macros list*
%AMRoundRect*
0 Rectangle with rounded corners*
0 $1 Rounding radius*
0 $2 $3 $4 $5 $6 $7 $8 $9 X,Y pos of 4 corners*
0 Add a 4 corners polygon primitive as box body*
4,1,4,$2,$3,$4,$5,$6,$7,$8,$9,$2,$3,0*
0 Add four circle primitives for the rounded corners*
1,1,$1+$1,$2,$3*
1,1,$1+$1,$4,$5*
1,1,$1+$1,$6,$7*
1,1,$1+$1,$8,$9*
0 Add four rect primitives between the rounded corners*
20,1,$1+$1,$2,$3,$4,$5,0*
20,1,$1+$1,$4,$5,$6,$7,0*
20,1,$1+$1,$6,$7,$8,$9,0*
20,1,$1+$1,$8,$9,$2,$3,0*%
G04 Aperture macros list end*
%ADD10R,0.320000X0.510000*%
%ADD11RoundRect,0.225000X-0.225000X-0.250000X0.225000X-0.250000X0.225000X0.250000X-0.225000X0.250000X0*%
%ADD12RoundRect,0.140000X0.170000X-0.140000X0.170000X0.140000X-0.170000X0.140000X-0.170000X-0.140000X0*%
%ADD13R,0.510000X0.320000*%
%ADD14RoundRect,0.140000X-0.170000X0.140000X-0.170000X-0.140000X0.170000X-0.140000X0.170000X0.140000X0*%
%ADD15RoundRect,0.248780X-0.451220X0.261220X-0.451220X-0.261220X0.451220X-0.261220X0.451220X0.261220X0*%
%ADD16RoundRect,0.250000X1.412500X0.550000X-1.412500X0.550000X-1.412500X-0.550000X1.412500X-0.550000X0*%
%ADD17RoundRect,0.200000X0.275000X-0.200000X0.275000X0.200000X-0.275000X0.200000X-0.275000X-0.200000X0*%
%ADD18RoundRect,0.140000X0.140000X0.170000X-0.140000X0.170000X-0.140000X-0.170000X0.140000X-0.170000X0*%
%ADD19RoundRect,0.248780X0.451220X-0.261220X0.451220X0.261220X-0.451220X0.261220X-0.451220X-0.261220X0*%
%ADD20R,2.400000X3.100000*%
%ADD21R,2.200000X0.500000*%
%ADD22R,1.300000X2.000000*%
%ADD23R,2.000000X2.000000*%
%ADD24R,1.500000X0.900000*%
%ADD25R,0.900000X1.500000*%
%ADD26R,0.900000X0.900000*%
%ADD27R,2.200000X2.150000*%
%ADD28RoundRect,0.225000X0.250000X-0.225000X0.250000X0.225000X-0.250000X0.225000X-0.250000X-0.225000X0*%
%ADD29R,1.050000X1.820000*%
%ADD30R,1.000000X0.700000*%
%ADD31RoundRect,0.250000X0.325000X0.650000X-0.325000X0.650000X-0.325000X-0.650000X0.325000X-0.650000X0*%
%ADD32RoundRect,0.140000X-0.140000X-0.170000X0.140000X-0.170000X0.140000X0.170000X-0.140000X0.170000X0*%
%ADD33R,1.200000X0.600000*%
%ADD34R,2.550000X1.000000*%
%ADD35R,1.250000X1.450000*%
%ADD36R,1.375000X1.150000*%
%ADD37R,1.400000X0.300000*%
%ADD38R,1.400000X0.500000*%
%ADD39RoundRect,0.500000X-1.000000X2.000000X-1.000000X-2.000000X1.000000X-2.000000X1.000000X2.000000X0*%
G04 APERTURE END LIST*
D10*
%TO.C,D8*%
X243426000Y-113646000D03*
X243426000Y-114646000D03*
%TD*%
D11*
%TO.C,C10*%
X211436000Y-84666000D03*
X212996000Y-84666000D03*
%TD*%
D12*
%TO.C,R7*%
X236726000Y-80796000D03*
X236726000Y-79796000D03*
%TD*%
D13*
%TO.C,D5*%
X223286000Y-98306000D03*
X224286000Y-98306000D03*
%TD*%
D14*
%TO.C,C15*%
X214186000Y-82486000D03*
X214186000Y-83486000D03*
%TD*%
D10*
%TO.C,D9*%
X243416000Y-89886000D03*
X243416000Y-90886000D03*
%TD*%
D15*
%TO.C,R10*%
X202936000Y-79966000D03*
X202936000Y-81786000D03*
%TD*%
D16*
%TO.C,C5*%
X213508500Y-91231000D03*
X208433500Y-91231000D03*
%TD*%
D13*
%TO.C,D4*%
X223256000Y-96876000D03*
X224256000Y-96876000D03*
%TD*%
D17*
%TO.C,R2*%
X222621000Y-95571000D03*
X222621000Y-93931000D03*
%TD*%
D11*
%TO.C,C11*%
X217178000Y-106066000D03*
X218738000Y-106066000D03*
%TD*%
D18*
%TO.C,R6*%
X214166000Y-81376000D03*
X213166000Y-81376000D03*
%TD*%
D19*
%TO.C,R9*%
X203203500Y-76336000D03*
X203203500Y-74516000D03*
%TD*%
D18*
%TO.C,C16*%
X214186000Y-78716000D03*
X213186000Y-78716000D03*
%TD*%
D20*
%TO.C,U2*%
X217721000Y-97486000D03*
D21*
X220596000Y-99391000D03*
X220596000Y-98121000D03*
X220596000Y-96851000D03*
X220596000Y-95581000D03*
X214846000Y-95581000D03*
X214846000Y-96851000D03*
X214846000Y-98121000D03*
X214846000Y-99391000D03*
%TD*%
D22*
%TO.C,R11*%
X240096000Y-67136000D03*
D23*
X241246000Y-71136000D03*
D22*
X242396000Y-67136000D03*
%TD*%
D24*
%TO.C,IC2*%
X216526000Y-64826000D03*
X216526000Y-66096000D03*
X216526000Y-67366000D03*
X216526000Y-68636000D03*
X216526000Y-69906000D03*
X216526000Y-71176000D03*
X216526000Y-72446000D03*
X216526000Y-73716000D03*
X216526000Y-74986000D03*
X216526000Y-76256000D03*
X216526000Y-77526000D03*
X216526000Y-78796000D03*
X216526000Y-80066000D03*
X216526000Y-81336000D03*
D25*
X218291000Y-82586000D03*
X219561000Y-82586000D03*
X220831000Y-82586000D03*
X222101000Y-82586000D03*
X223371000Y-82586000D03*
X224641000Y-82586000D03*
X225911000Y-82586000D03*
X227181000Y-82586000D03*
X228451000Y-82586000D03*
X229721000Y-82586000D03*
X230991000Y-82586000D03*
X232261000Y-82586000D03*
D24*
X234026000Y-81336000D03*
X234026000Y-80066000D03*
X234026000Y-78796000D03*
X234026000Y-77526000D03*
X234026000Y-76256000D03*
X234026000Y-74986000D03*
X234026000Y-73716000D03*
X234026000Y-72446000D03*
X234026000Y-71176000D03*
X234026000Y-69906000D03*
X234026000Y-68636000D03*
X234026000Y-67366000D03*
X234026000Y-66096000D03*
X234026000Y-64826000D03*
D26*
X223776000Y-72546000D03*
X223776000Y-71146000D03*
X222376000Y-71146000D03*
X222376000Y-72546000D03*
X222376000Y-73946000D03*
X223776000Y-73946000D03*
X225176000Y-73946000D03*
X225176000Y-72546000D03*
X225176000Y-71146000D03*
%TD*%
D27*
%TO.C,D2*%
X205116000Y-86016000D03*
X200716000Y-86016000D03*
%TD*%
D28*
%TO.C,C1*%
X212806000Y-66536000D03*
X212806000Y-64976000D03*
%TD*%
D29*
%TO.C,C13*%
X217128000Y-113286000D03*
X214348000Y-113286000D03*
%TD*%
D12*
%TO.C,C2*%
X214076000Y-66226000D03*
X214076000Y-65226000D03*
%TD*%
%TO.C,R3*%
X243416000Y-88586000D03*
X243416000Y-87586000D03*
%TD*%
%TO.C,C4*%
X218686000Y-90924000D03*
X218686000Y-89924000D03*
%TD*%
D30*
%TO.C,IC3*%
X214418000Y-108366000D03*
X214418000Y-109316000D03*
X214418000Y-110266000D03*
X216616000Y-110266000D03*
X216616000Y-109316000D03*
X216616000Y-108366000D03*
%TD*%
D10*
%TO.C,D7*%
X243596000Y-101476000D03*
X243596000Y-102476000D03*
%TD*%
D11*
%TO.C,C6*%
X215331000Y-93921000D03*
X216891000Y-93921000D03*
%TD*%
D12*
%TO.C,C8*%
X237746000Y-68136000D03*
X237746000Y-67136000D03*
%TD*%
D31*
%TO.C,C12*%
X222278000Y-110796000D03*
X219318000Y-110796000D03*
%TD*%
D32*
%TO.C,C9*%
X209451500Y-83310500D03*
X210451500Y-83310500D03*
%TD*%
D33*
%TO.C,IC1*%
X208701500Y-80040500D03*
X208701500Y-80990500D03*
X208701500Y-81940500D03*
X211201500Y-81940500D03*
X211201500Y-80990500D03*
X211201500Y-80040500D03*
%TD*%
D12*
%TO.C,C7*%
X212036000Y-73916000D03*
X212036000Y-72916000D03*
%TD*%
D34*
%TO.C,Reset1*%
X209621000Y-69336000D03*
X209621000Y-67336000D03*
X209621000Y-65336000D03*
X202871000Y-69336000D03*
X202871000Y-67336000D03*
X202871000Y-65336000D03*
%TD*%
D10*
%TO.C,D6*%
X237746000Y-69636000D03*
X237746000Y-70636000D03*
%TD*%
D14*
%TO.C,R5*%
X243366000Y-111426000D03*
X243366000Y-112426000D03*
%TD*%
D12*
%TO.C,R4*%
X243626000Y-100476000D03*
X243626000Y-99476000D03*
%TD*%
%TO.C,R1*%
X213136000Y-73896000D03*
X213136000Y-72896000D03*
%TD*%
D31*
%TO.C,C14*%
X222278000Y-113406000D03*
X219318000Y-113406000D03*
%TD*%
D35*
%TO.C,L1*%
X219448000Y-108316000D03*
X221948000Y-108316000D03*
%TD*%
D36*
%TO.C,D3*%
X222483000Y-116486000D03*
X219333000Y-116486000D03*
%TD*%
D37*
%TO.C,J1*%
X201043500Y-76626000D03*
X201043500Y-77626000D03*
X201043500Y-78126000D03*
X201043500Y-79126000D03*
D38*
X201043500Y-80276000D03*
X201043500Y-81076000D03*
D37*
X201043500Y-79626000D03*
X201043500Y-78626000D03*
X201043500Y-77126000D03*
X201043500Y-76126000D03*
D38*
X201043500Y-75476000D03*
X201043500Y-74676000D03*
D39*
X196543500Y-77876000D03*
%TD*%
D18*
%TO.C,C3*%
X213026000Y-74986000D03*
X212026000Y-74986000D03*
%TD*%
%TO.C,R8*%
X214146000Y-80086000D03*
X213146000Y-80086000D03*
%TD*%
D27*
%TO.C,D1*%
X207616000Y-107196000D03*
X203216000Y-107196000D03*
%TD*%
M02*
