%TF.GenerationSoftware,KiCad,Pcbnew,9.0.0*%
%TF.CreationDate,2025-03-01T12:45:02-04:00*%
%TF.ProjectId,PROYECT T,50524f59-4543-4542-9054-2e6b69636164,rev?*%
%TF.SameCoordinates,Original*%
%TF.FileFunction,Legend,Top*%
%TF.FilePolarity,Positive*%
%FSLAX46Y46*%
G04 Gerber Fmt 4.6, Leading zero omitted, Abs format (unit mm)*
G04 Created by KiCad (PCBNEW 9.0.0) date 2025-03-01 12:45:02*
%MOMM*%
%LPD*%
G01*
G04 APERTURE LIST*
%ADD10C,0.254000*%
%ADD11C,0.150000*%
%ADD12C,0.100000*%
%ADD13C,0.200000*%
%ADD14C,0.120000*%
G04 APERTURE END LIST*
D10*
X224832333Y-89982318D02*
X224227571Y-89982318D01*
X224227571Y-89982318D02*
X224227571Y-88712318D01*
X225195190Y-88833270D02*
X225255666Y-88772794D01*
X225255666Y-88772794D02*
X225376619Y-88712318D01*
X225376619Y-88712318D02*
X225679000Y-88712318D01*
X225679000Y-88712318D02*
X225799952Y-88772794D01*
X225799952Y-88772794D02*
X225860428Y-88833270D01*
X225860428Y-88833270D02*
X225920905Y-88954222D01*
X225920905Y-88954222D02*
X225920905Y-89075175D01*
X225920905Y-89075175D02*
X225860428Y-89256603D01*
X225860428Y-89256603D02*
X225134714Y-89982318D01*
X225134714Y-89982318D02*
X225920905Y-89982318D01*
X244000318Y-115083381D02*
X242730318Y-115083381D01*
X242730318Y-115083381D02*
X242730318Y-114781000D01*
X242730318Y-114781000D02*
X242790794Y-114599571D01*
X242790794Y-114599571D02*
X242911746Y-114478619D01*
X242911746Y-114478619D02*
X243032699Y-114418142D01*
X243032699Y-114418142D02*
X243274603Y-114357666D01*
X243274603Y-114357666D02*
X243456032Y-114357666D01*
X243456032Y-114357666D02*
X243697937Y-114418142D01*
X243697937Y-114418142D02*
X243818889Y-114478619D01*
X243818889Y-114478619D02*
X243939842Y-114599571D01*
X243939842Y-114599571D02*
X244000318Y-114781000D01*
X244000318Y-114781000D02*
X244000318Y-115083381D01*
X243274603Y-113631952D02*
X243214127Y-113752904D01*
X243214127Y-113752904D02*
X243153651Y-113813381D01*
X243153651Y-113813381D02*
X243032699Y-113873857D01*
X243032699Y-113873857D02*
X242972222Y-113873857D01*
X242972222Y-113873857D02*
X242851270Y-113813381D01*
X242851270Y-113813381D02*
X242790794Y-113752904D01*
X242790794Y-113752904D02*
X242730318Y-113631952D01*
X242730318Y-113631952D02*
X242730318Y-113390047D01*
X242730318Y-113390047D02*
X242790794Y-113269095D01*
X242790794Y-113269095D02*
X242851270Y-113208619D01*
X242851270Y-113208619D02*
X242972222Y-113148142D01*
X242972222Y-113148142D02*
X243032699Y-113148142D01*
X243032699Y-113148142D02*
X243153651Y-113208619D01*
X243153651Y-113208619D02*
X243214127Y-113269095D01*
X243214127Y-113269095D02*
X243274603Y-113390047D01*
X243274603Y-113390047D02*
X243274603Y-113631952D01*
X243274603Y-113631952D02*
X243335080Y-113752904D01*
X243335080Y-113752904D02*
X243395556Y-113813381D01*
X243395556Y-113813381D02*
X243516508Y-113873857D01*
X243516508Y-113873857D02*
X243758413Y-113873857D01*
X243758413Y-113873857D02*
X243879365Y-113813381D01*
X243879365Y-113813381D02*
X243939842Y-113752904D01*
X243939842Y-113752904D02*
X244000318Y-113631952D01*
X244000318Y-113631952D02*
X244000318Y-113390047D01*
X244000318Y-113390047D02*
X243939842Y-113269095D01*
X243939842Y-113269095D02*
X243879365Y-113208619D01*
X243879365Y-113208619D02*
X243758413Y-113148142D01*
X243758413Y-113148142D02*
X243516508Y-113148142D01*
X243516508Y-113148142D02*
X243395556Y-113208619D01*
X243395556Y-113208619D02*
X243335080Y-113269095D01*
X243335080Y-113269095D02*
X243274603Y-113390047D01*
X222848618Y-98880318D02*
X222848618Y-97610318D01*
X222848618Y-97610318D02*
X223150999Y-97610318D01*
X223150999Y-97610318D02*
X223332428Y-97670794D01*
X223332428Y-97670794D02*
X223453380Y-97791746D01*
X223453380Y-97791746D02*
X223513857Y-97912699D01*
X223513857Y-97912699D02*
X223574333Y-98154603D01*
X223574333Y-98154603D02*
X223574333Y-98336032D01*
X223574333Y-98336032D02*
X223513857Y-98577937D01*
X223513857Y-98577937D02*
X223453380Y-98698889D01*
X223453380Y-98698889D02*
X223332428Y-98819842D01*
X223332428Y-98819842D02*
X223150999Y-98880318D01*
X223150999Y-98880318D02*
X222848618Y-98880318D01*
X224723380Y-97610318D02*
X224118618Y-97610318D01*
X224118618Y-97610318D02*
X224058142Y-98215080D01*
X224058142Y-98215080D02*
X224118618Y-98154603D01*
X224118618Y-98154603D02*
X224239571Y-98094127D01*
X224239571Y-98094127D02*
X224541952Y-98094127D01*
X224541952Y-98094127D02*
X224662904Y-98154603D01*
X224662904Y-98154603D02*
X224723380Y-98215080D01*
X224723380Y-98215080D02*
X224783857Y-98336032D01*
X224783857Y-98336032D02*
X224783857Y-98638413D01*
X224783857Y-98638413D02*
X224723380Y-98759365D01*
X224723380Y-98759365D02*
X224662904Y-98819842D01*
X224662904Y-98819842D02*
X224541952Y-98880318D01*
X224541952Y-98880318D02*
X224239571Y-98880318D01*
X224239571Y-98880318D02*
X224118618Y-98819842D01*
X224118618Y-98819842D02*
X224058142Y-98759365D01*
X243990318Y-91323381D02*
X242720318Y-91323381D01*
X242720318Y-91323381D02*
X242720318Y-91021000D01*
X242720318Y-91021000D02*
X242780794Y-90839571D01*
X242780794Y-90839571D02*
X242901746Y-90718619D01*
X242901746Y-90718619D02*
X243022699Y-90658142D01*
X243022699Y-90658142D02*
X243264603Y-90597666D01*
X243264603Y-90597666D02*
X243446032Y-90597666D01*
X243446032Y-90597666D02*
X243687937Y-90658142D01*
X243687937Y-90658142D02*
X243808889Y-90718619D01*
X243808889Y-90718619D02*
X243929842Y-90839571D01*
X243929842Y-90839571D02*
X243990318Y-91021000D01*
X243990318Y-91021000D02*
X243990318Y-91323381D01*
X243990318Y-89992904D02*
X243990318Y-89751000D01*
X243990318Y-89751000D02*
X243929842Y-89630047D01*
X243929842Y-89630047D02*
X243869365Y-89569571D01*
X243869365Y-89569571D02*
X243687937Y-89448619D01*
X243687937Y-89448619D02*
X243446032Y-89388142D01*
X243446032Y-89388142D02*
X242962222Y-89388142D01*
X242962222Y-89388142D02*
X242841270Y-89448619D01*
X242841270Y-89448619D02*
X242780794Y-89509095D01*
X242780794Y-89509095D02*
X242720318Y-89630047D01*
X242720318Y-89630047D02*
X242720318Y-89871952D01*
X242720318Y-89871952D02*
X242780794Y-89992904D01*
X242780794Y-89992904D02*
X242841270Y-90053381D01*
X242841270Y-90053381D02*
X242962222Y-90113857D01*
X242962222Y-90113857D02*
X243264603Y-90113857D01*
X243264603Y-90113857D02*
X243385556Y-90053381D01*
X243385556Y-90053381D02*
X243446032Y-89992904D01*
X243446032Y-89992904D02*
X243506508Y-89871952D01*
X243506508Y-89871952D02*
X243506508Y-89630047D01*
X243506508Y-89630047D02*
X243446032Y-89509095D01*
X243446032Y-89509095D02*
X243385556Y-89448619D01*
X243385556Y-89448619D02*
X243264603Y-89388142D01*
X196360318Y-101563381D02*
X195090318Y-101563381D01*
X195090318Y-101563381D02*
X195997461Y-101140047D01*
X195997461Y-101140047D02*
X195090318Y-100716714D01*
X195090318Y-100716714D02*
X196360318Y-100716714D01*
X195090318Y-99870047D02*
X195090318Y-99628142D01*
X195090318Y-99628142D02*
X195150794Y-99507190D01*
X195150794Y-99507190D02*
X195271746Y-99386237D01*
X195271746Y-99386237D02*
X195513651Y-99325761D01*
X195513651Y-99325761D02*
X195936984Y-99325761D01*
X195936984Y-99325761D02*
X196178889Y-99386237D01*
X196178889Y-99386237D02*
X196299842Y-99507190D01*
X196299842Y-99507190D02*
X196360318Y-99628142D01*
X196360318Y-99628142D02*
X196360318Y-99870047D01*
X196360318Y-99870047D02*
X196299842Y-99990999D01*
X196299842Y-99990999D02*
X196178889Y-100111952D01*
X196178889Y-100111952D02*
X195936984Y-100172428D01*
X195936984Y-100172428D02*
X195513651Y-100172428D01*
X195513651Y-100172428D02*
X195271746Y-100111952D01*
X195271746Y-100111952D02*
X195150794Y-99990999D01*
X195150794Y-99990999D02*
X195090318Y-99870047D01*
X195090318Y-98962904D02*
X195090318Y-98237190D01*
X196360318Y-98600047D02*
X195090318Y-98600047D01*
X195090318Y-97571952D02*
X195090318Y-97330047D01*
X195090318Y-97330047D02*
X195150794Y-97209095D01*
X195150794Y-97209095D02*
X195271746Y-97088142D01*
X195271746Y-97088142D02*
X195513651Y-97027666D01*
X195513651Y-97027666D02*
X195936984Y-97027666D01*
X195936984Y-97027666D02*
X196178889Y-97088142D01*
X196178889Y-97088142D02*
X196299842Y-97209095D01*
X196299842Y-97209095D02*
X196360318Y-97330047D01*
X196360318Y-97330047D02*
X196360318Y-97571952D01*
X196360318Y-97571952D02*
X196299842Y-97692904D01*
X196299842Y-97692904D02*
X196178889Y-97813857D01*
X196178889Y-97813857D02*
X195936984Y-97874333D01*
X195936984Y-97874333D02*
X195513651Y-97874333D01*
X195513651Y-97874333D02*
X195271746Y-97813857D01*
X195271746Y-97813857D02*
X195150794Y-97692904D01*
X195150794Y-97692904D02*
X195090318Y-97571952D01*
X196360318Y-95757666D02*
X195755556Y-96181000D01*
X196360318Y-96483381D02*
X195090318Y-96483381D01*
X195090318Y-96483381D02*
X195090318Y-95999571D01*
X195090318Y-95999571D02*
X195150794Y-95878619D01*
X195150794Y-95878619D02*
X195211270Y-95818142D01*
X195211270Y-95818142D02*
X195332222Y-95757666D01*
X195332222Y-95757666D02*
X195513651Y-95757666D01*
X195513651Y-95757666D02*
X195634603Y-95818142D01*
X195634603Y-95818142D02*
X195695080Y-95878619D01*
X195695080Y-95878619D02*
X195755556Y-95999571D01*
X195755556Y-95999571D02*
X195755556Y-96483381D01*
X196360318Y-94548142D02*
X196360318Y-95273857D01*
X196360318Y-94911000D02*
X195090318Y-94911000D01*
X195090318Y-94911000D02*
X195271746Y-95031952D01*
X195271746Y-95031952D02*
X195392699Y-95152904D01*
X195392699Y-95152904D02*
X195453175Y-95273857D01*
D11*
X210804333Y-95940580D02*
X210756714Y-95988200D01*
X210756714Y-95988200D02*
X210613857Y-96035819D01*
X210613857Y-96035819D02*
X210518619Y-96035819D01*
X210518619Y-96035819D02*
X210375762Y-95988200D01*
X210375762Y-95988200D02*
X210280524Y-95892961D01*
X210280524Y-95892961D02*
X210232905Y-95797723D01*
X210232905Y-95797723D02*
X210185286Y-95607247D01*
X210185286Y-95607247D02*
X210185286Y-95464390D01*
X210185286Y-95464390D02*
X210232905Y-95273914D01*
X210232905Y-95273914D02*
X210280524Y-95178676D01*
X210280524Y-95178676D02*
X210375762Y-95083438D01*
X210375762Y-95083438D02*
X210518619Y-95035819D01*
X210518619Y-95035819D02*
X210613857Y-95035819D01*
X210613857Y-95035819D02*
X210756714Y-95083438D01*
X210756714Y-95083438D02*
X210804333Y-95131057D01*
X211709095Y-95035819D02*
X211232905Y-95035819D01*
X211232905Y-95035819D02*
X211185286Y-95512009D01*
X211185286Y-95512009D02*
X211232905Y-95464390D01*
X211232905Y-95464390D02*
X211328143Y-95416771D01*
X211328143Y-95416771D02*
X211566238Y-95416771D01*
X211566238Y-95416771D02*
X211661476Y-95464390D01*
X211661476Y-95464390D02*
X211709095Y-95512009D01*
X211709095Y-95512009D02*
X211756714Y-95607247D01*
X211756714Y-95607247D02*
X211756714Y-95845342D01*
X211756714Y-95845342D02*
X211709095Y-95940580D01*
X211709095Y-95940580D02*
X211661476Y-95988200D01*
X211661476Y-95988200D02*
X211566238Y-96035819D01*
X211566238Y-96035819D02*
X211328143Y-96035819D01*
X211328143Y-96035819D02*
X211232905Y-95988200D01*
X211232905Y-95988200D02*
X211185286Y-95940580D01*
D10*
X222818618Y-97450318D02*
X222818618Y-96180318D01*
X222818618Y-96180318D02*
X223120999Y-96180318D01*
X223120999Y-96180318D02*
X223302428Y-96240794D01*
X223302428Y-96240794D02*
X223423380Y-96361746D01*
X223423380Y-96361746D02*
X223483857Y-96482699D01*
X223483857Y-96482699D02*
X223544333Y-96724603D01*
X223544333Y-96724603D02*
X223544333Y-96906032D01*
X223544333Y-96906032D02*
X223483857Y-97147937D01*
X223483857Y-97147937D02*
X223423380Y-97268889D01*
X223423380Y-97268889D02*
X223302428Y-97389842D01*
X223302428Y-97389842D02*
X223120999Y-97450318D01*
X223120999Y-97450318D02*
X222818618Y-97450318D01*
X224632904Y-96603651D02*
X224632904Y-97450318D01*
X224330523Y-96119842D02*
X224028142Y-97026984D01*
X224028142Y-97026984D02*
X224814333Y-97026984D01*
X237465080Y-101433380D02*
X237525556Y-101251952D01*
X237525556Y-101251952D02*
X237586032Y-101191475D01*
X237586032Y-101191475D02*
X237706984Y-101130999D01*
X237706984Y-101130999D02*
X237888413Y-101130999D01*
X237888413Y-101130999D02*
X238009365Y-101191475D01*
X238009365Y-101191475D02*
X238069842Y-101251952D01*
X238069842Y-101251952D02*
X238130318Y-101372904D01*
X238130318Y-101372904D02*
X238130318Y-101856714D01*
X238130318Y-101856714D02*
X236860318Y-101856714D01*
X236860318Y-101856714D02*
X236860318Y-101433380D01*
X236860318Y-101433380D02*
X236920794Y-101312428D01*
X236920794Y-101312428D02*
X236981270Y-101251952D01*
X236981270Y-101251952D02*
X237102222Y-101191475D01*
X237102222Y-101191475D02*
X237223175Y-101191475D01*
X237223175Y-101191475D02*
X237344127Y-101251952D01*
X237344127Y-101251952D02*
X237404603Y-101312428D01*
X237404603Y-101312428D02*
X237465080Y-101433380D01*
X237465080Y-101433380D02*
X237465080Y-101856714D01*
X236860318Y-100344809D02*
X236860318Y-100102904D01*
X236860318Y-100102904D02*
X236920794Y-99981952D01*
X236920794Y-99981952D02*
X237041746Y-99860999D01*
X237041746Y-99860999D02*
X237283651Y-99800523D01*
X237283651Y-99800523D02*
X237706984Y-99800523D01*
X237706984Y-99800523D02*
X237948889Y-99860999D01*
X237948889Y-99860999D02*
X238069842Y-99981952D01*
X238069842Y-99981952D02*
X238130318Y-100102904D01*
X238130318Y-100102904D02*
X238130318Y-100344809D01*
X238130318Y-100344809D02*
X238069842Y-100465761D01*
X238069842Y-100465761D02*
X237948889Y-100586714D01*
X237948889Y-100586714D02*
X237706984Y-100647190D01*
X237706984Y-100647190D02*
X237283651Y-100647190D01*
X237283651Y-100647190D02*
X237041746Y-100586714D01*
X237041746Y-100586714D02*
X236920794Y-100465761D01*
X236920794Y-100465761D02*
X236860318Y-100344809D01*
X236860318Y-99437666D02*
X236860318Y-98711952D01*
X238130318Y-99074809D02*
X236860318Y-99074809D01*
X236860318Y-98046714D02*
X236860318Y-97804809D01*
X236860318Y-97804809D02*
X236920794Y-97683857D01*
X236920794Y-97683857D02*
X237041746Y-97562904D01*
X237041746Y-97562904D02*
X237283651Y-97502428D01*
X237283651Y-97502428D02*
X237706984Y-97502428D01*
X237706984Y-97502428D02*
X237948889Y-97562904D01*
X237948889Y-97562904D02*
X238069842Y-97683857D01*
X238069842Y-97683857D02*
X238130318Y-97804809D01*
X238130318Y-97804809D02*
X238130318Y-98046714D01*
X238130318Y-98046714D02*
X238069842Y-98167666D01*
X238069842Y-98167666D02*
X237948889Y-98288619D01*
X237948889Y-98288619D02*
X237706984Y-98349095D01*
X237706984Y-98349095D02*
X237283651Y-98349095D01*
X237283651Y-98349095D02*
X237041746Y-98288619D01*
X237041746Y-98288619D02*
X236920794Y-98167666D01*
X236920794Y-98167666D02*
X236860318Y-98046714D01*
X238130318Y-96958143D02*
X236860318Y-96958143D01*
X236860318Y-96958143D02*
X238130318Y-96232428D01*
X238130318Y-96232428D02*
X236860318Y-96232428D01*
X238251270Y-95930048D02*
X238251270Y-94962428D01*
X236860318Y-94841476D02*
X236860318Y-94115762D01*
X238130318Y-94478619D02*
X236860318Y-94478619D01*
X237465080Y-93692429D02*
X237465080Y-93269095D01*
X238130318Y-93087667D02*
X238130318Y-93692429D01*
X238130318Y-93692429D02*
X236860318Y-93692429D01*
X236860318Y-93692429D02*
X236860318Y-93087667D01*
X238130318Y-91817666D02*
X237525556Y-92241000D01*
X238130318Y-92543381D02*
X236860318Y-92543381D01*
X236860318Y-92543381D02*
X236860318Y-92059571D01*
X236860318Y-92059571D02*
X236920794Y-91938619D01*
X236920794Y-91938619D02*
X236981270Y-91878142D01*
X236981270Y-91878142D02*
X237102222Y-91817666D01*
X237102222Y-91817666D02*
X237283651Y-91817666D01*
X237283651Y-91817666D02*
X237404603Y-91878142D01*
X237404603Y-91878142D02*
X237465080Y-91938619D01*
X237465080Y-91938619D02*
X237525556Y-92059571D01*
X237525556Y-92059571D02*
X237525556Y-92543381D01*
X238130318Y-91273381D02*
X236860318Y-91273381D01*
X236860318Y-91273381D02*
X237767461Y-90850047D01*
X237767461Y-90850047D02*
X236860318Y-90426714D01*
X236860318Y-90426714D02*
X238130318Y-90426714D01*
X238130318Y-89821952D02*
X236860318Y-89821952D01*
X238130318Y-89217190D02*
X236860318Y-89217190D01*
X236860318Y-89217190D02*
X238130318Y-88491475D01*
X238130318Y-88491475D02*
X236860318Y-88491475D01*
X237767461Y-87947190D02*
X237767461Y-87342428D01*
X238130318Y-88068142D02*
X236860318Y-87644809D01*
X236860318Y-87644809D02*
X238130318Y-87221475D01*
X238130318Y-86193381D02*
X238130318Y-86798143D01*
X238130318Y-86798143D02*
X236860318Y-86798143D01*
X238130318Y-85104809D02*
X238130318Y-85830524D01*
X238130318Y-85467667D02*
X236860318Y-85467667D01*
X236860318Y-85467667D02*
X237041746Y-85588619D01*
X237041746Y-85588619D02*
X237162699Y-85709571D01*
X237162699Y-85709571D02*
X237223175Y-85830524D01*
D11*
X216959095Y-100440819D02*
X216959095Y-101250342D01*
X216959095Y-101250342D02*
X217006714Y-101345580D01*
X217006714Y-101345580D02*
X217054333Y-101393200D01*
X217054333Y-101393200D02*
X217149571Y-101440819D01*
X217149571Y-101440819D02*
X217340047Y-101440819D01*
X217340047Y-101440819D02*
X217435285Y-101393200D01*
X217435285Y-101393200D02*
X217482904Y-101345580D01*
X217482904Y-101345580D02*
X217530523Y-101250342D01*
X217530523Y-101250342D02*
X217530523Y-100440819D01*
X217959095Y-100536057D02*
X218006714Y-100488438D01*
X218006714Y-100488438D02*
X218101952Y-100440819D01*
X218101952Y-100440819D02*
X218340047Y-100440819D01*
X218340047Y-100440819D02*
X218435285Y-100488438D01*
X218435285Y-100488438D02*
X218482904Y-100536057D01*
X218482904Y-100536057D02*
X218530523Y-100631295D01*
X218530523Y-100631295D02*
X218530523Y-100726533D01*
X218530523Y-100726533D02*
X218482904Y-100869390D01*
X218482904Y-100869390D02*
X217911476Y-101440819D01*
X217911476Y-101440819D02*
X218530523Y-101440819D01*
D10*
X240077571Y-69616318D02*
X239654237Y-69011556D01*
X239351856Y-69616318D02*
X239351856Y-68346318D01*
X239351856Y-68346318D02*
X239835666Y-68346318D01*
X239835666Y-68346318D02*
X239956618Y-68406794D01*
X239956618Y-68406794D02*
X240017095Y-68467270D01*
X240017095Y-68467270D02*
X240077571Y-68588222D01*
X240077571Y-68588222D02*
X240077571Y-68769651D01*
X240077571Y-68769651D02*
X240017095Y-68890603D01*
X240017095Y-68890603D02*
X239956618Y-68951080D01*
X239956618Y-68951080D02*
X239835666Y-69011556D01*
X239835666Y-69011556D02*
X239351856Y-69011556D01*
X241287095Y-69616318D02*
X240561380Y-69616318D01*
X240924237Y-69616318D02*
X240924237Y-68346318D01*
X240924237Y-68346318D02*
X240803285Y-68527746D01*
X240803285Y-68527746D02*
X240682333Y-68648699D01*
X240682333Y-68648699D02*
X240561380Y-68709175D01*
X242496619Y-69616318D02*
X241770904Y-69616318D01*
X242133761Y-69616318D02*
X242133761Y-68346318D01*
X242133761Y-68346318D02*
X242012809Y-68527746D01*
X242012809Y-68527746D02*
X241891857Y-68648699D01*
X241891857Y-68648699D02*
X241770904Y-68709175D01*
X224036237Y-70910318D02*
X224036237Y-69640318D01*
X225366714Y-70789365D02*
X225306238Y-70849842D01*
X225306238Y-70849842D02*
X225124809Y-70910318D01*
X225124809Y-70910318D02*
X225003857Y-70910318D01*
X225003857Y-70910318D02*
X224822428Y-70849842D01*
X224822428Y-70849842D02*
X224701476Y-70728889D01*
X224701476Y-70728889D02*
X224640999Y-70607937D01*
X224640999Y-70607937D02*
X224580523Y-70366032D01*
X224580523Y-70366032D02*
X224580523Y-70184603D01*
X224580523Y-70184603D02*
X224640999Y-69942699D01*
X224640999Y-69942699D02*
X224701476Y-69821746D01*
X224701476Y-69821746D02*
X224822428Y-69700794D01*
X224822428Y-69700794D02*
X225003857Y-69640318D01*
X225003857Y-69640318D02*
X225124809Y-69640318D01*
X225124809Y-69640318D02*
X225306238Y-69700794D01*
X225306238Y-69700794D02*
X225366714Y-69761270D01*
X225850523Y-69761270D02*
X225910999Y-69700794D01*
X225910999Y-69700794D02*
X226031952Y-69640318D01*
X226031952Y-69640318D02*
X226334333Y-69640318D01*
X226334333Y-69640318D02*
X226455285Y-69700794D01*
X226455285Y-69700794D02*
X226515761Y-69761270D01*
X226515761Y-69761270D02*
X226576238Y-69882222D01*
X226576238Y-69882222D02*
X226576238Y-70003175D01*
X226576238Y-70003175D02*
X226515761Y-70184603D01*
X226515761Y-70184603D02*
X225790047Y-70910318D01*
X225790047Y-70910318D02*
X226576238Y-70910318D01*
X232420318Y-115687428D02*
X232420318Y-116292190D01*
X232420318Y-116292190D02*
X231150318Y-116292190D01*
X232359842Y-115324571D02*
X232420318Y-115143142D01*
X232420318Y-115143142D02*
X232420318Y-114840761D01*
X232420318Y-114840761D02*
X232359842Y-114719809D01*
X232359842Y-114719809D02*
X232299365Y-114659333D01*
X232299365Y-114659333D02*
X232178413Y-114598856D01*
X232178413Y-114598856D02*
X232057461Y-114598856D01*
X232057461Y-114598856D02*
X231936508Y-114659333D01*
X231936508Y-114659333D02*
X231876032Y-114719809D01*
X231876032Y-114719809D02*
X231815556Y-114840761D01*
X231815556Y-114840761D02*
X231755080Y-115082666D01*
X231755080Y-115082666D02*
X231694603Y-115203618D01*
X231694603Y-115203618D02*
X231634127Y-115264095D01*
X231634127Y-115264095D02*
X231513175Y-115324571D01*
X231513175Y-115324571D02*
X231392222Y-115324571D01*
X231392222Y-115324571D02*
X231271270Y-115264095D01*
X231271270Y-115264095D02*
X231210794Y-115203618D01*
X231210794Y-115203618D02*
X231150318Y-115082666D01*
X231150318Y-115082666D02*
X231150318Y-114780285D01*
X231150318Y-114780285D02*
X231210794Y-114598856D01*
X232299365Y-113328856D02*
X232359842Y-113389332D01*
X232359842Y-113389332D02*
X232420318Y-113570761D01*
X232420318Y-113570761D02*
X232420318Y-113691713D01*
X232420318Y-113691713D02*
X232359842Y-113873142D01*
X232359842Y-113873142D02*
X232238889Y-113994094D01*
X232238889Y-113994094D02*
X232117937Y-114054571D01*
X232117937Y-114054571D02*
X231876032Y-114115047D01*
X231876032Y-114115047D02*
X231694603Y-114115047D01*
X231694603Y-114115047D02*
X231452699Y-114054571D01*
X231452699Y-114054571D02*
X231331746Y-113994094D01*
X231331746Y-113994094D02*
X231210794Y-113873142D01*
X231210794Y-113873142D02*
X231150318Y-113691713D01*
X231150318Y-113691713D02*
X231150318Y-113570761D01*
X231150318Y-113570761D02*
X231210794Y-113389332D01*
X231210794Y-113389332D02*
X231271270Y-113328856D01*
X232420318Y-112119332D02*
X232420318Y-112845047D01*
X232420318Y-112482190D02*
X231150318Y-112482190D01*
X231150318Y-112482190D02*
X231331746Y-112603142D01*
X231331746Y-112603142D02*
X231452699Y-112724094D01*
X231452699Y-112724094D02*
X231513175Y-112845047D01*
X201978618Y-86590318D02*
X201978618Y-85320318D01*
X201978618Y-85320318D02*
X202280999Y-85320318D01*
X202280999Y-85320318D02*
X202462428Y-85380794D01*
X202462428Y-85380794D02*
X202583380Y-85501746D01*
X202583380Y-85501746D02*
X202643857Y-85622699D01*
X202643857Y-85622699D02*
X202704333Y-85864603D01*
X202704333Y-85864603D02*
X202704333Y-86046032D01*
X202704333Y-86046032D02*
X202643857Y-86287937D01*
X202643857Y-86287937D02*
X202583380Y-86408889D01*
X202583380Y-86408889D02*
X202462428Y-86529842D01*
X202462428Y-86529842D02*
X202280999Y-86590318D01*
X202280999Y-86590318D02*
X201978618Y-86590318D01*
X203188142Y-85441270D02*
X203248618Y-85380794D01*
X203248618Y-85380794D02*
X203369571Y-85320318D01*
X203369571Y-85320318D02*
X203671952Y-85320318D01*
X203671952Y-85320318D02*
X203792904Y-85380794D01*
X203792904Y-85380794D02*
X203853380Y-85441270D01*
X203853380Y-85441270D02*
X203913857Y-85562222D01*
X203913857Y-85562222D02*
X203913857Y-85683175D01*
X203913857Y-85683175D02*
X203853380Y-85864603D01*
X203853380Y-85864603D02*
X203127666Y-86590318D01*
X203127666Y-86590318D02*
X203913857Y-86590318D01*
X214921571Y-113739365D02*
X214861095Y-113799842D01*
X214861095Y-113799842D02*
X214679666Y-113860318D01*
X214679666Y-113860318D02*
X214558714Y-113860318D01*
X214558714Y-113860318D02*
X214377285Y-113799842D01*
X214377285Y-113799842D02*
X214256333Y-113678889D01*
X214256333Y-113678889D02*
X214195856Y-113557937D01*
X214195856Y-113557937D02*
X214135380Y-113316032D01*
X214135380Y-113316032D02*
X214135380Y-113134603D01*
X214135380Y-113134603D02*
X214195856Y-112892699D01*
X214195856Y-112892699D02*
X214256333Y-112771746D01*
X214256333Y-112771746D02*
X214377285Y-112650794D01*
X214377285Y-112650794D02*
X214558714Y-112590318D01*
X214558714Y-112590318D02*
X214679666Y-112590318D01*
X214679666Y-112590318D02*
X214861095Y-112650794D01*
X214861095Y-112650794D02*
X214921571Y-112711270D01*
X216131095Y-113860318D02*
X215405380Y-113860318D01*
X215768237Y-113860318D02*
X215768237Y-112590318D01*
X215768237Y-112590318D02*
X215647285Y-112771746D01*
X215647285Y-112771746D02*
X215526333Y-112892699D01*
X215526333Y-112892699D02*
X215405380Y-112953175D01*
X216554428Y-112590318D02*
X217340619Y-112590318D01*
X217340619Y-112590318D02*
X216917285Y-113074127D01*
X216917285Y-113074127D02*
X217098714Y-113074127D01*
X217098714Y-113074127D02*
X217219666Y-113134603D01*
X217219666Y-113134603D02*
X217280142Y-113195080D01*
X217280142Y-113195080D02*
X217340619Y-113316032D01*
X217340619Y-113316032D02*
X217340619Y-113618413D01*
X217340619Y-113618413D02*
X217280142Y-113739365D01*
X217280142Y-113739365D02*
X217219666Y-113799842D01*
X217219666Y-113799842D02*
X217098714Y-113860318D01*
X217098714Y-113860318D02*
X216735857Y-113860318D01*
X216735857Y-113860318D02*
X216614904Y-113799842D01*
X216614904Y-113799842D02*
X216554428Y-113739365D01*
X232560318Y-104635047D02*
X232560318Y-105239809D01*
X232560318Y-105239809D02*
X231290318Y-105239809D01*
X232499842Y-104272190D02*
X232560318Y-104090761D01*
X232560318Y-104090761D02*
X232560318Y-103788380D01*
X232560318Y-103788380D02*
X232499842Y-103667428D01*
X232499842Y-103667428D02*
X232439365Y-103606952D01*
X232439365Y-103606952D02*
X232318413Y-103546475D01*
X232318413Y-103546475D02*
X232197461Y-103546475D01*
X232197461Y-103546475D02*
X232076508Y-103606952D01*
X232076508Y-103606952D02*
X232016032Y-103667428D01*
X232016032Y-103667428D02*
X231955556Y-103788380D01*
X231955556Y-103788380D02*
X231895080Y-104030285D01*
X231895080Y-104030285D02*
X231834603Y-104151237D01*
X231834603Y-104151237D02*
X231774127Y-104211714D01*
X231774127Y-104211714D02*
X231653175Y-104272190D01*
X231653175Y-104272190D02*
X231532222Y-104272190D01*
X231532222Y-104272190D02*
X231411270Y-104211714D01*
X231411270Y-104211714D02*
X231350794Y-104151237D01*
X231350794Y-104151237D02*
X231290318Y-104030285D01*
X231290318Y-104030285D02*
X231290318Y-103727904D01*
X231290318Y-103727904D02*
X231350794Y-103546475D01*
X232197461Y-103062666D02*
X232197461Y-102457904D01*
X232560318Y-103183618D02*
X231290318Y-102760285D01*
X231290318Y-102760285D02*
X232560318Y-102336951D01*
X233044127Y-102034571D02*
X233044127Y-101974095D01*
X233044127Y-101974095D02*
X232983651Y-101853142D01*
X232983651Y-101853142D02*
X232862699Y-101792666D01*
X232862699Y-101792666D02*
X232257937Y-101792666D01*
X232257937Y-101792666D02*
X232136984Y-101732190D01*
X232136984Y-101732190D02*
X232076508Y-101611238D01*
X232076508Y-101611238D02*
X232016032Y-101732190D01*
X232016032Y-101732190D02*
X231895080Y-101792666D01*
X231895080Y-101792666D02*
X231290318Y-101792666D01*
X231290318Y-101792666D02*
X231169365Y-101853142D01*
X231169365Y-101853142D02*
X231108889Y-101974095D01*
X231108889Y-101974095D02*
X231108889Y-102034571D01*
X232560318Y-100401713D02*
X232560318Y-101127428D01*
X232560318Y-100764571D02*
X231290318Y-100764571D01*
X231290318Y-100764571D02*
X231471746Y-100885523D01*
X231471746Y-100885523D02*
X231592699Y-101006475D01*
X231592699Y-101006475D02*
X231653175Y-101127428D01*
X196590318Y-111934095D02*
X195320318Y-111934095D01*
X195320318Y-111934095D02*
X195320318Y-111450285D01*
X195320318Y-111450285D02*
X195380794Y-111329333D01*
X195380794Y-111329333D02*
X195441270Y-111268856D01*
X195441270Y-111268856D02*
X195562222Y-111208380D01*
X195562222Y-111208380D02*
X195743651Y-111208380D01*
X195743651Y-111208380D02*
X195864603Y-111268856D01*
X195864603Y-111268856D02*
X195925080Y-111329333D01*
X195925080Y-111329333D02*
X195985556Y-111450285D01*
X195985556Y-111450285D02*
X195985556Y-111934095D01*
X196590318Y-110664095D02*
X195320318Y-110664095D01*
X196590318Y-109454571D02*
X196590318Y-110059333D01*
X196590318Y-110059333D02*
X195320318Y-110059333D01*
X196227461Y-109091714D02*
X196227461Y-108486952D01*
X196590318Y-109212666D02*
X195320318Y-108789333D01*
X195320318Y-108789333D02*
X196590318Y-108365999D01*
X196590318Y-107277428D02*
X196590318Y-108003143D01*
X196590318Y-107640286D02*
X195320318Y-107640286D01*
X195320318Y-107640286D02*
X195501746Y-107761238D01*
X195501746Y-107761238D02*
X195622699Y-107882190D01*
X195622699Y-107882190D02*
X195683175Y-108003143D01*
X216091318Y-110555762D02*
X214821318Y-110555762D01*
X215970365Y-109225285D02*
X216030842Y-109285761D01*
X216030842Y-109285761D02*
X216091318Y-109467190D01*
X216091318Y-109467190D02*
X216091318Y-109588142D01*
X216091318Y-109588142D02*
X216030842Y-109769571D01*
X216030842Y-109769571D02*
X215909889Y-109890523D01*
X215909889Y-109890523D02*
X215788937Y-109951000D01*
X215788937Y-109951000D02*
X215547032Y-110011476D01*
X215547032Y-110011476D02*
X215365603Y-110011476D01*
X215365603Y-110011476D02*
X215123699Y-109951000D01*
X215123699Y-109951000D02*
X215002746Y-109890523D01*
X215002746Y-109890523D02*
X214881794Y-109769571D01*
X214881794Y-109769571D02*
X214821318Y-109588142D01*
X214821318Y-109588142D02*
X214821318Y-109467190D01*
X214821318Y-109467190D02*
X214881794Y-109285761D01*
X214881794Y-109285761D02*
X214942270Y-109225285D01*
X214821318Y-108801952D02*
X214821318Y-108015761D01*
X214821318Y-108015761D02*
X215305127Y-108439095D01*
X215305127Y-108439095D02*
X215305127Y-108257666D01*
X215305127Y-108257666D02*
X215365603Y-108136714D01*
X215365603Y-108136714D02*
X215426080Y-108076238D01*
X215426080Y-108076238D02*
X215547032Y-108015761D01*
X215547032Y-108015761D02*
X215849413Y-108015761D01*
X215849413Y-108015761D02*
X215970365Y-108076238D01*
X215970365Y-108076238D02*
X216030842Y-108136714D01*
X216030842Y-108136714D02*
X216091318Y-108257666D01*
X216091318Y-108257666D02*
X216091318Y-108620523D01*
X216091318Y-108620523D02*
X216030842Y-108741476D01*
X216030842Y-108741476D02*
X215970365Y-108801952D01*
X244170318Y-102913381D02*
X242900318Y-102913381D01*
X242900318Y-102913381D02*
X242900318Y-102611000D01*
X242900318Y-102611000D02*
X242960794Y-102429571D01*
X242960794Y-102429571D02*
X243081746Y-102308619D01*
X243081746Y-102308619D02*
X243202699Y-102248142D01*
X243202699Y-102248142D02*
X243444603Y-102187666D01*
X243444603Y-102187666D02*
X243626032Y-102187666D01*
X243626032Y-102187666D02*
X243867937Y-102248142D01*
X243867937Y-102248142D02*
X243988889Y-102308619D01*
X243988889Y-102308619D02*
X244109842Y-102429571D01*
X244109842Y-102429571D02*
X244170318Y-102611000D01*
X244170318Y-102611000D02*
X244170318Y-102913381D01*
X242900318Y-101764333D02*
X242900318Y-100917666D01*
X242900318Y-100917666D02*
X244170318Y-101461952D01*
X208711737Y-81564818D02*
X208711737Y-80294818D01*
X210042214Y-81443865D02*
X209981738Y-81504342D01*
X209981738Y-81504342D02*
X209800309Y-81564818D01*
X209800309Y-81564818D02*
X209679357Y-81564818D01*
X209679357Y-81564818D02*
X209497928Y-81504342D01*
X209497928Y-81504342D02*
X209376976Y-81383389D01*
X209376976Y-81383389D02*
X209316499Y-81262437D01*
X209316499Y-81262437D02*
X209256023Y-81020532D01*
X209256023Y-81020532D02*
X209256023Y-80839103D01*
X209256023Y-80839103D02*
X209316499Y-80597199D01*
X209316499Y-80597199D02*
X209376976Y-80476246D01*
X209376976Y-80476246D02*
X209497928Y-80355294D01*
X209497928Y-80355294D02*
X209679357Y-80294818D01*
X209679357Y-80294818D02*
X209800309Y-80294818D01*
X209800309Y-80294818D02*
X209981738Y-80355294D01*
X209981738Y-80355294D02*
X210042214Y-80415770D01*
X211251738Y-81564818D02*
X210526023Y-81564818D01*
X210888880Y-81564818D02*
X210888880Y-80294818D01*
X210888880Y-80294818D02*
X210767928Y-80476246D01*
X210767928Y-80476246D02*
X210646976Y-80597199D01*
X210646976Y-80597199D02*
X210526023Y-80657675D01*
X204068858Y-67910318D02*
X203645524Y-67305556D01*
X203343143Y-67910318D02*
X203343143Y-66640318D01*
X203343143Y-66640318D02*
X203826953Y-66640318D01*
X203826953Y-66640318D02*
X203947905Y-66700794D01*
X203947905Y-66700794D02*
X204008382Y-66761270D01*
X204008382Y-66761270D02*
X204068858Y-66882222D01*
X204068858Y-66882222D02*
X204068858Y-67063651D01*
X204068858Y-67063651D02*
X204008382Y-67184603D01*
X204008382Y-67184603D02*
X203947905Y-67245080D01*
X203947905Y-67245080D02*
X203826953Y-67305556D01*
X203826953Y-67305556D02*
X203343143Y-67305556D01*
X205096953Y-67849842D02*
X204976001Y-67910318D01*
X204976001Y-67910318D02*
X204734096Y-67910318D01*
X204734096Y-67910318D02*
X204613143Y-67849842D01*
X204613143Y-67849842D02*
X204552667Y-67728889D01*
X204552667Y-67728889D02*
X204552667Y-67245080D01*
X204552667Y-67245080D02*
X204613143Y-67124127D01*
X204613143Y-67124127D02*
X204734096Y-67063651D01*
X204734096Y-67063651D02*
X204976001Y-67063651D01*
X204976001Y-67063651D02*
X205096953Y-67124127D01*
X205096953Y-67124127D02*
X205157429Y-67245080D01*
X205157429Y-67245080D02*
X205157429Y-67366032D01*
X205157429Y-67366032D02*
X204552667Y-67486984D01*
X205641238Y-67849842D02*
X205762191Y-67910318D01*
X205762191Y-67910318D02*
X206004095Y-67910318D01*
X206004095Y-67910318D02*
X206125048Y-67849842D01*
X206125048Y-67849842D02*
X206185524Y-67728889D01*
X206185524Y-67728889D02*
X206185524Y-67668413D01*
X206185524Y-67668413D02*
X206125048Y-67547461D01*
X206125048Y-67547461D02*
X206004095Y-67486984D01*
X206004095Y-67486984D02*
X205822667Y-67486984D01*
X205822667Y-67486984D02*
X205701714Y-67426508D01*
X205701714Y-67426508D02*
X205641238Y-67305556D01*
X205641238Y-67305556D02*
X205641238Y-67245080D01*
X205641238Y-67245080D02*
X205701714Y-67124127D01*
X205701714Y-67124127D02*
X205822667Y-67063651D01*
X205822667Y-67063651D02*
X206004095Y-67063651D01*
X206004095Y-67063651D02*
X206125048Y-67124127D01*
X207213619Y-67849842D02*
X207092667Y-67910318D01*
X207092667Y-67910318D02*
X206850762Y-67910318D01*
X206850762Y-67910318D02*
X206729809Y-67849842D01*
X206729809Y-67849842D02*
X206669333Y-67728889D01*
X206669333Y-67728889D02*
X206669333Y-67245080D01*
X206669333Y-67245080D02*
X206729809Y-67124127D01*
X206729809Y-67124127D02*
X206850762Y-67063651D01*
X206850762Y-67063651D02*
X207092667Y-67063651D01*
X207092667Y-67063651D02*
X207213619Y-67124127D01*
X207213619Y-67124127D02*
X207274095Y-67245080D01*
X207274095Y-67245080D02*
X207274095Y-67366032D01*
X207274095Y-67366032D02*
X206669333Y-67486984D01*
X207636952Y-67063651D02*
X208120761Y-67063651D01*
X207818380Y-66640318D02*
X207818380Y-67728889D01*
X207818380Y-67728889D02*
X207878857Y-67849842D01*
X207878857Y-67849842D02*
X207999809Y-67910318D01*
X207999809Y-67910318D02*
X208120761Y-67910318D01*
X209209333Y-67910318D02*
X208483618Y-67910318D01*
X208846475Y-67910318D02*
X208846475Y-66640318D01*
X208846475Y-66640318D02*
X208725523Y-66821746D01*
X208725523Y-66821746D02*
X208604571Y-66942699D01*
X208604571Y-66942699D02*
X208483618Y-67003175D01*
X238320318Y-71073381D02*
X237050318Y-71073381D01*
X237050318Y-71073381D02*
X237050318Y-70771000D01*
X237050318Y-70771000D02*
X237110794Y-70589571D01*
X237110794Y-70589571D02*
X237231746Y-70468619D01*
X237231746Y-70468619D02*
X237352699Y-70408142D01*
X237352699Y-70408142D02*
X237594603Y-70347666D01*
X237594603Y-70347666D02*
X237776032Y-70347666D01*
X237776032Y-70347666D02*
X238017937Y-70408142D01*
X238017937Y-70408142D02*
X238138889Y-70468619D01*
X238138889Y-70468619D02*
X238259842Y-70589571D01*
X238259842Y-70589571D02*
X238320318Y-70771000D01*
X238320318Y-70771000D02*
X238320318Y-71073381D01*
X237050318Y-69259095D02*
X237050318Y-69501000D01*
X237050318Y-69501000D02*
X237110794Y-69621952D01*
X237110794Y-69621952D02*
X237171270Y-69682428D01*
X237171270Y-69682428D02*
X237352699Y-69803381D01*
X237352699Y-69803381D02*
X237594603Y-69863857D01*
X237594603Y-69863857D02*
X238078413Y-69863857D01*
X238078413Y-69863857D02*
X238199365Y-69803381D01*
X238199365Y-69803381D02*
X238259842Y-69742904D01*
X238259842Y-69742904D02*
X238320318Y-69621952D01*
X238320318Y-69621952D02*
X238320318Y-69380047D01*
X238320318Y-69380047D02*
X238259842Y-69259095D01*
X238259842Y-69259095D02*
X238199365Y-69198619D01*
X238199365Y-69198619D02*
X238078413Y-69138142D01*
X238078413Y-69138142D02*
X237776032Y-69138142D01*
X237776032Y-69138142D02*
X237655080Y-69198619D01*
X237655080Y-69198619D02*
X237594603Y-69259095D01*
X237594603Y-69259095D02*
X237534127Y-69380047D01*
X237534127Y-69380047D02*
X237534127Y-69621952D01*
X237534127Y-69621952D02*
X237594603Y-69742904D01*
X237594603Y-69742904D02*
X237655080Y-69803381D01*
X237655080Y-69803381D02*
X237776032Y-69863857D01*
X220486333Y-108890318D02*
X219881571Y-108890318D01*
X219881571Y-108890318D02*
X219881571Y-107620318D01*
X221574905Y-108890318D02*
X220849190Y-108890318D01*
X221212047Y-108890318D02*
X221212047Y-107620318D01*
X221212047Y-107620318D02*
X221091095Y-107801746D01*
X221091095Y-107801746D02*
X220970143Y-107922699D01*
X220970143Y-107922699D02*
X220849190Y-107983175D01*
X219970618Y-117060318D02*
X219970618Y-115790318D01*
X219970618Y-115790318D02*
X220272999Y-115790318D01*
X220272999Y-115790318D02*
X220454428Y-115850794D01*
X220454428Y-115850794D02*
X220575380Y-115971746D01*
X220575380Y-115971746D02*
X220635857Y-116092699D01*
X220635857Y-116092699D02*
X220696333Y-116334603D01*
X220696333Y-116334603D02*
X220696333Y-116516032D01*
X220696333Y-116516032D02*
X220635857Y-116757937D01*
X220635857Y-116757937D02*
X220575380Y-116878889D01*
X220575380Y-116878889D02*
X220454428Y-116999842D01*
X220454428Y-116999842D02*
X220272999Y-117060318D01*
X220272999Y-117060318D02*
X219970618Y-117060318D01*
X221119666Y-115790318D02*
X221905857Y-115790318D01*
X221905857Y-115790318D02*
X221482523Y-116274127D01*
X221482523Y-116274127D02*
X221663952Y-116274127D01*
X221663952Y-116274127D02*
X221784904Y-116334603D01*
X221784904Y-116334603D02*
X221845380Y-116395080D01*
X221845380Y-116395080D02*
X221905857Y-116516032D01*
X221905857Y-116516032D02*
X221905857Y-116818413D01*
X221905857Y-116818413D02*
X221845380Y-116939365D01*
X221845380Y-116939365D02*
X221784904Y-116999842D01*
X221784904Y-116999842D02*
X221663952Y-117060318D01*
X221663952Y-117060318D02*
X221301095Y-117060318D01*
X221301095Y-117060318D02*
X221180142Y-116999842D01*
X221180142Y-116999842D02*
X221119666Y-116939365D01*
X204478618Y-107770318D02*
X204478618Y-106500318D01*
X204478618Y-106500318D02*
X204780999Y-106500318D01*
X204780999Y-106500318D02*
X204962428Y-106560794D01*
X204962428Y-106560794D02*
X205083380Y-106681746D01*
X205083380Y-106681746D02*
X205143857Y-106802699D01*
X205143857Y-106802699D02*
X205204333Y-107044603D01*
X205204333Y-107044603D02*
X205204333Y-107226032D01*
X205204333Y-107226032D02*
X205143857Y-107467937D01*
X205143857Y-107467937D02*
X205083380Y-107588889D01*
X205083380Y-107588889D02*
X204962428Y-107709842D01*
X204962428Y-107709842D02*
X204780999Y-107770318D01*
X204780999Y-107770318D02*
X204478618Y-107770318D01*
X206413857Y-107770318D02*
X205688142Y-107770318D01*
X206050999Y-107770318D02*
X206050999Y-106500318D01*
X206050999Y-106500318D02*
X205930047Y-106681746D01*
X205930047Y-106681746D02*
X205809095Y-106802699D01*
X205809095Y-106802699D02*
X205688142Y-106863175D01*
D12*
%TO.C,L2*%
X229394000Y-89408000D02*
X229394000Y-89408000D01*
X220694000Y-89408000D02*
X220694000Y-89408000D01*
X220694000Y-89408000D02*
G75*
G02*
X229394000Y-89408000I4350000J0D01*
G01*
X229394000Y-89408000D02*
G75*
G02*
X220694000Y-89408000I-4350000J0D01*
G01*
D13*
%TO.C,D8*%
X243126000Y-113746000D02*
X243126000Y-114546000D01*
X243726000Y-113391000D02*
X243726000Y-114546000D01*
%TO.C,D5*%
X223031000Y-98006000D02*
X224186000Y-98006000D01*
X223386000Y-98606000D02*
X224186000Y-98606000D01*
%TO.C,D9*%
X243116000Y-89986000D02*
X243116000Y-90786000D01*
X243716000Y-89631000D02*
X243716000Y-90786000D01*
%TO.C,MOTOR1*%
X195791000Y-95761000D02*
X195791000Y-103361000D01*
X195791000Y-103361000D02*
X200991000Y-103361000D01*
X200991000Y-93161000D02*
X198391000Y-93161000D01*
X200991000Y-103361000D02*
X200991000Y-93161000D01*
D14*
%TO.C,C5*%
X207561000Y-87821000D02*
X207561000Y-90171000D01*
X207561000Y-94641000D02*
X207561000Y-92291000D01*
X213316563Y-87821000D02*
X207561000Y-87821000D01*
X213316563Y-94641000D02*
X207561000Y-94641000D01*
X214381000Y-88885437D02*
X213316563Y-87821000D01*
X214381000Y-88885437D02*
X214381000Y-90171000D01*
X214381000Y-93576563D02*
X213316563Y-94641000D01*
X214381000Y-93576563D02*
X214381000Y-92291000D01*
D13*
%TO.C,D4*%
X223001000Y-96576000D02*
X224156000Y-96576000D01*
X223356000Y-97176000D02*
X224156000Y-97176000D01*
%TO.C,BOTON_TERMINAL1*%
X233356000Y-85961000D02*
X233356000Y-96011000D01*
X233356000Y-96011000D02*
X237556000Y-96011000D01*
X242456000Y-85961000D02*
X233356000Y-85961000D01*
X242456000Y-93511000D02*
X242456000Y-85961000D01*
D11*
%TO.C,U2*%
X219796000Y-94911000D02*
X215646000Y-94911000D01*
X219796000Y-100061000D02*
X215646000Y-100061000D01*
D14*
X220636000Y-100291000D02*
X220156000Y-100291000D01*
X220396000Y-99961000D01*
X220636000Y-100291000D01*
G36*
X220636000Y-100291000D02*
G01*
X220156000Y-100291000D01*
X220396000Y-99961000D01*
X220636000Y-100291000D01*
G37*
D13*
%TO.C,R11*%
X238746000Y-66636000D02*
X238746000Y-71636000D01*
X238746000Y-71636000D02*
X239946000Y-71636000D01*
X243746000Y-66636000D02*
X243746000Y-71636000D01*
X243746000Y-71636000D02*
X242546000Y-71636000D01*
X240107000Y-65879000D02*
G75*
G02*
X240063000Y-65879000I-22000J0D01*
G01*
X240063000Y-65879000D02*
G75*
G02*
X240107000Y-65879000I22000J0D01*
G01*
D12*
%TO.C,IC2*%
X215276000Y-64826000D02*
X215276000Y-64826000D01*
X215376000Y-64826000D02*
X215376000Y-64826000D01*
D13*
X216276000Y-57336000D02*
X216276000Y-64086000D01*
X216276000Y-82086000D02*
X216276000Y-82836000D01*
X216276000Y-82836000D02*
X217476000Y-82836000D01*
X233076000Y-82836000D02*
X234276000Y-82836000D01*
X234276000Y-57336000D02*
X216276000Y-57336000D01*
X234276000Y-64086000D02*
X234276000Y-57336000D01*
X234276000Y-82836000D02*
X234276000Y-82086000D01*
D12*
X215276000Y-64826000D02*
G75*
G02*
X215376000Y-64826000I50000J0D01*
G01*
X215376000Y-64826000D02*
G75*
G02*
X215276000Y-64826000I-50000J0D01*
G01*
D13*
%TO.C,LSC1*%
X233456000Y-109276000D02*
X233456000Y-119326000D01*
X233456000Y-119326000D02*
X237656000Y-119326000D01*
X242556000Y-109276000D02*
X233456000Y-109276000D01*
X242556000Y-116826000D02*
X242556000Y-109276000D01*
%TO.C,D2*%
X200216000Y-87826000D02*
X205616000Y-87826000D01*
X205616000Y-84206000D02*
X200216000Y-84206000D01*
%TO.C,C13*%
X215738000Y-113986000D02*
X215738000Y-112586000D01*
%TO.C,LSA}1*%
X233626000Y-97856000D02*
X233626000Y-107906000D01*
X233626000Y-107906000D02*
X237826000Y-107906000D01*
X242726000Y-97856000D02*
X233626000Y-97856000D01*
X242726000Y-105406000D02*
X242726000Y-97856000D01*
%TO.C,PILA1*%
X195906000Y-104846000D02*
X195906000Y-115046000D01*
X195906000Y-115046000D02*
X198506000Y-115046000D01*
X201106000Y-104846000D02*
X195906000Y-104846000D01*
X201106000Y-112446000D02*
X201106000Y-104846000D01*
D12*
%TO.C,IC3*%
X213417000Y-108366000D02*
X213417000Y-108366000D01*
X213517000Y-108366000D02*
X213517000Y-108366000D01*
D13*
X215917000Y-107866000D02*
X215117000Y-107866000D01*
X215917000Y-110766000D02*
X215117000Y-110766000D01*
D12*
X213417000Y-108366000D02*
G75*
G02*
X213517000Y-108366000I50000J0D01*
G01*
X213517000Y-108366000D02*
G75*
G02*
X213417000Y-108366000I-50000J0D01*
G01*
D13*
%TO.C,D7*%
X243296000Y-101576000D02*
X243296000Y-102376000D01*
X243896000Y-101221000D02*
X243896000Y-102376000D01*
%TO.C,IC1*%
X208101500Y-79390500D02*
X209301500Y-79390500D01*
X209651500Y-79528500D02*
X210251500Y-79528500D01*
X209651500Y-82452500D02*
X209651500Y-79528500D01*
X210251500Y-79528500D02*
X210251500Y-82452500D01*
X210251500Y-82452500D02*
X209651500Y-82452500D01*
%TO.C,Reset1*%
X209146000Y-64436000D02*
X203346000Y-64436000D01*
X209146000Y-70236000D02*
X203346000Y-70236000D01*
D12*
X211346000Y-69336000D02*
X211346000Y-69336000D01*
X211446000Y-69336000D02*
X211446000Y-69336000D01*
X211346000Y-69336000D02*
G75*
G02*
X211446000Y-69336000I50000J0D01*
G01*
X211446000Y-69336000D02*
G75*
G02*
X211346000Y-69336000I-50000J0D01*
G01*
D13*
%TO.C,D6*%
X237446000Y-69736000D02*
X237446000Y-70536000D01*
X238046000Y-69381000D02*
X238046000Y-70536000D01*
%TO.C,L1*%
X219448000Y-109316000D02*
X221948000Y-109316000D01*
X221948000Y-107316000D02*
X219448000Y-107316000D01*
%TO.C,D3*%
X222408000Y-115561000D02*
X219408000Y-115561000D01*
X223170000Y-117411000D02*
X219408000Y-117411000D01*
%TO.C,D1*%
X202716000Y-109006000D02*
X208116000Y-109006000D01*
X208116000Y-105386000D02*
X202716000Y-105386000D01*
%TD*%
M02*
