%TF.GenerationSoftware,KiCad,Pcbnew,9.0.0*%
%TF.CreationDate,2025-03-01T12:44:55-04:00*%
%TF.ProjectId,PROYECT T,50524f59-4543-4542-9054-2e6b69636164,rev?*%
%TF.SameCoordinates,Original*%
%TF.FileFunction,Drillmap*%
%TF.FilePolarity,Positive*%
%FSLAX45Y45*%
G04 Gerber Fmt 4.5, Leading zero omitted, Abs format (unit mm)*
G04 Created by KiCad (PCBNEW 9.0.0) date 2025-03-01 12:44:55*
%MOMM*%
%LPD*%
G01*
G04 APERTURE LIST*
%ADD10C,0.050000*%
%ADD11C,0.200000*%
%ADD12C,0.100000*%
%ADD13C,0.170000*%
%ADD14C,0.180000*%
G04 APERTURE END LIST*
D10*
X24445600Y-6555600D02*
X24445600Y-11755600D01*
X24445600Y-11755600D02*
G75*
G02*
X24195600Y-12005600I-250000J0D01*
G01*
X19695600Y-6305600D02*
X24195600Y-6305600D01*
X24195600Y-12005600D02*
X19695600Y-12005600D01*
X19695600Y-12005600D02*
G75*
G02*
X19445600Y-11755600I0J250000D01*
G01*
X24195600Y-6305600D02*
G75*
G02*
X24445600Y-6555600I0J-250000D01*
G01*
X19445600Y-11755600D02*
X19445600Y-6555600D01*
X19445600Y-6555600D02*
G75*
G02*
X19695600Y-6305600I250000J0D01*
G01*
D11*
D12*
X20094350Y-7702600D02*
X20114350Y-7722600D01*
X20114350Y-7702600D02*
X20094350Y-7722600D01*
X21656600Y-6961600D02*
X21676600Y-6981600D01*
X21676600Y-6961600D02*
X21656600Y-6981600D01*
X21656600Y-7109600D02*
X21676600Y-7129600D01*
X21676600Y-7109600D02*
X21656600Y-7129600D01*
X21656600Y-7744600D02*
X21676600Y-7764600D01*
X21676600Y-7744600D02*
X21656600Y-7764600D01*
X21663600Y-6847600D02*
X21683600Y-6867600D01*
X21683600Y-6847600D02*
X21663600Y-6867600D01*
X22049600Y-9675100D02*
X22069600Y-9695100D01*
X22069600Y-9675100D02*
X22049600Y-9695100D01*
X22049600Y-9802100D02*
X22069600Y-9822100D01*
X22069600Y-9802100D02*
X22049600Y-9822100D01*
X22849100Y-8250600D02*
X22869100Y-8270600D01*
X22869100Y-8250600D02*
X22849100Y-8270600D01*
X23557100Y-7738100D02*
X23577100Y-7758100D01*
X23577100Y-7738100D02*
X23557100Y-7758100D01*
X24174600Y-8842600D02*
X24194600Y-8862600D01*
X24194600Y-8842600D02*
X24174600Y-8862600D01*
X20119350Y-7547600D02*
G75*
G02*
X20089350Y-7547600I-15000J0D01*
G01*
X20089350Y-7547600D02*
G75*
G02*
X20119350Y-7547600I15000J0D01*
G01*
X20119350Y-8027600D02*
G75*
G02*
X20089350Y-8027600I-15000J0D01*
G01*
X20089350Y-8027600D02*
G75*
G02*
X20119350Y-8027600I15000J0D01*
G01*
X20885150Y-8004050D02*
G75*
G02*
X20855150Y-8004050I-15000J0D01*
G01*
X20855150Y-8004050D02*
G75*
G02*
X20885150Y-8004050I15000J0D01*
G01*
X21132600Y-8099050D02*
G75*
G02*
X21102600Y-8099050I-15000J0D01*
G01*
X21102600Y-8099050D02*
G75*
G02*
X21132600Y-8099050I15000J0D01*
G01*
X21135150Y-8004050D02*
G75*
G02*
X21105150Y-8004050I-15000J0D01*
G01*
X21105150Y-8004050D02*
G75*
G02*
X21135150Y-8004050I15000J0D01*
G01*
X21328600Y-7389600D02*
G75*
G02*
X21298600Y-7389600I-15000J0D01*
G01*
X21298600Y-7389600D02*
G75*
G02*
X21328600Y-7389600I15000J0D01*
G01*
X21331600Y-8137600D02*
G75*
G02*
X21301600Y-8137600I-15000J0D01*
G01*
X21301600Y-8137600D02*
G75*
G02*
X21331600Y-8137600I15000J0D01*
G01*
X21681600Y-6611600D02*
G75*
G02*
X21651600Y-6611600I-15000J0D01*
G01*
X21651600Y-6611600D02*
G75*
G02*
X21681600Y-6611600I15000J0D01*
G01*
X19554350Y-7572600D02*
X19554350Y-7602600D01*
X19539350Y-7587600D02*
X19569350Y-7587600D01*
X19554350Y-7972600D02*
X19554350Y-8002600D01*
X19539350Y-7987600D02*
X19569350Y-7987600D01*
X19754350Y-7572600D02*
X19754350Y-7602600D01*
X19739350Y-7587600D02*
X19769350Y-7587600D01*
X19754350Y-7972600D02*
X19754350Y-8002600D01*
X19739350Y-7987600D02*
X19769350Y-7987600D01*
X21718767Y-9630267D02*
X21718767Y-9606933D01*
X21695433Y-9606933D01*
X21695433Y-9630267D01*
X21718767Y-9630267D01*
X21718767Y-9760267D02*
X21718767Y-9736933D01*
X21695433Y-9736933D01*
X21695433Y-9760267D01*
X21718767Y-9760267D01*
X21718767Y-9890267D02*
X21718767Y-9866933D01*
X21695433Y-9866933D01*
X21695433Y-9890267D01*
X21718767Y-9890267D01*
X21848767Y-9630267D02*
X21848767Y-9606933D01*
X21825433Y-9606933D01*
X21825433Y-9630267D01*
X21848767Y-9630267D01*
X21848767Y-9760267D02*
X21848767Y-9736933D01*
X21825433Y-9736933D01*
X21825433Y-9760267D01*
X21848767Y-9760267D01*
X21848767Y-9890267D02*
X21848767Y-9866933D01*
X21825433Y-9866933D01*
X21825433Y-9890267D01*
X21848767Y-9890267D01*
X20057600Y-8630600D02*
X20082600Y-8605600D01*
X20057600Y-8580600D01*
X20032600Y-8605600D01*
X20057600Y-8630600D01*
X20243100Y-9265100D02*
X20268100Y-9240100D01*
X20243100Y-9215100D01*
X20218100Y-9240100D01*
X20243100Y-9265100D01*
X20269200Y-9829400D02*
X20294200Y-9804400D01*
X20269200Y-9779400D01*
X20244200Y-9804400D01*
X20269200Y-9829400D01*
X20370100Y-9362100D02*
X20395100Y-9337100D01*
X20370100Y-9312100D01*
X20345100Y-9337100D01*
X20370100Y-9362100D01*
X20371100Y-9162100D02*
X20396100Y-9137100D01*
X20371100Y-9112100D01*
X20346100Y-9137100D01*
X20371100Y-9162100D01*
X20442100Y-9831100D02*
X20467100Y-9806100D01*
X20442100Y-9781100D01*
X20417100Y-9806100D01*
X20442100Y-9831100D01*
X20493100Y-9260100D02*
X20518100Y-9235100D01*
X20493100Y-9210100D01*
X20468100Y-9235100D01*
X20493100Y-9260100D01*
X20605100Y-9836100D02*
X20630100Y-9811100D01*
X20605100Y-9786100D01*
X20580100Y-9811100D01*
X20605100Y-9836100D01*
X20615100Y-9345100D02*
X20640100Y-9320100D01*
X20615100Y-9295100D01*
X20590100Y-9320100D01*
X20615100Y-9345100D01*
X20630100Y-9167100D02*
X20655100Y-9142100D01*
X20630100Y-9117100D01*
X20605100Y-9142100D01*
X20630100Y-9167100D01*
X20733600Y-9148600D02*
X20758600Y-9123600D01*
X20733600Y-9098600D01*
X20708600Y-9123600D01*
X20733600Y-9148600D01*
X20747100Y-9829400D02*
X20772100Y-9804400D01*
X20747100Y-9779400D01*
X20722100Y-9804400D01*
X20747100Y-9829400D01*
X20751800Y-9296000D02*
X20776800Y-9271000D01*
X20751800Y-9246000D01*
X20726800Y-9271000D01*
X20751800Y-9296000D01*
X20828000Y-9042000D02*
X20853000Y-9017000D01*
X20828000Y-8992000D01*
X20803000Y-9017000D01*
X20828000Y-9042000D01*
X20835100Y-9154100D02*
X20860100Y-9129100D01*
X20835100Y-9104100D01*
X20810100Y-9129100D01*
X20835100Y-9154100D01*
X20904200Y-9270600D02*
X20929200Y-9245600D01*
X20904200Y-9220600D01*
X20879200Y-9245600D01*
X20904200Y-9270600D01*
X20925600Y-9156600D02*
X20950600Y-9131600D01*
X20925600Y-9106600D01*
X20900600Y-9131600D01*
X20925600Y-9156600D01*
X21650600Y-11604600D02*
X21675600Y-11579600D01*
X21650600Y-11554600D01*
X21625600Y-11579600D01*
X21650600Y-11604600D01*
X21668600Y-11065600D02*
X21693600Y-11040600D01*
X21668600Y-11015600D01*
X21643600Y-11040600D01*
X21668600Y-11065600D01*
X21687600Y-11219600D02*
X21712600Y-11194600D01*
X21687600Y-11169600D01*
X21662600Y-11194600D01*
X21687600Y-11219600D01*
X21692600Y-11368600D02*
X21717600Y-11343600D01*
X21692600Y-11318600D01*
X21667600Y-11343600D01*
X21692600Y-11368600D01*
X21702600Y-10048600D02*
X21727600Y-10023600D01*
X21702600Y-9998600D01*
X21677600Y-10023600D01*
X21702600Y-10048600D01*
X21702600Y-10209600D02*
X21727600Y-10184600D01*
X21702600Y-10159600D01*
X21677600Y-10184600D01*
X21702600Y-10209600D01*
X21710600Y-9458600D02*
X21735600Y-9433600D01*
X21710600Y-9408600D01*
X21685600Y-9433600D01*
X21710600Y-9458600D01*
X21714100Y-9308100D02*
X21739100Y-9283100D01*
X21714100Y-9258100D01*
X21689100Y-9283100D01*
X21714100Y-9308100D01*
X21785600Y-11498600D02*
X21810600Y-11473600D01*
X21785600Y-11448600D01*
X21760600Y-11473600D01*
X21785600Y-11498600D01*
X21801600Y-11115600D02*
X21826600Y-11090600D01*
X21801600Y-11065600D01*
X21776600Y-11090600D01*
X21801600Y-11115600D01*
X21833600Y-9313600D02*
X21858600Y-9288600D01*
X21833600Y-9263600D01*
X21808600Y-9288600D01*
X21833600Y-9313600D01*
X21833600Y-9461600D02*
X21858600Y-9436600D01*
X21833600Y-9411600D01*
X21808600Y-9436600D01*
X21833600Y-9461600D01*
X21836600Y-10048600D02*
X21861600Y-10023600D01*
X21836600Y-9998600D01*
X21811600Y-10023600D01*
X21836600Y-10048600D01*
X21836600Y-10214600D02*
X21861600Y-10189600D01*
X21836600Y-10164600D01*
X21811600Y-10189600D01*
X21836600Y-10214600D01*
X21911600Y-11574600D02*
X21936600Y-11549600D01*
X21911600Y-11524600D01*
X21886600Y-11549600D01*
X21911600Y-11574600D01*
X21913600Y-11236600D02*
X21938600Y-11211600D01*
X21913600Y-11186600D01*
X21888600Y-11211600D01*
X21913600Y-11236600D01*
X21913600Y-11393600D02*
X21938600Y-11368600D01*
X21913600Y-11343600D01*
X21888600Y-11368600D01*
X21913600Y-11393600D01*
X21938600Y-11103600D02*
X21963600Y-11078600D01*
X21938600Y-11053600D01*
X21913600Y-11078600D01*
X21938600Y-11103600D01*
X22225000Y-7137000D02*
X22250000Y-7112000D01*
X22225000Y-7087000D01*
X22200000Y-7112000D01*
X22225000Y-7137000D01*
X22225000Y-7264000D02*
X22250000Y-7239000D01*
X22225000Y-7214000D01*
X22200000Y-7239000D01*
X22225000Y-7264000D01*
X22225000Y-7416400D02*
X22250000Y-7391400D01*
X22225000Y-7366400D01*
X22200000Y-7391400D01*
X22225000Y-7416400D01*
X22377400Y-7137000D02*
X22402400Y-7112000D01*
X22377400Y-7087000D01*
X22352400Y-7112000D01*
X22377400Y-7137000D01*
X22377400Y-7264000D02*
X22402400Y-7239000D01*
X22377400Y-7214000D01*
X22352400Y-7239000D01*
X22377400Y-7264000D01*
X22377400Y-7416400D02*
X22402400Y-7391400D01*
X22377400Y-7366400D01*
X22352400Y-7391400D01*
X22377400Y-7416400D01*
X22504400Y-7137000D02*
X22529400Y-7112000D01*
X22504400Y-7087000D01*
X22479400Y-7112000D01*
X22504400Y-7137000D01*
X22504400Y-7416400D02*
X22529400Y-7391400D01*
X22504400Y-7366400D01*
X22479400Y-7391400D01*
X22504400Y-7416400D01*
X22529800Y-7289400D02*
X22554800Y-7264400D01*
X22529800Y-7239400D01*
X22504800Y-7264400D01*
X22529800Y-7289400D01*
X19591350Y-7329600D02*
X19641350Y-7379600D01*
X19641350Y-7329600D02*
X19591350Y-7379600D01*
X19641350Y-7354600D02*
G75*
G02*
X19591350Y-7354600I-25000J0D01*
G01*
X19591350Y-7354600D02*
G75*
G02*
X19641350Y-7354600I25000J0D01*
G01*
X19656350Y-7329600D02*
X19576350Y-7329600D01*
X19576350Y-7379600D02*
G75*
G02*
X19576350Y-7329600I0J25000D01*
G01*
X19576350Y-7379600D02*
X19656350Y-7379600D01*
X19656350Y-7379600D02*
G75*
G03*
X19656350Y-7329600I0J25000D01*
G01*
X19591350Y-8195600D02*
X19641350Y-8245600D01*
X19641350Y-8195600D02*
X19591350Y-8245600D01*
X19641350Y-8220600D02*
G75*
G02*
X19591350Y-8220600I-25000J0D01*
G01*
X19591350Y-8220600D02*
G75*
G02*
X19641350Y-8220600I25000J0D01*
G01*
X19656350Y-8195600D02*
X19576350Y-8195600D01*
X19576350Y-8245600D02*
G75*
G02*
X19576350Y-8195600I0J25000D01*
G01*
X19576350Y-8245600D02*
X19656350Y-8245600D01*
X19656350Y-8245600D02*
G75*
G03*
X19656350Y-8195600I0J25000D01*
G01*
X20011350Y-7329600D02*
X20061350Y-7379600D01*
X20061350Y-7329600D02*
X20011350Y-7379600D01*
X20061350Y-7354600D02*
G75*
G02*
X20011350Y-7354600I-25000J0D01*
G01*
X20011350Y-7354600D02*
G75*
G02*
X20061350Y-7354600I25000J0D01*
G01*
X20091350Y-7329600D02*
X19981350Y-7329600D01*
X19981350Y-7379600D02*
G75*
G02*
X19981350Y-7329600I0J25000D01*
G01*
X19981350Y-7379600D02*
X20091350Y-7379600D01*
X20091350Y-7379600D02*
G75*
G03*
X20091350Y-7329600I0J25000D01*
G01*
X20011350Y-8195600D02*
X20061350Y-8245600D01*
X20061350Y-8195600D02*
X20011350Y-8245600D01*
X20061350Y-8220600D02*
G75*
G02*
X20011350Y-8220600I-25000J0D01*
G01*
X20011350Y-8220600D02*
G75*
G02*
X20061350Y-8220600I25000J0D01*
G01*
X20091350Y-8195600D02*
X19981350Y-8195600D01*
X19981350Y-8245600D02*
G75*
G02*
X19981350Y-8195600I0J25000D01*
G01*
X19981350Y-8245600D02*
X20091350Y-8245600D01*
X20091350Y-8245600D02*
G75*
G03*
X20091350Y-8195600I0J25000D01*
G01*
X21236600Y-9095600D02*
X21306600Y-9165600D01*
X21306600Y-9095600D02*
X21236600Y-9165600D01*
X21271600Y-9095600D02*
X21271600Y-9165600D01*
X21236600Y-9130600D02*
X21306600Y-9130600D01*
X21335600Y-9464600D02*
X21405600Y-9534600D01*
X21405600Y-9464600D02*
X21335600Y-9534600D01*
X21370600Y-9464600D02*
X21370600Y-9534600D01*
X21335600Y-9499600D02*
X21405600Y-9499600D01*
X21346600Y-9281600D02*
X21416600Y-9351600D01*
X21416600Y-9281600D02*
X21346600Y-9351600D01*
X21381600Y-9281600D02*
X21381600Y-9351600D01*
X21346600Y-9316600D02*
X21416600Y-9316600D01*
X21414600Y-9093600D02*
X21484600Y-9163600D01*
X21484600Y-9093600D02*
X21414600Y-9163600D01*
X21449600Y-9093600D02*
X21449600Y-9163600D01*
X21414600Y-9128600D02*
X21484600Y-9128600D01*
X22211900Y-8898300D02*
X22296900Y-8983300D01*
X22296900Y-8898300D02*
X22211900Y-8983300D01*
X22284452Y-8970852D02*
X22284452Y-8910748D01*
X22224348Y-8910748D01*
X22224348Y-8970852D01*
X22284452Y-8970852D01*
X22711900Y-8898300D02*
X22796900Y-8983300D01*
X22796900Y-8898300D02*
X22711900Y-8983300D01*
X22784452Y-8970852D02*
X22784452Y-8910748D01*
X22724348Y-8910748D01*
X22724348Y-8970852D01*
X22784452Y-8970852D01*
D13*
X23670600Y-8766100D02*
X23840600Y-8936100D01*
X23840600Y-8766100D02*
X23670600Y-8936100D01*
X23755600Y-8936100D02*
X23840600Y-8851100D01*
X23755600Y-8766100D01*
X23670600Y-8851100D01*
X23755600Y-8936100D01*
X23670600Y-9266100D02*
X23840600Y-9436100D01*
X23840600Y-9266100D02*
X23670600Y-9436100D01*
X23755600Y-9436100D02*
X23840600Y-9351100D01*
X23755600Y-9266100D01*
X23670600Y-9351100D01*
X23755600Y-9436100D01*
X23680600Y-11097600D02*
X23850600Y-11267600D01*
X23850600Y-11097600D02*
X23680600Y-11267600D01*
X23765600Y-11267600D02*
X23850600Y-11182600D01*
X23765600Y-11097600D01*
X23680600Y-11182600D01*
X23765600Y-11267600D01*
X23680600Y-11597600D02*
X23850600Y-11767600D01*
X23850600Y-11597600D02*
X23680600Y-11767600D01*
X23765600Y-11767600D02*
X23850600Y-11682600D01*
X23765600Y-11597600D01*
X23680600Y-11682600D01*
X23765600Y-11767600D01*
X23697600Y-9955600D02*
X23867600Y-10125600D01*
X23867600Y-9955600D02*
X23697600Y-10125600D01*
X23782600Y-10125600D02*
X23867600Y-10040600D01*
X23782600Y-9955600D01*
X23697600Y-10040600D01*
X23782600Y-10125600D01*
X23697600Y-10455600D02*
X23867600Y-10625600D01*
X23867600Y-10455600D02*
X23697600Y-10625600D01*
X23782600Y-10625600D02*
X23867600Y-10540600D01*
X23782600Y-10455600D01*
X23697600Y-10540600D01*
X23782600Y-10625600D01*
D14*
X19839100Y-9486100D02*
X19839100Y-9666100D01*
X19749100Y-9576100D02*
X19929100Y-9576100D01*
X19929100Y-9576100D02*
G75*
G02*
X19749100Y-9576100I-90000J0D01*
G01*
X19749100Y-9576100D02*
G75*
G02*
X19929100Y-9576100I90000J0D01*
G01*
X19839100Y-9986100D02*
X19839100Y-10166100D01*
X19749100Y-10076100D02*
X19929100Y-10076100D01*
X19929100Y-10076100D02*
G75*
G02*
X19749100Y-10076100I-90000J0D01*
G01*
X19749100Y-10076100D02*
G75*
G02*
X19929100Y-10076100I90000J0D01*
G01*
X19850600Y-10654600D02*
X19850600Y-10834600D01*
X19760600Y-10744600D02*
X19940600Y-10744600D01*
X19940600Y-10744600D02*
G75*
G02*
X19760600Y-10744600I-90000J0D01*
G01*
X19760600Y-10744600D02*
G75*
G02*
X19940600Y-10744600I90000J0D01*
G01*
X19850600Y-11154600D02*
X19850600Y-11334600D01*
X19760600Y-11244600D02*
X19940600Y-11244600D01*
X19940600Y-11244600D02*
G75*
G02*
X19760600Y-11244600I-90000J0D01*
G01*
X19760600Y-11244600D02*
G75*
G02*
X19940600Y-11244600I90000J0D01*
G01*
D11*
X19703877Y-12319584D02*
X19703877Y-12119584D01*
X19703877Y-12119584D02*
X19751496Y-12119584D01*
X19751496Y-12119584D02*
X19780067Y-12129108D01*
X19780067Y-12129108D02*
X19799115Y-12148155D01*
X19799115Y-12148155D02*
X19808639Y-12167203D01*
X19808639Y-12167203D02*
X19818163Y-12205298D01*
X19818163Y-12205298D02*
X19818163Y-12233869D01*
X19818163Y-12233869D02*
X19808639Y-12271965D01*
X19808639Y-12271965D02*
X19799115Y-12291012D01*
X19799115Y-12291012D02*
X19780067Y-12310060D01*
X19780067Y-12310060D02*
X19751496Y-12319584D01*
X19751496Y-12319584D02*
X19703877Y-12319584D01*
X19903877Y-12319584D02*
X19903877Y-12186250D01*
X19903877Y-12224346D02*
X19913401Y-12205298D01*
X19913401Y-12205298D02*
X19922924Y-12195774D01*
X19922924Y-12195774D02*
X19941972Y-12186250D01*
X19941972Y-12186250D02*
X19961020Y-12186250D01*
X20027686Y-12319584D02*
X20027686Y-12186250D01*
X20027686Y-12119584D02*
X20018163Y-12129108D01*
X20018163Y-12129108D02*
X20027686Y-12138631D01*
X20027686Y-12138631D02*
X20037210Y-12129108D01*
X20037210Y-12129108D02*
X20027686Y-12119584D01*
X20027686Y-12119584D02*
X20027686Y-12138631D01*
X20151496Y-12319584D02*
X20132448Y-12310060D01*
X20132448Y-12310060D02*
X20122924Y-12291012D01*
X20122924Y-12291012D02*
X20122924Y-12119584D01*
X20256258Y-12319584D02*
X20237210Y-12310060D01*
X20237210Y-12310060D02*
X20227686Y-12291012D01*
X20227686Y-12291012D02*
X20227686Y-12119584D01*
X20484829Y-12319584D02*
X20484829Y-12119584D01*
X20484829Y-12119584D02*
X20551496Y-12262441D01*
X20551496Y-12262441D02*
X20618163Y-12119584D01*
X20618163Y-12119584D02*
X20618163Y-12319584D01*
X20799115Y-12319584D02*
X20799115Y-12214822D01*
X20799115Y-12214822D02*
X20789591Y-12195774D01*
X20789591Y-12195774D02*
X20770544Y-12186250D01*
X20770544Y-12186250D02*
X20732448Y-12186250D01*
X20732448Y-12186250D02*
X20713401Y-12195774D01*
X20799115Y-12310060D02*
X20780067Y-12319584D01*
X20780067Y-12319584D02*
X20732448Y-12319584D01*
X20732448Y-12319584D02*
X20713401Y-12310060D01*
X20713401Y-12310060D02*
X20703877Y-12291012D01*
X20703877Y-12291012D02*
X20703877Y-12271965D01*
X20703877Y-12271965D02*
X20713401Y-12252917D01*
X20713401Y-12252917D02*
X20732448Y-12243393D01*
X20732448Y-12243393D02*
X20780067Y-12243393D01*
X20780067Y-12243393D02*
X20799115Y-12233869D01*
X20894353Y-12186250D02*
X20894353Y-12386250D01*
X20894353Y-12195774D02*
X20913401Y-12186250D01*
X20913401Y-12186250D02*
X20951496Y-12186250D01*
X20951496Y-12186250D02*
X20970544Y-12195774D01*
X20970544Y-12195774D02*
X20980067Y-12205298D01*
X20980067Y-12205298D02*
X20989591Y-12224346D01*
X20989591Y-12224346D02*
X20989591Y-12281488D01*
X20989591Y-12281488D02*
X20980067Y-12300536D01*
X20980067Y-12300536D02*
X20970544Y-12310060D01*
X20970544Y-12310060D02*
X20951496Y-12319584D01*
X20951496Y-12319584D02*
X20913401Y-12319584D01*
X20913401Y-12319584D02*
X20894353Y-12310060D01*
X21075305Y-12300536D02*
X21084829Y-12310060D01*
X21084829Y-12310060D02*
X21075305Y-12319584D01*
X21075305Y-12319584D02*
X21065782Y-12310060D01*
X21065782Y-12310060D02*
X21075305Y-12300536D01*
X21075305Y-12300536D02*
X21075305Y-12319584D01*
X21075305Y-12195774D02*
X21084829Y-12205298D01*
X21084829Y-12205298D02*
X21075305Y-12214822D01*
X21075305Y-12214822D02*
X21065782Y-12205298D01*
X21065782Y-12205298D02*
X21075305Y-12195774D01*
X21075305Y-12195774D02*
X21075305Y-12214822D01*
D12*
X19423100Y-12638100D02*
X19443100Y-12658100D01*
X19443100Y-12638100D02*
X19423100Y-12658100D01*
D11*
X19741972Y-12539584D02*
X19761020Y-12539584D01*
X19761020Y-12539584D02*
X19780067Y-12549108D01*
X19780067Y-12549108D02*
X19789591Y-12558631D01*
X19789591Y-12558631D02*
X19799115Y-12577679D01*
X19799115Y-12577679D02*
X19808639Y-12615774D01*
X19808639Y-12615774D02*
X19808639Y-12663393D01*
X19808639Y-12663393D02*
X19799115Y-12701488D01*
X19799115Y-12701488D02*
X19789591Y-12720536D01*
X19789591Y-12720536D02*
X19780067Y-12730060D01*
X19780067Y-12730060D02*
X19761020Y-12739584D01*
X19761020Y-12739584D02*
X19741972Y-12739584D01*
X19741972Y-12739584D02*
X19722924Y-12730060D01*
X19722924Y-12730060D02*
X19713401Y-12720536D01*
X19713401Y-12720536D02*
X19703877Y-12701488D01*
X19703877Y-12701488D02*
X19694353Y-12663393D01*
X19694353Y-12663393D02*
X19694353Y-12615774D01*
X19694353Y-12615774D02*
X19703877Y-12577679D01*
X19703877Y-12577679D02*
X19713401Y-12558631D01*
X19713401Y-12558631D02*
X19722924Y-12549108D01*
X19722924Y-12549108D02*
X19741972Y-12539584D01*
X19894353Y-12720536D02*
X19903877Y-12730060D01*
X19903877Y-12730060D02*
X19894353Y-12739584D01*
X19894353Y-12739584D02*
X19884829Y-12730060D01*
X19884829Y-12730060D02*
X19894353Y-12720536D01*
X19894353Y-12720536D02*
X19894353Y-12739584D01*
X19980067Y-12558631D02*
X19989591Y-12549108D01*
X19989591Y-12549108D02*
X20008639Y-12539584D01*
X20008639Y-12539584D02*
X20056258Y-12539584D01*
X20056258Y-12539584D02*
X20075305Y-12549108D01*
X20075305Y-12549108D02*
X20084829Y-12558631D01*
X20084829Y-12558631D02*
X20094353Y-12577679D01*
X20094353Y-12577679D02*
X20094353Y-12596727D01*
X20094353Y-12596727D02*
X20084829Y-12625298D01*
X20084829Y-12625298D02*
X19970544Y-12739584D01*
X19970544Y-12739584D02*
X20094353Y-12739584D01*
X20218163Y-12539584D02*
X20237210Y-12539584D01*
X20237210Y-12539584D02*
X20256258Y-12549108D01*
X20256258Y-12549108D02*
X20265782Y-12558631D01*
X20265782Y-12558631D02*
X20275305Y-12577679D01*
X20275305Y-12577679D02*
X20284829Y-12615774D01*
X20284829Y-12615774D02*
X20284829Y-12663393D01*
X20284829Y-12663393D02*
X20275305Y-12701488D01*
X20275305Y-12701488D02*
X20265782Y-12720536D01*
X20265782Y-12720536D02*
X20256258Y-12730060D01*
X20256258Y-12730060D02*
X20237210Y-12739584D01*
X20237210Y-12739584D02*
X20218163Y-12739584D01*
X20218163Y-12739584D02*
X20199115Y-12730060D01*
X20199115Y-12730060D02*
X20189591Y-12720536D01*
X20189591Y-12720536D02*
X20180067Y-12701488D01*
X20180067Y-12701488D02*
X20170544Y-12663393D01*
X20170544Y-12663393D02*
X20170544Y-12615774D01*
X20170544Y-12615774D02*
X20180067Y-12577679D01*
X20180067Y-12577679D02*
X20189591Y-12558631D01*
X20189591Y-12558631D02*
X20199115Y-12549108D01*
X20199115Y-12549108D02*
X20218163Y-12539584D01*
X20408639Y-12539584D02*
X20427686Y-12539584D01*
X20427686Y-12539584D02*
X20446734Y-12549108D01*
X20446734Y-12549108D02*
X20456258Y-12558631D01*
X20456258Y-12558631D02*
X20465782Y-12577679D01*
X20465782Y-12577679D02*
X20475305Y-12615774D01*
X20475305Y-12615774D02*
X20475305Y-12663393D01*
X20475305Y-12663393D02*
X20465782Y-12701488D01*
X20465782Y-12701488D02*
X20456258Y-12720536D01*
X20456258Y-12720536D02*
X20446734Y-12730060D01*
X20446734Y-12730060D02*
X20427686Y-12739584D01*
X20427686Y-12739584D02*
X20408639Y-12739584D01*
X20408639Y-12739584D02*
X20389591Y-12730060D01*
X20389591Y-12730060D02*
X20380067Y-12720536D01*
X20380067Y-12720536D02*
X20370544Y-12701488D01*
X20370544Y-12701488D02*
X20361020Y-12663393D01*
X20361020Y-12663393D02*
X20361020Y-12615774D01*
X20361020Y-12615774D02*
X20370544Y-12577679D01*
X20370544Y-12577679D02*
X20380067Y-12558631D01*
X20380067Y-12558631D02*
X20389591Y-12549108D01*
X20389591Y-12549108D02*
X20408639Y-12539584D01*
X20561020Y-12739584D02*
X20561020Y-12606250D01*
X20561020Y-12625298D02*
X20570544Y-12615774D01*
X20570544Y-12615774D02*
X20589591Y-12606250D01*
X20589591Y-12606250D02*
X20618163Y-12606250D01*
X20618163Y-12606250D02*
X20637210Y-12615774D01*
X20637210Y-12615774D02*
X20646734Y-12634822D01*
X20646734Y-12634822D02*
X20646734Y-12739584D01*
X20646734Y-12634822D02*
X20656258Y-12615774D01*
X20656258Y-12615774D02*
X20675305Y-12606250D01*
X20675305Y-12606250D02*
X20703877Y-12606250D01*
X20703877Y-12606250D02*
X20722925Y-12615774D01*
X20722925Y-12615774D02*
X20732448Y-12634822D01*
X20732448Y-12634822D02*
X20732448Y-12739584D01*
X20827686Y-12739584D02*
X20827686Y-12606250D01*
X20827686Y-12625298D02*
X20837210Y-12615774D01*
X20837210Y-12615774D02*
X20856258Y-12606250D01*
X20856258Y-12606250D02*
X20884829Y-12606250D01*
X20884829Y-12606250D02*
X20903877Y-12615774D01*
X20903877Y-12615774D02*
X20913401Y-12634822D01*
X20913401Y-12634822D02*
X20913401Y-12739584D01*
X20913401Y-12634822D02*
X20922925Y-12615774D01*
X20922925Y-12615774D02*
X20941972Y-12606250D01*
X20941972Y-12606250D02*
X20970544Y-12606250D01*
X20970544Y-12606250D02*
X20989591Y-12615774D01*
X20989591Y-12615774D02*
X20999115Y-12634822D01*
X20999115Y-12634822D02*
X20999115Y-12739584D01*
X21389591Y-12530060D02*
X21218163Y-12787203D01*
X21646734Y-12539584D02*
X21665782Y-12539584D01*
X21665782Y-12539584D02*
X21684829Y-12549108D01*
X21684829Y-12549108D02*
X21694353Y-12558631D01*
X21694353Y-12558631D02*
X21703877Y-12577679D01*
X21703877Y-12577679D02*
X21713401Y-12615774D01*
X21713401Y-12615774D02*
X21713401Y-12663393D01*
X21713401Y-12663393D02*
X21703877Y-12701488D01*
X21703877Y-12701488D02*
X21694353Y-12720536D01*
X21694353Y-12720536D02*
X21684829Y-12730060D01*
X21684829Y-12730060D02*
X21665782Y-12739584D01*
X21665782Y-12739584D02*
X21646734Y-12739584D01*
X21646734Y-12739584D02*
X21627687Y-12730060D01*
X21627687Y-12730060D02*
X21618163Y-12720536D01*
X21618163Y-12720536D02*
X21608639Y-12701488D01*
X21608639Y-12701488D02*
X21599115Y-12663393D01*
X21599115Y-12663393D02*
X21599115Y-12615774D01*
X21599115Y-12615774D02*
X21608639Y-12577679D01*
X21608639Y-12577679D02*
X21618163Y-12558631D01*
X21618163Y-12558631D02*
X21627687Y-12549108D01*
X21627687Y-12549108D02*
X21646734Y-12539584D01*
X21799115Y-12720536D02*
X21808639Y-12730060D01*
X21808639Y-12730060D02*
X21799115Y-12739584D01*
X21799115Y-12739584D02*
X21789591Y-12730060D01*
X21789591Y-12730060D02*
X21799115Y-12720536D01*
X21799115Y-12720536D02*
X21799115Y-12739584D01*
X21932448Y-12539584D02*
X21951496Y-12539584D01*
X21951496Y-12539584D02*
X21970544Y-12549108D01*
X21970544Y-12549108D02*
X21980068Y-12558631D01*
X21980068Y-12558631D02*
X21989591Y-12577679D01*
X21989591Y-12577679D02*
X21999115Y-12615774D01*
X21999115Y-12615774D02*
X21999115Y-12663393D01*
X21999115Y-12663393D02*
X21989591Y-12701488D01*
X21989591Y-12701488D02*
X21980068Y-12720536D01*
X21980068Y-12720536D02*
X21970544Y-12730060D01*
X21970544Y-12730060D02*
X21951496Y-12739584D01*
X21951496Y-12739584D02*
X21932448Y-12739584D01*
X21932448Y-12739584D02*
X21913401Y-12730060D01*
X21913401Y-12730060D02*
X21903877Y-12720536D01*
X21903877Y-12720536D02*
X21894353Y-12701488D01*
X21894353Y-12701488D02*
X21884829Y-12663393D01*
X21884829Y-12663393D02*
X21884829Y-12615774D01*
X21884829Y-12615774D02*
X21894353Y-12577679D01*
X21894353Y-12577679D02*
X21903877Y-12558631D01*
X21903877Y-12558631D02*
X21913401Y-12549108D01*
X21913401Y-12549108D02*
X21932448Y-12539584D01*
X22122925Y-12539584D02*
X22141972Y-12539584D01*
X22141972Y-12539584D02*
X22161020Y-12549108D01*
X22161020Y-12549108D02*
X22170544Y-12558631D01*
X22170544Y-12558631D02*
X22180068Y-12577679D01*
X22180068Y-12577679D02*
X22189591Y-12615774D01*
X22189591Y-12615774D02*
X22189591Y-12663393D01*
X22189591Y-12663393D02*
X22180068Y-12701488D01*
X22180068Y-12701488D02*
X22170544Y-12720536D01*
X22170544Y-12720536D02*
X22161020Y-12730060D01*
X22161020Y-12730060D02*
X22141972Y-12739584D01*
X22141972Y-12739584D02*
X22122925Y-12739584D01*
X22122925Y-12739584D02*
X22103877Y-12730060D01*
X22103877Y-12730060D02*
X22094353Y-12720536D01*
X22094353Y-12720536D02*
X22084829Y-12701488D01*
X22084829Y-12701488D02*
X22075306Y-12663393D01*
X22075306Y-12663393D02*
X22075306Y-12615774D01*
X22075306Y-12615774D02*
X22084829Y-12577679D01*
X22084829Y-12577679D02*
X22094353Y-12558631D01*
X22094353Y-12558631D02*
X22103877Y-12549108D01*
X22103877Y-12549108D02*
X22122925Y-12539584D01*
X22256258Y-12539584D02*
X22389591Y-12539584D01*
X22389591Y-12539584D02*
X22303877Y-12739584D01*
X22475306Y-12739584D02*
X22513401Y-12739584D01*
X22513401Y-12739584D02*
X22532448Y-12730060D01*
X22532448Y-12730060D02*
X22541972Y-12720536D01*
X22541972Y-12720536D02*
X22561020Y-12691965D01*
X22561020Y-12691965D02*
X22570544Y-12653869D01*
X22570544Y-12653869D02*
X22570544Y-12577679D01*
X22570544Y-12577679D02*
X22561020Y-12558631D01*
X22561020Y-12558631D02*
X22551496Y-12549108D01*
X22551496Y-12549108D02*
X22532448Y-12539584D01*
X22532448Y-12539584D02*
X22494353Y-12539584D01*
X22494353Y-12539584D02*
X22475306Y-12549108D01*
X22475306Y-12549108D02*
X22465782Y-12558631D01*
X22465782Y-12558631D02*
X22456258Y-12577679D01*
X22456258Y-12577679D02*
X22456258Y-12625298D01*
X22456258Y-12625298D02*
X22465782Y-12644346D01*
X22465782Y-12644346D02*
X22475306Y-12653869D01*
X22475306Y-12653869D02*
X22494353Y-12663393D01*
X22494353Y-12663393D02*
X22532448Y-12663393D01*
X22532448Y-12663393D02*
X22551496Y-12653869D01*
X22551496Y-12653869D02*
X22561020Y-12644346D01*
X22561020Y-12644346D02*
X22570544Y-12625298D01*
X22646734Y-12539584D02*
X22646734Y-12577679D01*
X22722925Y-12539584D02*
X22722925Y-12577679D01*
X23018163Y-12815774D02*
X23008639Y-12806250D01*
X23008639Y-12806250D02*
X22989591Y-12777679D01*
X22989591Y-12777679D02*
X22980068Y-12758631D01*
X22980068Y-12758631D02*
X22970544Y-12730060D01*
X22970544Y-12730060D02*
X22961020Y-12682441D01*
X22961020Y-12682441D02*
X22961020Y-12644346D01*
X22961020Y-12644346D02*
X22970544Y-12596727D01*
X22970544Y-12596727D02*
X22980068Y-12568155D01*
X22980068Y-12568155D02*
X22989591Y-12549108D01*
X22989591Y-12549108D02*
X23008639Y-12520536D01*
X23008639Y-12520536D02*
X23018163Y-12511012D01*
X23199115Y-12739584D02*
X23084829Y-12739584D01*
X23141972Y-12739584D02*
X23141972Y-12539584D01*
X23141972Y-12539584D02*
X23122925Y-12568155D01*
X23122925Y-12568155D02*
X23103877Y-12587203D01*
X23103877Y-12587203D02*
X23084829Y-12596727D01*
X23322925Y-12539584D02*
X23341972Y-12539584D01*
X23341972Y-12539584D02*
X23361020Y-12549108D01*
X23361020Y-12549108D02*
X23370544Y-12558631D01*
X23370544Y-12558631D02*
X23380068Y-12577679D01*
X23380068Y-12577679D02*
X23389591Y-12615774D01*
X23389591Y-12615774D02*
X23389591Y-12663393D01*
X23389591Y-12663393D02*
X23380068Y-12701488D01*
X23380068Y-12701488D02*
X23370544Y-12720536D01*
X23370544Y-12720536D02*
X23361020Y-12730060D01*
X23361020Y-12730060D02*
X23341972Y-12739584D01*
X23341972Y-12739584D02*
X23322925Y-12739584D01*
X23322925Y-12739584D02*
X23303877Y-12730060D01*
X23303877Y-12730060D02*
X23294353Y-12720536D01*
X23294353Y-12720536D02*
X23284829Y-12701488D01*
X23284829Y-12701488D02*
X23275306Y-12663393D01*
X23275306Y-12663393D02*
X23275306Y-12615774D01*
X23275306Y-12615774D02*
X23284829Y-12577679D01*
X23284829Y-12577679D02*
X23294353Y-12558631D01*
X23294353Y-12558631D02*
X23303877Y-12549108D01*
X23303877Y-12549108D02*
X23322925Y-12539584D01*
X23627687Y-12739584D02*
X23627687Y-12539584D01*
X23713401Y-12739584D02*
X23713401Y-12634822D01*
X23713401Y-12634822D02*
X23703877Y-12615774D01*
X23703877Y-12615774D02*
X23684830Y-12606250D01*
X23684830Y-12606250D02*
X23656258Y-12606250D01*
X23656258Y-12606250D02*
X23637210Y-12615774D01*
X23637210Y-12615774D02*
X23627687Y-12625298D01*
X23837210Y-12739584D02*
X23818163Y-12730060D01*
X23818163Y-12730060D02*
X23808639Y-12720536D01*
X23808639Y-12720536D02*
X23799115Y-12701488D01*
X23799115Y-12701488D02*
X23799115Y-12644346D01*
X23799115Y-12644346D02*
X23808639Y-12625298D01*
X23808639Y-12625298D02*
X23818163Y-12615774D01*
X23818163Y-12615774D02*
X23837210Y-12606250D01*
X23837210Y-12606250D02*
X23865782Y-12606250D01*
X23865782Y-12606250D02*
X23884830Y-12615774D01*
X23884830Y-12615774D02*
X23894353Y-12625298D01*
X23894353Y-12625298D02*
X23903877Y-12644346D01*
X23903877Y-12644346D02*
X23903877Y-12701488D01*
X23903877Y-12701488D02*
X23894353Y-12720536D01*
X23894353Y-12720536D02*
X23884830Y-12730060D01*
X23884830Y-12730060D02*
X23865782Y-12739584D01*
X23865782Y-12739584D02*
X23837210Y-12739584D01*
X24018163Y-12739584D02*
X23999115Y-12730060D01*
X23999115Y-12730060D02*
X23989591Y-12711012D01*
X23989591Y-12711012D02*
X23989591Y-12539584D01*
X24170544Y-12730060D02*
X24151496Y-12739584D01*
X24151496Y-12739584D02*
X24113401Y-12739584D01*
X24113401Y-12739584D02*
X24094353Y-12730060D01*
X24094353Y-12730060D02*
X24084830Y-12711012D01*
X24084830Y-12711012D02*
X24084830Y-12634822D01*
X24084830Y-12634822D02*
X24094353Y-12615774D01*
X24094353Y-12615774D02*
X24113401Y-12606250D01*
X24113401Y-12606250D02*
X24151496Y-12606250D01*
X24151496Y-12606250D02*
X24170544Y-12615774D01*
X24170544Y-12615774D02*
X24180068Y-12634822D01*
X24180068Y-12634822D02*
X24180068Y-12653869D01*
X24180068Y-12653869D02*
X24084830Y-12672917D01*
X24256258Y-12730060D02*
X24275306Y-12739584D01*
X24275306Y-12739584D02*
X24313401Y-12739584D01*
X24313401Y-12739584D02*
X24332449Y-12730060D01*
X24332449Y-12730060D02*
X24341972Y-12711012D01*
X24341972Y-12711012D02*
X24341972Y-12701488D01*
X24341972Y-12701488D02*
X24332449Y-12682441D01*
X24332449Y-12682441D02*
X24313401Y-12672917D01*
X24313401Y-12672917D02*
X24284830Y-12672917D01*
X24284830Y-12672917D02*
X24265782Y-12663393D01*
X24265782Y-12663393D02*
X24256258Y-12644346D01*
X24256258Y-12644346D02*
X24256258Y-12634822D01*
X24256258Y-12634822D02*
X24265782Y-12615774D01*
X24265782Y-12615774D02*
X24284830Y-12606250D01*
X24284830Y-12606250D02*
X24313401Y-12606250D01*
X24313401Y-12606250D02*
X24332449Y-12615774D01*
X24408639Y-12815774D02*
X24418163Y-12806250D01*
X24418163Y-12806250D02*
X24437211Y-12777679D01*
X24437211Y-12777679D02*
X24446734Y-12758631D01*
X24446734Y-12758631D02*
X24456258Y-12730060D01*
X24456258Y-12730060D02*
X24465782Y-12682441D01*
X24465782Y-12682441D02*
X24465782Y-12644346D01*
X24465782Y-12644346D02*
X24456258Y-12596727D01*
X24456258Y-12596727D02*
X24446734Y-12568155D01*
X24446734Y-12568155D02*
X24437211Y-12549108D01*
X24437211Y-12549108D02*
X24418163Y-12520536D01*
X24418163Y-12520536D02*
X24408639Y-12511012D01*
D12*
X19443100Y-12912100D02*
G75*
G02*
X19413100Y-12912100I-15000J0D01*
G01*
X19413100Y-12912100D02*
G75*
G02*
X19443100Y-12912100I15000J0D01*
G01*
D11*
X19741972Y-12803584D02*
X19761020Y-12803584D01*
X19761020Y-12803584D02*
X19780067Y-12813108D01*
X19780067Y-12813108D02*
X19789591Y-12822631D01*
X19789591Y-12822631D02*
X19799115Y-12841679D01*
X19799115Y-12841679D02*
X19808639Y-12879774D01*
X19808639Y-12879774D02*
X19808639Y-12927393D01*
X19808639Y-12927393D02*
X19799115Y-12965488D01*
X19799115Y-12965488D02*
X19789591Y-12984536D01*
X19789591Y-12984536D02*
X19780067Y-12994060D01*
X19780067Y-12994060D02*
X19761020Y-13003584D01*
X19761020Y-13003584D02*
X19741972Y-13003584D01*
X19741972Y-13003584D02*
X19722924Y-12994060D01*
X19722924Y-12994060D02*
X19713401Y-12984536D01*
X19713401Y-12984536D02*
X19703877Y-12965488D01*
X19703877Y-12965488D02*
X19694353Y-12927393D01*
X19694353Y-12927393D02*
X19694353Y-12879774D01*
X19694353Y-12879774D02*
X19703877Y-12841679D01*
X19703877Y-12841679D02*
X19713401Y-12822631D01*
X19713401Y-12822631D02*
X19722924Y-12813108D01*
X19722924Y-12813108D02*
X19741972Y-12803584D01*
X19894353Y-12984536D02*
X19903877Y-12994060D01*
X19903877Y-12994060D02*
X19894353Y-13003584D01*
X19894353Y-13003584D02*
X19884829Y-12994060D01*
X19884829Y-12994060D02*
X19894353Y-12984536D01*
X19894353Y-12984536D02*
X19894353Y-13003584D01*
X19970544Y-12803584D02*
X20094353Y-12803584D01*
X20094353Y-12803584D02*
X20027686Y-12879774D01*
X20027686Y-12879774D02*
X20056258Y-12879774D01*
X20056258Y-12879774D02*
X20075305Y-12889298D01*
X20075305Y-12889298D02*
X20084829Y-12898822D01*
X20084829Y-12898822D02*
X20094353Y-12917869D01*
X20094353Y-12917869D02*
X20094353Y-12965488D01*
X20094353Y-12965488D02*
X20084829Y-12984536D01*
X20084829Y-12984536D02*
X20075305Y-12994060D01*
X20075305Y-12994060D02*
X20056258Y-13003584D01*
X20056258Y-13003584D02*
X19999115Y-13003584D01*
X19999115Y-13003584D02*
X19980067Y-12994060D01*
X19980067Y-12994060D02*
X19970544Y-12984536D01*
X20218163Y-12803584D02*
X20237210Y-12803584D01*
X20237210Y-12803584D02*
X20256258Y-12813108D01*
X20256258Y-12813108D02*
X20265782Y-12822631D01*
X20265782Y-12822631D02*
X20275305Y-12841679D01*
X20275305Y-12841679D02*
X20284829Y-12879774D01*
X20284829Y-12879774D02*
X20284829Y-12927393D01*
X20284829Y-12927393D02*
X20275305Y-12965488D01*
X20275305Y-12965488D02*
X20265782Y-12984536D01*
X20265782Y-12984536D02*
X20256258Y-12994060D01*
X20256258Y-12994060D02*
X20237210Y-13003584D01*
X20237210Y-13003584D02*
X20218163Y-13003584D01*
X20218163Y-13003584D02*
X20199115Y-12994060D01*
X20199115Y-12994060D02*
X20189591Y-12984536D01*
X20189591Y-12984536D02*
X20180067Y-12965488D01*
X20180067Y-12965488D02*
X20170544Y-12927393D01*
X20170544Y-12927393D02*
X20170544Y-12879774D01*
X20170544Y-12879774D02*
X20180067Y-12841679D01*
X20180067Y-12841679D02*
X20189591Y-12822631D01*
X20189591Y-12822631D02*
X20199115Y-12813108D01*
X20199115Y-12813108D02*
X20218163Y-12803584D01*
X20408639Y-12803584D02*
X20427686Y-12803584D01*
X20427686Y-12803584D02*
X20446734Y-12813108D01*
X20446734Y-12813108D02*
X20456258Y-12822631D01*
X20456258Y-12822631D02*
X20465782Y-12841679D01*
X20465782Y-12841679D02*
X20475305Y-12879774D01*
X20475305Y-12879774D02*
X20475305Y-12927393D01*
X20475305Y-12927393D02*
X20465782Y-12965488D01*
X20465782Y-12965488D02*
X20456258Y-12984536D01*
X20456258Y-12984536D02*
X20446734Y-12994060D01*
X20446734Y-12994060D02*
X20427686Y-13003584D01*
X20427686Y-13003584D02*
X20408639Y-13003584D01*
X20408639Y-13003584D02*
X20389591Y-12994060D01*
X20389591Y-12994060D02*
X20380067Y-12984536D01*
X20380067Y-12984536D02*
X20370544Y-12965488D01*
X20370544Y-12965488D02*
X20361020Y-12927393D01*
X20361020Y-12927393D02*
X20361020Y-12879774D01*
X20361020Y-12879774D02*
X20370544Y-12841679D01*
X20370544Y-12841679D02*
X20380067Y-12822631D01*
X20380067Y-12822631D02*
X20389591Y-12813108D01*
X20389591Y-12813108D02*
X20408639Y-12803584D01*
X20561020Y-13003584D02*
X20561020Y-12870250D01*
X20561020Y-12889298D02*
X20570544Y-12879774D01*
X20570544Y-12879774D02*
X20589591Y-12870250D01*
X20589591Y-12870250D02*
X20618163Y-12870250D01*
X20618163Y-12870250D02*
X20637210Y-12879774D01*
X20637210Y-12879774D02*
X20646734Y-12898822D01*
X20646734Y-12898822D02*
X20646734Y-13003584D01*
X20646734Y-12898822D02*
X20656258Y-12879774D01*
X20656258Y-12879774D02*
X20675305Y-12870250D01*
X20675305Y-12870250D02*
X20703877Y-12870250D01*
X20703877Y-12870250D02*
X20722925Y-12879774D01*
X20722925Y-12879774D02*
X20732448Y-12898822D01*
X20732448Y-12898822D02*
X20732448Y-13003584D01*
X20827686Y-13003584D02*
X20827686Y-12870250D01*
X20827686Y-12889298D02*
X20837210Y-12879774D01*
X20837210Y-12879774D02*
X20856258Y-12870250D01*
X20856258Y-12870250D02*
X20884829Y-12870250D01*
X20884829Y-12870250D02*
X20903877Y-12879774D01*
X20903877Y-12879774D02*
X20913401Y-12898822D01*
X20913401Y-12898822D02*
X20913401Y-13003584D01*
X20913401Y-12898822D02*
X20922925Y-12879774D01*
X20922925Y-12879774D02*
X20941972Y-12870250D01*
X20941972Y-12870250D02*
X20970544Y-12870250D01*
X20970544Y-12870250D02*
X20989591Y-12879774D01*
X20989591Y-12879774D02*
X20999115Y-12898822D01*
X20999115Y-12898822D02*
X20999115Y-13003584D01*
X21389591Y-12794060D02*
X21218163Y-13051203D01*
X21646734Y-12803584D02*
X21665782Y-12803584D01*
X21665782Y-12803584D02*
X21684829Y-12813108D01*
X21684829Y-12813108D02*
X21694353Y-12822631D01*
X21694353Y-12822631D02*
X21703877Y-12841679D01*
X21703877Y-12841679D02*
X21713401Y-12879774D01*
X21713401Y-12879774D02*
X21713401Y-12927393D01*
X21713401Y-12927393D02*
X21703877Y-12965488D01*
X21703877Y-12965488D02*
X21694353Y-12984536D01*
X21694353Y-12984536D02*
X21684829Y-12994060D01*
X21684829Y-12994060D02*
X21665782Y-13003584D01*
X21665782Y-13003584D02*
X21646734Y-13003584D01*
X21646734Y-13003584D02*
X21627687Y-12994060D01*
X21627687Y-12994060D02*
X21618163Y-12984536D01*
X21618163Y-12984536D02*
X21608639Y-12965488D01*
X21608639Y-12965488D02*
X21599115Y-12927393D01*
X21599115Y-12927393D02*
X21599115Y-12879774D01*
X21599115Y-12879774D02*
X21608639Y-12841679D01*
X21608639Y-12841679D02*
X21618163Y-12822631D01*
X21618163Y-12822631D02*
X21627687Y-12813108D01*
X21627687Y-12813108D02*
X21646734Y-12803584D01*
X21799115Y-12984536D02*
X21808639Y-12994060D01*
X21808639Y-12994060D02*
X21799115Y-13003584D01*
X21799115Y-13003584D02*
X21789591Y-12994060D01*
X21789591Y-12994060D02*
X21799115Y-12984536D01*
X21799115Y-12984536D02*
X21799115Y-13003584D01*
X21932448Y-12803584D02*
X21951496Y-12803584D01*
X21951496Y-12803584D02*
X21970544Y-12813108D01*
X21970544Y-12813108D02*
X21980068Y-12822631D01*
X21980068Y-12822631D02*
X21989591Y-12841679D01*
X21989591Y-12841679D02*
X21999115Y-12879774D01*
X21999115Y-12879774D02*
X21999115Y-12927393D01*
X21999115Y-12927393D02*
X21989591Y-12965488D01*
X21989591Y-12965488D02*
X21980068Y-12984536D01*
X21980068Y-12984536D02*
X21970544Y-12994060D01*
X21970544Y-12994060D02*
X21951496Y-13003584D01*
X21951496Y-13003584D02*
X21932448Y-13003584D01*
X21932448Y-13003584D02*
X21913401Y-12994060D01*
X21913401Y-12994060D02*
X21903877Y-12984536D01*
X21903877Y-12984536D02*
X21894353Y-12965488D01*
X21894353Y-12965488D02*
X21884829Y-12927393D01*
X21884829Y-12927393D02*
X21884829Y-12879774D01*
X21884829Y-12879774D02*
X21894353Y-12841679D01*
X21894353Y-12841679D02*
X21903877Y-12822631D01*
X21903877Y-12822631D02*
X21913401Y-12813108D01*
X21913401Y-12813108D02*
X21932448Y-12803584D01*
X22189591Y-13003584D02*
X22075306Y-13003584D01*
X22132448Y-13003584D02*
X22132448Y-12803584D01*
X22132448Y-12803584D02*
X22113401Y-12832155D01*
X22113401Y-12832155D02*
X22094353Y-12851203D01*
X22094353Y-12851203D02*
X22075306Y-12860727D01*
X22380067Y-13003584D02*
X22265782Y-13003584D01*
X22322925Y-13003584D02*
X22322925Y-12803584D01*
X22322925Y-12803584D02*
X22303877Y-12832155D01*
X22303877Y-12832155D02*
X22284829Y-12851203D01*
X22284829Y-12851203D02*
X22265782Y-12860727D01*
X22494353Y-12889298D02*
X22475306Y-12879774D01*
X22475306Y-12879774D02*
X22465782Y-12870250D01*
X22465782Y-12870250D02*
X22456258Y-12851203D01*
X22456258Y-12851203D02*
X22456258Y-12841679D01*
X22456258Y-12841679D02*
X22465782Y-12822631D01*
X22465782Y-12822631D02*
X22475306Y-12813108D01*
X22475306Y-12813108D02*
X22494353Y-12803584D01*
X22494353Y-12803584D02*
X22532448Y-12803584D01*
X22532448Y-12803584D02*
X22551496Y-12813108D01*
X22551496Y-12813108D02*
X22561020Y-12822631D01*
X22561020Y-12822631D02*
X22570544Y-12841679D01*
X22570544Y-12841679D02*
X22570544Y-12851203D01*
X22570544Y-12851203D02*
X22561020Y-12870250D01*
X22561020Y-12870250D02*
X22551496Y-12879774D01*
X22551496Y-12879774D02*
X22532448Y-12889298D01*
X22532448Y-12889298D02*
X22494353Y-12889298D01*
X22494353Y-12889298D02*
X22475306Y-12898822D01*
X22475306Y-12898822D02*
X22465782Y-12908346D01*
X22465782Y-12908346D02*
X22456258Y-12927393D01*
X22456258Y-12927393D02*
X22456258Y-12965488D01*
X22456258Y-12965488D02*
X22465782Y-12984536D01*
X22465782Y-12984536D02*
X22475306Y-12994060D01*
X22475306Y-12994060D02*
X22494353Y-13003584D01*
X22494353Y-13003584D02*
X22532448Y-13003584D01*
X22532448Y-13003584D02*
X22551496Y-12994060D01*
X22551496Y-12994060D02*
X22561020Y-12984536D01*
X22561020Y-12984536D02*
X22570544Y-12965488D01*
X22570544Y-12965488D02*
X22570544Y-12927393D01*
X22570544Y-12927393D02*
X22561020Y-12908346D01*
X22561020Y-12908346D02*
X22551496Y-12898822D01*
X22551496Y-12898822D02*
X22532448Y-12889298D01*
X22646734Y-12803584D02*
X22646734Y-12841679D01*
X22722925Y-12803584D02*
X22722925Y-12841679D01*
X23018163Y-13079774D02*
X23008639Y-13070250D01*
X23008639Y-13070250D02*
X22989591Y-13041679D01*
X22989591Y-13041679D02*
X22980068Y-13022631D01*
X22980068Y-13022631D02*
X22970544Y-12994060D01*
X22970544Y-12994060D02*
X22961020Y-12946441D01*
X22961020Y-12946441D02*
X22961020Y-12908346D01*
X22961020Y-12908346D02*
X22970544Y-12860727D01*
X22970544Y-12860727D02*
X22980068Y-12832155D01*
X22980068Y-12832155D02*
X22989591Y-12813108D01*
X22989591Y-12813108D02*
X23008639Y-12784536D01*
X23008639Y-12784536D02*
X23018163Y-12775012D01*
X23122925Y-12889298D02*
X23103877Y-12879774D01*
X23103877Y-12879774D02*
X23094353Y-12870250D01*
X23094353Y-12870250D02*
X23084829Y-12851203D01*
X23084829Y-12851203D02*
X23084829Y-12841679D01*
X23084829Y-12841679D02*
X23094353Y-12822631D01*
X23094353Y-12822631D02*
X23103877Y-12813108D01*
X23103877Y-12813108D02*
X23122925Y-12803584D01*
X23122925Y-12803584D02*
X23161020Y-12803584D01*
X23161020Y-12803584D02*
X23180068Y-12813108D01*
X23180068Y-12813108D02*
X23189591Y-12822631D01*
X23189591Y-12822631D02*
X23199115Y-12841679D01*
X23199115Y-12841679D02*
X23199115Y-12851203D01*
X23199115Y-12851203D02*
X23189591Y-12870250D01*
X23189591Y-12870250D02*
X23180068Y-12879774D01*
X23180068Y-12879774D02*
X23161020Y-12889298D01*
X23161020Y-12889298D02*
X23122925Y-12889298D01*
X23122925Y-12889298D02*
X23103877Y-12898822D01*
X23103877Y-12898822D02*
X23094353Y-12908346D01*
X23094353Y-12908346D02*
X23084829Y-12927393D01*
X23084829Y-12927393D02*
X23084829Y-12965488D01*
X23084829Y-12965488D02*
X23094353Y-12984536D01*
X23094353Y-12984536D02*
X23103877Y-12994060D01*
X23103877Y-12994060D02*
X23122925Y-13003584D01*
X23122925Y-13003584D02*
X23161020Y-13003584D01*
X23161020Y-13003584D02*
X23180068Y-12994060D01*
X23180068Y-12994060D02*
X23189591Y-12984536D01*
X23189591Y-12984536D02*
X23199115Y-12965488D01*
X23199115Y-12965488D02*
X23199115Y-12927393D01*
X23199115Y-12927393D02*
X23189591Y-12908346D01*
X23189591Y-12908346D02*
X23180068Y-12898822D01*
X23180068Y-12898822D02*
X23161020Y-12889298D01*
X23437210Y-13003584D02*
X23437210Y-12803584D01*
X23522925Y-13003584D02*
X23522925Y-12898822D01*
X23522925Y-12898822D02*
X23513401Y-12879774D01*
X23513401Y-12879774D02*
X23494353Y-12870250D01*
X23494353Y-12870250D02*
X23465782Y-12870250D01*
X23465782Y-12870250D02*
X23446734Y-12879774D01*
X23446734Y-12879774D02*
X23437210Y-12889298D01*
X23646734Y-13003584D02*
X23627687Y-12994060D01*
X23627687Y-12994060D02*
X23618163Y-12984536D01*
X23618163Y-12984536D02*
X23608639Y-12965488D01*
X23608639Y-12965488D02*
X23608639Y-12908346D01*
X23608639Y-12908346D02*
X23618163Y-12889298D01*
X23618163Y-12889298D02*
X23627687Y-12879774D01*
X23627687Y-12879774D02*
X23646734Y-12870250D01*
X23646734Y-12870250D02*
X23675306Y-12870250D01*
X23675306Y-12870250D02*
X23694353Y-12879774D01*
X23694353Y-12879774D02*
X23703877Y-12889298D01*
X23703877Y-12889298D02*
X23713401Y-12908346D01*
X23713401Y-12908346D02*
X23713401Y-12965488D01*
X23713401Y-12965488D02*
X23703877Y-12984536D01*
X23703877Y-12984536D02*
X23694353Y-12994060D01*
X23694353Y-12994060D02*
X23675306Y-13003584D01*
X23675306Y-13003584D02*
X23646734Y-13003584D01*
X23827687Y-13003584D02*
X23808639Y-12994060D01*
X23808639Y-12994060D02*
X23799115Y-12975012D01*
X23799115Y-12975012D02*
X23799115Y-12803584D01*
X23980068Y-12994060D02*
X23961020Y-13003584D01*
X23961020Y-13003584D02*
X23922925Y-13003584D01*
X23922925Y-13003584D02*
X23903877Y-12994060D01*
X23903877Y-12994060D02*
X23894353Y-12975012D01*
X23894353Y-12975012D02*
X23894353Y-12898822D01*
X23894353Y-12898822D02*
X23903877Y-12879774D01*
X23903877Y-12879774D02*
X23922925Y-12870250D01*
X23922925Y-12870250D02*
X23961020Y-12870250D01*
X23961020Y-12870250D02*
X23980068Y-12879774D01*
X23980068Y-12879774D02*
X23989591Y-12898822D01*
X23989591Y-12898822D02*
X23989591Y-12917869D01*
X23989591Y-12917869D02*
X23894353Y-12936917D01*
X24065782Y-12994060D02*
X24084830Y-13003584D01*
X24084830Y-13003584D02*
X24122925Y-13003584D01*
X24122925Y-13003584D02*
X24141972Y-12994060D01*
X24141972Y-12994060D02*
X24151496Y-12975012D01*
X24151496Y-12975012D02*
X24151496Y-12965488D01*
X24151496Y-12965488D02*
X24141972Y-12946441D01*
X24141972Y-12946441D02*
X24122925Y-12936917D01*
X24122925Y-12936917D02*
X24094353Y-12936917D01*
X24094353Y-12936917D02*
X24075306Y-12927393D01*
X24075306Y-12927393D02*
X24065782Y-12908346D01*
X24065782Y-12908346D02*
X24065782Y-12898822D01*
X24065782Y-12898822D02*
X24075306Y-12879774D01*
X24075306Y-12879774D02*
X24094353Y-12870250D01*
X24094353Y-12870250D02*
X24122925Y-12870250D01*
X24122925Y-12870250D02*
X24141972Y-12879774D01*
X24218163Y-13079774D02*
X24227687Y-13070250D01*
X24227687Y-13070250D02*
X24246734Y-13041679D01*
X24246734Y-13041679D02*
X24256258Y-13022631D01*
X24256258Y-13022631D02*
X24265782Y-12994060D01*
X24265782Y-12994060D02*
X24275306Y-12946441D01*
X24275306Y-12946441D02*
X24275306Y-12908346D01*
X24275306Y-12908346D02*
X24265782Y-12860727D01*
X24265782Y-12860727D02*
X24256258Y-12832155D01*
X24256258Y-12832155D02*
X24246734Y-12813108D01*
X24246734Y-12813108D02*
X24227687Y-12784536D01*
X24227687Y-12784536D02*
X24218163Y-12775012D01*
D12*
X19428100Y-13161100D02*
X19428100Y-13191100D01*
X19413100Y-13176100D02*
X19443100Y-13176100D01*
D11*
X19741972Y-13067584D02*
X19761020Y-13067584D01*
X19761020Y-13067584D02*
X19780067Y-13077108D01*
X19780067Y-13077108D02*
X19789591Y-13086631D01*
X19789591Y-13086631D02*
X19799115Y-13105679D01*
X19799115Y-13105679D02*
X19808639Y-13143774D01*
X19808639Y-13143774D02*
X19808639Y-13191393D01*
X19808639Y-13191393D02*
X19799115Y-13229488D01*
X19799115Y-13229488D02*
X19789591Y-13248536D01*
X19789591Y-13248536D02*
X19780067Y-13258060D01*
X19780067Y-13258060D02*
X19761020Y-13267584D01*
X19761020Y-13267584D02*
X19741972Y-13267584D01*
X19741972Y-13267584D02*
X19722924Y-13258060D01*
X19722924Y-13258060D02*
X19713401Y-13248536D01*
X19713401Y-13248536D02*
X19703877Y-13229488D01*
X19703877Y-13229488D02*
X19694353Y-13191393D01*
X19694353Y-13191393D02*
X19694353Y-13143774D01*
X19694353Y-13143774D02*
X19703877Y-13105679D01*
X19703877Y-13105679D02*
X19713401Y-13086631D01*
X19713401Y-13086631D02*
X19722924Y-13077108D01*
X19722924Y-13077108D02*
X19741972Y-13067584D01*
X19894353Y-13248536D02*
X19903877Y-13258060D01*
X19903877Y-13258060D02*
X19894353Y-13267584D01*
X19894353Y-13267584D02*
X19884829Y-13258060D01*
X19884829Y-13258060D02*
X19894353Y-13248536D01*
X19894353Y-13248536D02*
X19894353Y-13267584D01*
X19970544Y-13067584D02*
X20094353Y-13067584D01*
X20094353Y-13067584D02*
X20027686Y-13143774D01*
X20027686Y-13143774D02*
X20056258Y-13143774D01*
X20056258Y-13143774D02*
X20075305Y-13153298D01*
X20075305Y-13153298D02*
X20084829Y-13162822D01*
X20084829Y-13162822D02*
X20094353Y-13181869D01*
X20094353Y-13181869D02*
X20094353Y-13229488D01*
X20094353Y-13229488D02*
X20084829Y-13248536D01*
X20084829Y-13248536D02*
X20075305Y-13258060D01*
X20075305Y-13258060D02*
X20056258Y-13267584D01*
X20056258Y-13267584D02*
X19999115Y-13267584D01*
X19999115Y-13267584D02*
X19980067Y-13258060D01*
X19980067Y-13258060D02*
X19970544Y-13248536D01*
X20218163Y-13067584D02*
X20237210Y-13067584D01*
X20237210Y-13067584D02*
X20256258Y-13077108D01*
X20256258Y-13077108D02*
X20265782Y-13086631D01*
X20265782Y-13086631D02*
X20275305Y-13105679D01*
X20275305Y-13105679D02*
X20284829Y-13143774D01*
X20284829Y-13143774D02*
X20284829Y-13191393D01*
X20284829Y-13191393D02*
X20275305Y-13229488D01*
X20275305Y-13229488D02*
X20265782Y-13248536D01*
X20265782Y-13248536D02*
X20256258Y-13258060D01*
X20256258Y-13258060D02*
X20237210Y-13267584D01*
X20237210Y-13267584D02*
X20218163Y-13267584D01*
X20218163Y-13267584D02*
X20199115Y-13258060D01*
X20199115Y-13258060D02*
X20189591Y-13248536D01*
X20189591Y-13248536D02*
X20180067Y-13229488D01*
X20180067Y-13229488D02*
X20170544Y-13191393D01*
X20170544Y-13191393D02*
X20170544Y-13143774D01*
X20170544Y-13143774D02*
X20180067Y-13105679D01*
X20180067Y-13105679D02*
X20189591Y-13086631D01*
X20189591Y-13086631D02*
X20199115Y-13077108D01*
X20199115Y-13077108D02*
X20218163Y-13067584D01*
X20408639Y-13067584D02*
X20427686Y-13067584D01*
X20427686Y-13067584D02*
X20446734Y-13077108D01*
X20446734Y-13077108D02*
X20456258Y-13086631D01*
X20456258Y-13086631D02*
X20465782Y-13105679D01*
X20465782Y-13105679D02*
X20475305Y-13143774D01*
X20475305Y-13143774D02*
X20475305Y-13191393D01*
X20475305Y-13191393D02*
X20465782Y-13229488D01*
X20465782Y-13229488D02*
X20456258Y-13248536D01*
X20456258Y-13248536D02*
X20446734Y-13258060D01*
X20446734Y-13258060D02*
X20427686Y-13267584D01*
X20427686Y-13267584D02*
X20408639Y-13267584D01*
X20408639Y-13267584D02*
X20389591Y-13258060D01*
X20389591Y-13258060D02*
X20380067Y-13248536D01*
X20380067Y-13248536D02*
X20370544Y-13229488D01*
X20370544Y-13229488D02*
X20361020Y-13191393D01*
X20361020Y-13191393D02*
X20361020Y-13143774D01*
X20361020Y-13143774D02*
X20370544Y-13105679D01*
X20370544Y-13105679D02*
X20380067Y-13086631D01*
X20380067Y-13086631D02*
X20389591Y-13077108D01*
X20389591Y-13077108D02*
X20408639Y-13067584D01*
X20561020Y-13267584D02*
X20561020Y-13134250D01*
X20561020Y-13153298D02*
X20570544Y-13143774D01*
X20570544Y-13143774D02*
X20589591Y-13134250D01*
X20589591Y-13134250D02*
X20618163Y-13134250D01*
X20618163Y-13134250D02*
X20637210Y-13143774D01*
X20637210Y-13143774D02*
X20646734Y-13162822D01*
X20646734Y-13162822D02*
X20646734Y-13267584D01*
X20646734Y-13162822D02*
X20656258Y-13143774D01*
X20656258Y-13143774D02*
X20675305Y-13134250D01*
X20675305Y-13134250D02*
X20703877Y-13134250D01*
X20703877Y-13134250D02*
X20722925Y-13143774D01*
X20722925Y-13143774D02*
X20732448Y-13162822D01*
X20732448Y-13162822D02*
X20732448Y-13267584D01*
X20827686Y-13267584D02*
X20827686Y-13134250D01*
X20827686Y-13153298D02*
X20837210Y-13143774D01*
X20837210Y-13143774D02*
X20856258Y-13134250D01*
X20856258Y-13134250D02*
X20884829Y-13134250D01*
X20884829Y-13134250D02*
X20903877Y-13143774D01*
X20903877Y-13143774D02*
X20913401Y-13162822D01*
X20913401Y-13162822D02*
X20913401Y-13267584D01*
X20913401Y-13162822D02*
X20922925Y-13143774D01*
X20922925Y-13143774D02*
X20941972Y-13134250D01*
X20941972Y-13134250D02*
X20970544Y-13134250D01*
X20970544Y-13134250D02*
X20989591Y-13143774D01*
X20989591Y-13143774D02*
X20999115Y-13162822D01*
X20999115Y-13162822D02*
X20999115Y-13267584D01*
X21389591Y-13058060D02*
X21218163Y-13315203D01*
X21646734Y-13067584D02*
X21665782Y-13067584D01*
X21665782Y-13067584D02*
X21684829Y-13077108D01*
X21684829Y-13077108D02*
X21694353Y-13086631D01*
X21694353Y-13086631D02*
X21703877Y-13105679D01*
X21703877Y-13105679D02*
X21713401Y-13143774D01*
X21713401Y-13143774D02*
X21713401Y-13191393D01*
X21713401Y-13191393D02*
X21703877Y-13229488D01*
X21703877Y-13229488D02*
X21694353Y-13248536D01*
X21694353Y-13248536D02*
X21684829Y-13258060D01*
X21684829Y-13258060D02*
X21665782Y-13267584D01*
X21665782Y-13267584D02*
X21646734Y-13267584D01*
X21646734Y-13267584D02*
X21627687Y-13258060D01*
X21627687Y-13258060D02*
X21618163Y-13248536D01*
X21618163Y-13248536D02*
X21608639Y-13229488D01*
X21608639Y-13229488D02*
X21599115Y-13191393D01*
X21599115Y-13191393D02*
X21599115Y-13143774D01*
X21599115Y-13143774D02*
X21608639Y-13105679D01*
X21608639Y-13105679D02*
X21618163Y-13086631D01*
X21618163Y-13086631D02*
X21627687Y-13077108D01*
X21627687Y-13077108D02*
X21646734Y-13067584D01*
X21799115Y-13248536D02*
X21808639Y-13258060D01*
X21808639Y-13258060D02*
X21799115Y-13267584D01*
X21799115Y-13267584D02*
X21789591Y-13258060D01*
X21789591Y-13258060D02*
X21799115Y-13248536D01*
X21799115Y-13248536D02*
X21799115Y-13267584D01*
X21932448Y-13067584D02*
X21951496Y-13067584D01*
X21951496Y-13067584D02*
X21970544Y-13077108D01*
X21970544Y-13077108D02*
X21980068Y-13086631D01*
X21980068Y-13086631D02*
X21989591Y-13105679D01*
X21989591Y-13105679D02*
X21999115Y-13143774D01*
X21999115Y-13143774D02*
X21999115Y-13191393D01*
X21999115Y-13191393D02*
X21989591Y-13229488D01*
X21989591Y-13229488D02*
X21980068Y-13248536D01*
X21980068Y-13248536D02*
X21970544Y-13258060D01*
X21970544Y-13258060D02*
X21951496Y-13267584D01*
X21951496Y-13267584D02*
X21932448Y-13267584D01*
X21932448Y-13267584D02*
X21913401Y-13258060D01*
X21913401Y-13258060D02*
X21903877Y-13248536D01*
X21903877Y-13248536D02*
X21894353Y-13229488D01*
X21894353Y-13229488D02*
X21884829Y-13191393D01*
X21884829Y-13191393D02*
X21884829Y-13143774D01*
X21884829Y-13143774D02*
X21894353Y-13105679D01*
X21894353Y-13105679D02*
X21903877Y-13086631D01*
X21903877Y-13086631D02*
X21913401Y-13077108D01*
X21913401Y-13077108D02*
X21932448Y-13067584D01*
X22189591Y-13267584D02*
X22075306Y-13267584D01*
X22132448Y-13267584D02*
X22132448Y-13067584D01*
X22132448Y-13067584D02*
X22113401Y-13096155D01*
X22113401Y-13096155D02*
X22094353Y-13115203D01*
X22094353Y-13115203D02*
X22075306Y-13124727D01*
X22380067Y-13267584D02*
X22265782Y-13267584D01*
X22322925Y-13267584D02*
X22322925Y-13067584D01*
X22322925Y-13067584D02*
X22303877Y-13096155D01*
X22303877Y-13096155D02*
X22284829Y-13115203D01*
X22284829Y-13115203D02*
X22265782Y-13124727D01*
X22494353Y-13153298D02*
X22475306Y-13143774D01*
X22475306Y-13143774D02*
X22465782Y-13134250D01*
X22465782Y-13134250D02*
X22456258Y-13115203D01*
X22456258Y-13115203D02*
X22456258Y-13105679D01*
X22456258Y-13105679D02*
X22465782Y-13086631D01*
X22465782Y-13086631D02*
X22475306Y-13077108D01*
X22475306Y-13077108D02*
X22494353Y-13067584D01*
X22494353Y-13067584D02*
X22532448Y-13067584D01*
X22532448Y-13067584D02*
X22551496Y-13077108D01*
X22551496Y-13077108D02*
X22561020Y-13086631D01*
X22561020Y-13086631D02*
X22570544Y-13105679D01*
X22570544Y-13105679D02*
X22570544Y-13115203D01*
X22570544Y-13115203D02*
X22561020Y-13134250D01*
X22561020Y-13134250D02*
X22551496Y-13143774D01*
X22551496Y-13143774D02*
X22532448Y-13153298D01*
X22532448Y-13153298D02*
X22494353Y-13153298D01*
X22494353Y-13153298D02*
X22475306Y-13162822D01*
X22475306Y-13162822D02*
X22465782Y-13172346D01*
X22465782Y-13172346D02*
X22456258Y-13191393D01*
X22456258Y-13191393D02*
X22456258Y-13229488D01*
X22456258Y-13229488D02*
X22465782Y-13248536D01*
X22465782Y-13248536D02*
X22475306Y-13258060D01*
X22475306Y-13258060D02*
X22494353Y-13267584D01*
X22494353Y-13267584D02*
X22532448Y-13267584D01*
X22532448Y-13267584D02*
X22551496Y-13258060D01*
X22551496Y-13258060D02*
X22561020Y-13248536D01*
X22561020Y-13248536D02*
X22570544Y-13229488D01*
X22570544Y-13229488D02*
X22570544Y-13191393D01*
X22570544Y-13191393D02*
X22561020Y-13172346D01*
X22561020Y-13172346D02*
X22551496Y-13162822D01*
X22551496Y-13162822D02*
X22532448Y-13153298D01*
X22646734Y-13067584D02*
X22646734Y-13105679D01*
X22722925Y-13067584D02*
X22722925Y-13105679D01*
X23018163Y-13343774D02*
X23008639Y-13334250D01*
X23008639Y-13334250D02*
X22989591Y-13305679D01*
X22989591Y-13305679D02*
X22980068Y-13286631D01*
X22980068Y-13286631D02*
X22970544Y-13258060D01*
X22970544Y-13258060D02*
X22961020Y-13210441D01*
X22961020Y-13210441D02*
X22961020Y-13172346D01*
X22961020Y-13172346D02*
X22970544Y-13124727D01*
X22970544Y-13124727D02*
X22980068Y-13096155D01*
X22980068Y-13096155D02*
X22989591Y-13077108D01*
X22989591Y-13077108D02*
X23008639Y-13048536D01*
X23008639Y-13048536D02*
X23018163Y-13039012D01*
X23180068Y-13134250D02*
X23180068Y-13267584D01*
X23132448Y-13058060D02*
X23084829Y-13200917D01*
X23084829Y-13200917D02*
X23208639Y-13200917D01*
X23437210Y-13267584D02*
X23437210Y-13067584D01*
X23522925Y-13267584D02*
X23522925Y-13162822D01*
X23522925Y-13162822D02*
X23513401Y-13143774D01*
X23513401Y-13143774D02*
X23494353Y-13134250D01*
X23494353Y-13134250D02*
X23465782Y-13134250D01*
X23465782Y-13134250D02*
X23446734Y-13143774D01*
X23446734Y-13143774D02*
X23437210Y-13153298D01*
X23646734Y-13267584D02*
X23627687Y-13258060D01*
X23627687Y-13258060D02*
X23618163Y-13248536D01*
X23618163Y-13248536D02*
X23608639Y-13229488D01*
X23608639Y-13229488D02*
X23608639Y-13172346D01*
X23608639Y-13172346D02*
X23618163Y-13153298D01*
X23618163Y-13153298D02*
X23627687Y-13143774D01*
X23627687Y-13143774D02*
X23646734Y-13134250D01*
X23646734Y-13134250D02*
X23675306Y-13134250D01*
X23675306Y-13134250D02*
X23694353Y-13143774D01*
X23694353Y-13143774D02*
X23703877Y-13153298D01*
X23703877Y-13153298D02*
X23713401Y-13172346D01*
X23713401Y-13172346D02*
X23713401Y-13229488D01*
X23713401Y-13229488D02*
X23703877Y-13248536D01*
X23703877Y-13248536D02*
X23694353Y-13258060D01*
X23694353Y-13258060D02*
X23675306Y-13267584D01*
X23675306Y-13267584D02*
X23646734Y-13267584D01*
X23827687Y-13267584D02*
X23808639Y-13258060D01*
X23808639Y-13258060D02*
X23799115Y-13239012D01*
X23799115Y-13239012D02*
X23799115Y-13067584D01*
X23980068Y-13258060D02*
X23961020Y-13267584D01*
X23961020Y-13267584D02*
X23922925Y-13267584D01*
X23922925Y-13267584D02*
X23903877Y-13258060D01*
X23903877Y-13258060D02*
X23894353Y-13239012D01*
X23894353Y-13239012D02*
X23894353Y-13162822D01*
X23894353Y-13162822D02*
X23903877Y-13143774D01*
X23903877Y-13143774D02*
X23922925Y-13134250D01*
X23922925Y-13134250D02*
X23961020Y-13134250D01*
X23961020Y-13134250D02*
X23980068Y-13143774D01*
X23980068Y-13143774D02*
X23989591Y-13162822D01*
X23989591Y-13162822D02*
X23989591Y-13181869D01*
X23989591Y-13181869D02*
X23894353Y-13200917D01*
X24065782Y-13258060D02*
X24084830Y-13267584D01*
X24084830Y-13267584D02*
X24122925Y-13267584D01*
X24122925Y-13267584D02*
X24141972Y-13258060D01*
X24141972Y-13258060D02*
X24151496Y-13239012D01*
X24151496Y-13239012D02*
X24151496Y-13229488D01*
X24151496Y-13229488D02*
X24141972Y-13210441D01*
X24141972Y-13210441D02*
X24122925Y-13200917D01*
X24122925Y-13200917D02*
X24094353Y-13200917D01*
X24094353Y-13200917D02*
X24075306Y-13191393D01*
X24075306Y-13191393D02*
X24065782Y-13172346D01*
X24065782Y-13172346D02*
X24065782Y-13162822D01*
X24065782Y-13162822D02*
X24075306Y-13143774D01*
X24075306Y-13143774D02*
X24094353Y-13134250D01*
X24094353Y-13134250D02*
X24122925Y-13134250D01*
X24122925Y-13134250D02*
X24141972Y-13143774D01*
X24218163Y-13343774D02*
X24227687Y-13334250D01*
X24227687Y-13334250D02*
X24246734Y-13305679D01*
X24246734Y-13305679D02*
X24256258Y-13286631D01*
X24256258Y-13286631D02*
X24265782Y-13258060D01*
X24265782Y-13258060D02*
X24275306Y-13210441D01*
X24275306Y-13210441D02*
X24275306Y-13172346D01*
X24275306Y-13172346D02*
X24265782Y-13124727D01*
X24265782Y-13124727D02*
X24256258Y-13096155D01*
X24256258Y-13096155D02*
X24246734Y-13077108D01*
X24246734Y-13077108D02*
X24227687Y-13048536D01*
X24227687Y-13048536D02*
X24218163Y-13039012D01*
D12*
X19438267Y-13451767D02*
X19438267Y-13428433D01*
X19414933Y-13428433D01*
X19414933Y-13451767D01*
X19438267Y-13451767D01*
D11*
X19741972Y-13331584D02*
X19761020Y-13331584D01*
X19761020Y-13331584D02*
X19780067Y-13341108D01*
X19780067Y-13341108D02*
X19789591Y-13350631D01*
X19789591Y-13350631D02*
X19799115Y-13369679D01*
X19799115Y-13369679D02*
X19808639Y-13407774D01*
X19808639Y-13407774D02*
X19808639Y-13455393D01*
X19808639Y-13455393D02*
X19799115Y-13493488D01*
X19799115Y-13493488D02*
X19789591Y-13512536D01*
X19789591Y-13512536D02*
X19780067Y-13522060D01*
X19780067Y-13522060D02*
X19761020Y-13531584D01*
X19761020Y-13531584D02*
X19741972Y-13531584D01*
X19741972Y-13531584D02*
X19722924Y-13522060D01*
X19722924Y-13522060D02*
X19713401Y-13512536D01*
X19713401Y-13512536D02*
X19703877Y-13493488D01*
X19703877Y-13493488D02*
X19694353Y-13455393D01*
X19694353Y-13455393D02*
X19694353Y-13407774D01*
X19694353Y-13407774D02*
X19703877Y-13369679D01*
X19703877Y-13369679D02*
X19713401Y-13350631D01*
X19713401Y-13350631D02*
X19722924Y-13341108D01*
X19722924Y-13341108D02*
X19741972Y-13331584D01*
X19894353Y-13512536D02*
X19903877Y-13522060D01*
X19903877Y-13522060D02*
X19894353Y-13531584D01*
X19894353Y-13531584D02*
X19884829Y-13522060D01*
X19884829Y-13522060D02*
X19894353Y-13512536D01*
X19894353Y-13512536D02*
X19894353Y-13531584D01*
X19970544Y-13331584D02*
X20094353Y-13331584D01*
X20094353Y-13331584D02*
X20027686Y-13407774D01*
X20027686Y-13407774D02*
X20056258Y-13407774D01*
X20056258Y-13407774D02*
X20075305Y-13417298D01*
X20075305Y-13417298D02*
X20084829Y-13426822D01*
X20084829Y-13426822D02*
X20094353Y-13445869D01*
X20094353Y-13445869D02*
X20094353Y-13493488D01*
X20094353Y-13493488D02*
X20084829Y-13512536D01*
X20084829Y-13512536D02*
X20075305Y-13522060D01*
X20075305Y-13522060D02*
X20056258Y-13531584D01*
X20056258Y-13531584D02*
X19999115Y-13531584D01*
X19999115Y-13531584D02*
X19980067Y-13522060D01*
X19980067Y-13522060D02*
X19970544Y-13512536D01*
X20161020Y-13331584D02*
X20284829Y-13331584D01*
X20284829Y-13331584D02*
X20218163Y-13407774D01*
X20218163Y-13407774D02*
X20246734Y-13407774D01*
X20246734Y-13407774D02*
X20265782Y-13417298D01*
X20265782Y-13417298D02*
X20275305Y-13426822D01*
X20275305Y-13426822D02*
X20284829Y-13445869D01*
X20284829Y-13445869D02*
X20284829Y-13493488D01*
X20284829Y-13493488D02*
X20275305Y-13512536D01*
X20275305Y-13512536D02*
X20265782Y-13522060D01*
X20265782Y-13522060D02*
X20246734Y-13531584D01*
X20246734Y-13531584D02*
X20189591Y-13531584D01*
X20189591Y-13531584D02*
X20170544Y-13522060D01*
X20170544Y-13522060D02*
X20161020Y-13512536D01*
X20408639Y-13331584D02*
X20427686Y-13331584D01*
X20427686Y-13331584D02*
X20446734Y-13341108D01*
X20446734Y-13341108D02*
X20456258Y-13350631D01*
X20456258Y-13350631D02*
X20465782Y-13369679D01*
X20465782Y-13369679D02*
X20475305Y-13407774D01*
X20475305Y-13407774D02*
X20475305Y-13455393D01*
X20475305Y-13455393D02*
X20465782Y-13493488D01*
X20465782Y-13493488D02*
X20456258Y-13512536D01*
X20456258Y-13512536D02*
X20446734Y-13522060D01*
X20446734Y-13522060D02*
X20427686Y-13531584D01*
X20427686Y-13531584D02*
X20408639Y-13531584D01*
X20408639Y-13531584D02*
X20389591Y-13522060D01*
X20389591Y-13522060D02*
X20380067Y-13512536D01*
X20380067Y-13512536D02*
X20370544Y-13493488D01*
X20370544Y-13493488D02*
X20361020Y-13455393D01*
X20361020Y-13455393D02*
X20361020Y-13407774D01*
X20361020Y-13407774D02*
X20370544Y-13369679D01*
X20370544Y-13369679D02*
X20380067Y-13350631D01*
X20380067Y-13350631D02*
X20389591Y-13341108D01*
X20389591Y-13341108D02*
X20408639Y-13331584D01*
X20561020Y-13531584D02*
X20561020Y-13398250D01*
X20561020Y-13417298D02*
X20570544Y-13407774D01*
X20570544Y-13407774D02*
X20589591Y-13398250D01*
X20589591Y-13398250D02*
X20618163Y-13398250D01*
X20618163Y-13398250D02*
X20637210Y-13407774D01*
X20637210Y-13407774D02*
X20646734Y-13426822D01*
X20646734Y-13426822D02*
X20646734Y-13531584D01*
X20646734Y-13426822D02*
X20656258Y-13407774D01*
X20656258Y-13407774D02*
X20675305Y-13398250D01*
X20675305Y-13398250D02*
X20703877Y-13398250D01*
X20703877Y-13398250D02*
X20722925Y-13407774D01*
X20722925Y-13407774D02*
X20732448Y-13426822D01*
X20732448Y-13426822D02*
X20732448Y-13531584D01*
X20827686Y-13531584D02*
X20827686Y-13398250D01*
X20827686Y-13417298D02*
X20837210Y-13407774D01*
X20837210Y-13407774D02*
X20856258Y-13398250D01*
X20856258Y-13398250D02*
X20884829Y-13398250D01*
X20884829Y-13398250D02*
X20903877Y-13407774D01*
X20903877Y-13407774D02*
X20913401Y-13426822D01*
X20913401Y-13426822D02*
X20913401Y-13531584D01*
X20913401Y-13426822D02*
X20922925Y-13407774D01*
X20922925Y-13407774D02*
X20941972Y-13398250D01*
X20941972Y-13398250D02*
X20970544Y-13398250D01*
X20970544Y-13398250D02*
X20989591Y-13407774D01*
X20989591Y-13407774D02*
X20999115Y-13426822D01*
X20999115Y-13426822D02*
X20999115Y-13531584D01*
X21389591Y-13322060D02*
X21218163Y-13579203D01*
X21646734Y-13331584D02*
X21665782Y-13331584D01*
X21665782Y-13331584D02*
X21684829Y-13341108D01*
X21684829Y-13341108D02*
X21694353Y-13350631D01*
X21694353Y-13350631D02*
X21703877Y-13369679D01*
X21703877Y-13369679D02*
X21713401Y-13407774D01*
X21713401Y-13407774D02*
X21713401Y-13455393D01*
X21713401Y-13455393D02*
X21703877Y-13493488D01*
X21703877Y-13493488D02*
X21694353Y-13512536D01*
X21694353Y-13512536D02*
X21684829Y-13522060D01*
X21684829Y-13522060D02*
X21665782Y-13531584D01*
X21665782Y-13531584D02*
X21646734Y-13531584D01*
X21646734Y-13531584D02*
X21627687Y-13522060D01*
X21627687Y-13522060D02*
X21618163Y-13512536D01*
X21618163Y-13512536D02*
X21608639Y-13493488D01*
X21608639Y-13493488D02*
X21599115Y-13455393D01*
X21599115Y-13455393D02*
X21599115Y-13407774D01*
X21599115Y-13407774D02*
X21608639Y-13369679D01*
X21608639Y-13369679D02*
X21618163Y-13350631D01*
X21618163Y-13350631D02*
X21627687Y-13341108D01*
X21627687Y-13341108D02*
X21646734Y-13331584D01*
X21799115Y-13512536D02*
X21808639Y-13522060D01*
X21808639Y-13522060D02*
X21799115Y-13531584D01*
X21799115Y-13531584D02*
X21789591Y-13522060D01*
X21789591Y-13522060D02*
X21799115Y-13512536D01*
X21799115Y-13512536D02*
X21799115Y-13531584D01*
X21932448Y-13331584D02*
X21951496Y-13331584D01*
X21951496Y-13331584D02*
X21970544Y-13341108D01*
X21970544Y-13341108D02*
X21980068Y-13350631D01*
X21980068Y-13350631D02*
X21989591Y-13369679D01*
X21989591Y-13369679D02*
X21999115Y-13407774D01*
X21999115Y-13407774D02*
X21999115Y-13455393D01*
X21999115Y-13455393D02*
X21989591Y-13493488D01*
X21989591Y-13493488D02*
X21980068Y-13512536D01*
X21980068Y-13512536D02*
X21970544Y-13522060D01*
X21970544Y-13522060D02*
X21951496Y-13531584D01*
X21951496Y-13531584D02*
X21932448Y-13531584D01*
X21932448Y-13531584D02*
X21913401Y-13522060D01*
X21913401Y-13522060D02*
X21903877Y-13512536D01*
X21903877Y-13512536D02*
X21894353Y-13493488D01*
X21894353Y-13493488D02*
X21884829Y-13455393D01*
X21884829Y-13455393D02*
X21884829Y-13407774D01*
X21884829Y-13407774D02*
X21894353Y-13369679D01*
X21894353Y-13369679D02*
X21903877Y-13350631D01*
X21903877Y-13350631D02*
X21913401Y-13341108D01*
X21913401Y-13341108D02*
X21932448Y-13331584D01*
X22189591Y-13531584D02*
X22075306Y-13531584D01*
X22132448Y-13531584D02*
X22132448Y-13331584D01*
X22132448Y-13331584D02*
X22113401Y-13360155D01*
X22113401Y-13360155D02*
X22094353Y-13379203D01*
X22094353Y-13379203D02*
X22075306Y-13388727D01*
X22256258Y-13331584D02*
X22380067Y-13331584D01*
X22380067Y-13331584D02*
X22313401Y-13407774D01*
X22313401Y-13407774D02*
X22341972Y-13407774D01*
X22341972Y-13407774D02*
X22361020Y-13417298D01*
X22361020Y-13417298D02*
X22370544Y-13426822D01*
X22370544Y-13426822D02*
X22380067Y-13445869D01*
X22380067Y-13445869D02*
X22380067Y-13493488D01*
X22380067Y-13493488D02*
X22370544Y-13512536D01*
X22370544Y-13512536D02*
X22361020Y-13522060D01*
X22361020Y-13522060D02*
X22341972Y-13531584D01*
X22341972Y-13531584D02*
X22284829Y-13531584D01*
X22284829Y-13531584D02*
X22265782Y-13522060D01*
X22265782Y-13522060D02*
X22256258Y-13512536D01*
X22503877Y-13331584D02*
X22522925Y-13331584D01*
X22522925Y-13331584D02*
X22541972Y-13341108D01*
X22541972Y-13341108D02*
X22551496Y-13350631D01*
X22551496Y-13350631D02*
X22561020Y-13369679D01*
X22561020Y-13369679D02*
X22570544Y-13407774D01*
X22570544Y-13407774D02*
X22570544Y-13455393D01*
X22570544Y-13455393D02*
X22561020Y-13493488D01*
X22561020Y-13493488D02*
X22551496Y-13512536D01*
X22551496Y-13512536D02*
X22541972Y-13522060D01*
X22541972Y-13522060D02*
X22522925Y-13531584D01*
X22522925Y-13531584D02*
X22503877Y-13531584D01*
X22503877Y-13531584D02*
X22484829Y-13522060D01*
X22484829Y-13522060D02*
X22475306Y-13512536D01*
X22475306Y-13512536D02*
X22465782Y-13493488D01*
X22465782Y-13493488D02*
X22456258Y-13455393D01*
X22456258Y-13455393D02*
X22456258Y-13407774D01*
X22456258Y-13407774D02*
X22465782Y-13369679D01*
X22465782Y-13369679D02*
X22475306Y-13350631D01*
X22475306Y-13350631D02*
X22484829Y-13341108D01*
X22484829Y-13341108D02*
X22503877Y-13331584D01*
X22646734Y-13331584D02*
X22646734Y-13369679D01*
X22722925Y-13331584D02*
X22722925Y-13369679D01*
X23018163Y-13607774D02*
X23008639Y-13598250D01*
X23008639Y-13598250D02*
X22989591Y-13569679D01*
X22989591Y-13569679D02*
X22980068Y-13550631D01*
X22980068Y-13550631D02*
X22970544Y-13522060D01*
X22970544Y-13522060D02*
X22961020Y-13474441D01*
X22961020Y-13474441D02*
X22961020Y-13436346D01*
X22961020Y-13436346D02*
X22970544Y-13388727D01*
X22970544Y-13388727D02*
X22980068Y-13360155D01*
X22980068Y-13360155D02*
X22989591Y-13341108D01*
X22989591Y-13341108D02*
X23008639Y-13312536D01*
X23008639Y-13312536D02*
X23018163Y-13303012D01*
X23180068Y-13331584D02*
X23141972Y-13331584D01*
X23141972Y-13331584D02*
X23122925Y-13341108D01*
X23122925Y-13341108D02*
X23113401Y-13350631D01*
X23113401Y-13350631D02*
X23094353Y-13379203D01*
X23094353Y-13379203D02*
X23084829Y-13417298D01*
X23084829Y-13417298D02*
X23084829Y-13493488D01*
X23084829Y-13493488D02*
X23094353Y-13512536D01*
X23094353Y-13512536D02*
X23103877Y-13522060D01*
X23103877Y-13522060D02*
X23122925Y-13531584D01*
X23122925Y-13531584D02*
X23161020Y-13531584D01*
X23161020Y-13531584D02*
X23180068Y-13522060D01*
X23180068Y-13522060D02*
X23189591Y-13512536D01*
X23189591Y-13512536D02*
X23199115Y-13493488D01*
X23199115Y-13493488D02*
X23199115Y-13445869D01*
X23199115Y-13445869D02*
X23189591Y-13426822D01*
X23189591Y-13426822D02*
X23180068Y-13417298D01*
X23180068Y-13417298D02*
X23161020Y-13407774D01*
X23161020Y-13407774D02*
X23122925Y-13407774D01*
X23122925Y-13407774D02*
X23103877Y-13417298D01*
X23103877Y-13417298D02*
X23094353Y-13426822D01*
X23094353Y-13426822D02*
X23084829Y-13445869D01*
X23437210Y-13531584D02*
X23437210Y-13331584D01*
X23522925Y-13531584D02*
X23522925Y-13426822D01*
X23522925Y-13426822D02*
X23513401Y-13407774D01*
X23513401Y-13407774D02*
X23494353Y-13398250D01*
X23494353Y-13398250D02*
X23465782Y-13398250D01*
X23465782Y-13398250D02*
X23446734Y-13407774D01*
X23446734Y-13407774D02*
X23437210Y-13417298D01*
X23646734Y-13531584D02*
X23627687Y-13522060D01*
X23627687Y-13522060D02*
X23618163Y-13512536D01*
X23618163Y-13512536D02*
X23608639Y-13493488D01*
X23608639Y-13493488D02*
X23608639Y-13436346D01*
X23608639Y-13436346D02*
X23618163Y-13417298D01*
X23618163Y-13417298D02*
X23627687Y-13407774D01*
X23627687Y-13407774D02*
X23646734Y-13398250D01*
X23646734Y-13398250D02*
X23675306Y-13398250D01*
X23675306Y-13398250D02*
X23694353Y-13407774D01*
X23694353Y-13407774D02*
X23703877Y-13417298D01*
X23703877Y-13417298D02*
X23713401Y-13436346D01*
X23713401Y-13436346D02*
X23713401Y-13493488D01*
X23713401Y-13493488D02*
X23703877Y-13512536D01*
X23703877Y-13512536D02*
X23694353Y-13522060D01*
X23694353Y-13522060D02*
X23675306Y-13531584D01*
X23675306Y-13531584D02*
X23646734Y-13531584D01*
X23827687Y-13531584D02*
X23808639Y-13522060D01*
X23808639Y-13522060D02*
X23799115Y-13503012D01*
X23799115Y-13503012D02*
X23799115Y-13331584D01*
X23980068Y-13522060D02*
X23961020Y-13531584D01*
X23961020Y-13531584D02*
X23922925Y-13531584D01*
X23922925Y-13531584D02*
X23903877Y-13522060D01*
X23903877Y-13522060D02*
X23894353Y-13503012D01*
X23894353Y-13503012D02*
X23894353Y-13426822D01*
X23894353Y-13426822D02*
X23903877Y-13407774D01*
X23903877Y-13407774D02*
X23922925Y-13398250D01*
X23922925Y-13398250D02*
X23961020Y-13398250D01*
X23961020Y-13398250D02*
X23980068Y-13407774D01*
X23980068Y-13407774D02*
X23989591Y-13426822D01*
X23989591Y-13426822D02*
X23989591Y-13445869D01*
X23989591Y-13445869D02*
X23894353Y-13464917D01*
X24065782Y-13522060D02*
X24084830Y-13531584D01*
X24084830Y-13531584D02*
X24122925Y-13531584D01*
X24122925Y-13531584D02*
X24141972Y-13522060D01*
X24141972Y-13522060D02*
X24151496Y-13503012D01*
X24151496Y-13503012D02*
X24151496Y-13493488D01*
X24151496Y-13493488D02*
X24141972Y-13474441D01*
X24141972Y-13474441D02*
X24122925Y-13464917D01*
X24122925Y-13464917D02*
X24094353Y-13464917D01*
X24094353Y-13464917D02*
X24075306Y-13455393D01*
X24075306Y-13455393D02*
X24065782Y-13436346D01*
X24065782Y-13436346D02*
X24065782Y-13426822D01*
X24065782Y-13426822D02*
X24075306Y-13407774D01*
X24075306Y-13407774D02*
X24094353Y-13398250D01*
X24094353Y-13398250D02*
X24122925Y-13398250D01*
X24122925Y-13398250D02*
X24141972Y-13407774D01*
X24218163Y-13607774D02*
X24227687Y-13598250D01*
X24227687Y-13598250D02*
X24246734Y-13569679D01*
X24246734Y-13569679D02*
X24256258Y-13550631D01*
X24256258Y-13550631D02*
X24265782Y-13522060D01*
X24265782Y-13522060D02*
X24275306Y-13474441D01*
X24275306Y-13474441D02*
X24275306Y-13436346D01*
X24275306Y-13436346D02*
X24265782Y-13388727D01*
X24265782Y-13388727D02*
X24256258Y-13360155D01*
X24256258Y-13360155D02*
X24246734Y-13341108D01*
X24246734Y-13341108D02*
X24227687Y-13312536D01*
X24227687Y-13312536D02*
X24218163Y-13303012D01*
D12*
X19418100Y-13729100D02*
X19443100Y-13704100D01*
X19418100Y-13679100D01*
X19393100Y-13704100D01*
X19418100Y-13729100D01*
D11*
X19741972Y-13595584D02*
X19761020Y-13595584D01*
X19761020Y-13595584D02*
X19780067Y-13605108D01*
X19780067Y-13605108D02*
X19789591Y-13614631D01*
X19789591Y-13614631D02*
X19799115Y-13633679D01*
X19799115Y-13633679D02*
X19808639Y-13671774D01*
X19808639Y-13671774D02*
X19808639Y-13719393D01*
X19808639Y-13719393D02*
X19799115Y-13757488D01*
X19799115Y-13757488D02*
X19789591Y-13776536D01*
X19789591Y-13776536D02*
X19780067Y-13786060D01*
X19780067Y-13786060D02*
X19761020Y-13795584D01*
X19761020Y-13795584D02*
X19741972Y-13795584D01*
X19741972Y-13795584D02*
X19722924Y-13786060D01*
X19722924Y-13786060D02*
X19713401Y-13776536D01*
X19713401Y-13776536D02*
X19703877Y-13757488D01*
X19703877Y-13757488D02*
X19694353Y-13719393D01*
X19694353Y-13719393D02*
X19694353Y-13671774D01*
X19694353Y-13671774D02*
X19703877Y-13633679D01*
X19703877Y-13633679D02*
X19713401Y-13614631D01*
X19713401Y-13614631D02*
X19722924Y-13605108D01*
X19722924Y-13605108D02*
X19741972Y-13595584D01*
X19894353Y-13776536D02*
X19903877Y-13786060D01*
X19903877Y-13786060D02*
X19894353Y-13795584D01*
X19894353Y-13795584D02*
X19884829Y-13786060D01*
X19884829Y-13786060D02*
X19894353Y-13776536D01*
X19894353Y-13776536D02*
X19894353Y-13795584D01*
X20084829Y-13595584D02*
X19989591Y-13595584D01*
X19989591Y-13595584D02*
X19980067Y-13690822D01*
X19980067Y-13690822D02*
X19989591Y-13681298D01*
X19989591Y-13681298D02*
X20008639Y-13671774D01*
X20008639Y-13671774D02*
X20056258Y-13671774D01*
X20056258Y-13671774D02*
X20075305Y-13681298D01*
X20075305Y-13681298D02*
X20084829Y-13690822D01*
X20084829Y-13690822D02*
X20094353Y-13709869D01*
X20094353Y-13709869D02*
X20094353Y-13757488D01*
X20094353Y-13757488D02*
X20084829Y-13776536D01*
X20084829Y-13776536D02*
X20075305Y-13786060D01*
X20075305Y-13786060D02*
X20056258Y-13795584D01*
X20056258Y-13795584D02*
X20008639Y-13795584D01*
X20008639Y-13795584D02*
X19989591Y-13786060D01*
X19989591Y-13786060D02*
X19980067Y-13776536D01*
X20218163Y-13595584D02*
X20237210Y-13595584D01*
X20237210Y-13595584D02*
X20256258Y-13605108D01*
X20256258Y-13605108D02*
X20265782Y-13614631D01*
X20265782Y-13614631D02*
X20275305Y-13633679D01*
X20275305Y-13633679D02*
X20284829Y-13671774D01*
X20284829Y-13671774D02*
X20284829Y-13719393D01*
X20284829Y-13719393D02*
X20275305Y-13757488D01*
X20275305Y-13757488D02*
X20265782Y-13776536D01*
X20265782Y-13776536D02*
X20256258Y-13786060D01*
X20256258Y-13786060D02*
X20237210Y-13795584D01*
X20237210Y-13795584D02*
X20218163Y-13795584D01*
X20218163Y-13795584D02*
X20199115Y-13786060D01*
X20199115Y-13786060D02*
X20189591Y-13776536D01*
X20189591Y-13776536D02*
X20180067Y-13757488D01*
X20180067Y-13757488D02*
X20170544Y-13719393D01*
X20170544Y-13719393D02*
X20170544Y-13671774D01*
X20170544Y-13671774D02*
X20180067Y-13633679D01*
X20180067Y-13633679D02*
X20189591Y-13614631D01*
X20189591Y-13614631D02*
X20199115Y-13605108D01*
X20199115Y-13605108D02*
X20218163Y-13595584D01*
X20408639Y-13595584D02*
X20427686Y-13595584D01*
X20427686Y-13595584D02*
X20446734Y-13605108D01*
X20446734Y-13605108D02*
X20456258Y-13614631D01*
X20456258Y-13614631D02*
X20465782Y-13633679D01*
X20465782Y-13633679D02*
X20475305Y-13671774D01*
X20475305Y-13671774D02*
X20475305Y-13719393D01*
X20475305Y-13719393D02*
X20465782Y-13757488D01*
X20465782Y-13757488D02*
X20456258Y-13776536D01*
X20456258Y-13776536D02*
X20446734Y-13786060D01*
X20446734Y-13786060D02*
X20427686Y-13795584D01*
X20427686Y-13795584D02*
X20408639Y-13795584D01*
X20408639Y-13795584D02*
X20389591Y-13786060D01*
X20389591Y-13786060D02*
X20380067Y-13776536D01*
X20380067Y-13776536D02*
X20370544Y-13757488D01*
X20370544Y-13757488D02*
X20361020Y-13719393D01*
X20361020Y-13719393D02*
X20361020Y-13671774D01*
X20361020Y-13671774D02*
X20370544Y-13633679D01*
X20370544Y-13633679D02*
X20380067Y-13614631D01*
X20380067Y-13614631D02*
X20389591Y-13605108D01*
X20389591Y-13605108D02*
X20408639Y-13595584D01*
X20561020Y-13795584D02*
X20561020Y-13662250D01*
X20561020Y-13681298D02*
X20570544Y-13671774D01*
X20570544Y-13671774D02*
X20589591Y-13662250D01*
X20589591Y-13662250D02*
X20618163Y-13662250D01*
X20618163Y-13662250D02*
X20637210Y-13671774D01*
X20637210Y-13671774D02*
X20646734Y-13690822D01*
X20646734Y-13690822D02*
X20646734Y-13795584D01*
X20646734Y-13690822D02*
X20656258Y-13671774D01*
X20656258Y-13671774D02*
X20675305Y-13662250D01*
X20675305Y-13662250D02*
X20703877Y-13662250D01*
X20703877Y-13662250D02*
X20722925Y-13671774D01*
X20722925Y-13671774D02*
X20732448Y-13690822D01*
X20732448Y-13690822D02*
X20732448Y-13795584D01*
X20827686Y-13795584D02*
X20827686Y-13662250D01*
X20827686Y-13681298D02*
X20837210Y-13671774D01*
X20837210Y-13671774D02*
X20856258Y-13662250D01*
X20856258Y-13662250D02*
X20884829Y-13662250D01*
X20884829Y-13662250D02*
X20903877Y-13671774D01*
X20903877Y-13671774D02*
X20913401Y-13690822D01*
X20913401Y-13690822D02*
X20913401Y-13795584D01*
X20913401Y-13690822D02*
X20922925Y-13671774D01*
X20922925Y-13671774D02*
X20941972Y-13662250D01*
X20941972Y-13662250D02*
X20970544Y-13662250D01*
X20970544Y-13662250D02*
X20989591Y-13671774D01*
X20989591Y-13671774D02*
X20999115Y-13690822D01*
X20999115Y-13690822D02*
X20999115Y-13795584D01*
X21389591Y-13586060D02*
X21218163Y-13843203D01*
X21646734Y-13595584D02*
X21665782Y-13595584D01*
X21665782Y-13595584D02*
X21684829Y-13605108D01*
X21684829Y-13605108D02*
X21694353Y-13614631D01*
X21694353Y-13614631D02*
X21703877Y-13633679D01*
X21703877Y-13633679D02*
X21713401Y-13671774D01*
X21713401Y-13671774D02*
X21713401Y-13719393D01*
X21713401Y-13719393D02*
X21703877Y-13757488D01*
X21703877Y-13757488D02*
X21694353Y-13776536D01*
X21694353Y-13776536D02*
X21684829Y-13786060D01*
X21684829Y-13786060D02*
X21665782Y-13795584D01*
X21665782Y-13795584D02*
X21646734Y-13795584D01*
X21646734Y-13795584D02*
X21627687Y-13786060D01*
X21627687Y-13786060D02*
X21618163Y-13776536D01*
X21618163Y-13776536D02*
X21608639Y-13757488D01*
X21608639Y-13757488D02*
X21599115Y-13719393D01*
X21599115Y-13719393D02*
X21599115Y-13671774D01*
X21599115Y-13671774D02*
X21608639Y-13633679D01*
X21608639Y-13633679D02*
X21618163Y-13614631D01*
X21618163Y-13614631D02*
X21627687Y-13605108D01*
X21627687Y-13605108D02*
X21646734Y-13595584D01*
X21799115Y-13776536D02*
X21808639Y-13786060D01*
X21808639Y-13786060D02*
X21799115Y-13795584D01*
X21799115Y-13795584D02*
X21789591Y-13786060D01*
X21789591Y-13786060D02*
X21799115Y-13776536D01*
X21799115Y-13776536D02*
X21799115Y-13795584D01*
X21932448Y-13595584D02*
X21951496Y-13595584D01*
X21951496Y-13595584D02*
X21970544Y-13605108D01*
X21970544Y-13605108D02*
X21980068Y-13614631D01*
X21980068Y-13614631D02*
X21989591Y-13633679D01*
X21989591Y-13633679D02*
X21999115Y-13671774D01*
X21999115Y-13671774D02*
X21999115Y-13719393D01*
X21999115Y-13719393D02*
X21989591Y-13757488D01*
X21989591Y-13757488D02*
X21980068Y-13776536D01*
X21980068Y-13776536D02*
X21970544Y-13786060D01*
X21970544Y-13786060D02*
X21951496Y-13795584D01*
X21951496Y-13795584D02*
X21932448Y-13795584D01*
X21932448Y-13795584D02*
X21913401Y-13786060D01*
X21913401Y-13786060D02*
X21903877Y-13776536D01*
X21903877Y-13776536D02*
X21894353Y-13757488D01*
X21894353Y-13757488D02*
X21884829Y-13719393D01*
X21884829Y-13719393D02*
X21884829Y-13671774D01*
X21884829Y-13671774D02*
X21894353Y-13633679D01*
X21894353Y-13633679D02*
X21903877Y-13614631D01*
X21903877Y-13614631D02*
X21913401Y-13605108D01*
X21913401Y-13605108D02*
X21932448Y-13595584D01*
X22189591Y-13795584D02*
X22075306Y-13795584D01*
X22132448Y-13795584D02*
X22132448Y-13595584D01*
X22132448Y-13595584D02*
X22113401Y-13624155D01*
X22113401Y-13624155D02*
X22094353Y-13643203D01*
X22094353Y-13643203D02*
X22075306Y-13652727D01*
X22284829Y-13795584D02*
X22322925Y-13795584D01*
X22322925Y-13795584D02*
X22341972Y-13786060D01*
X22341972Y-13786060D02*
X22351496Y-13776536D01*
X22351496Y-13776536D02*
X22370544Y-13747965D01*
X22370544Y-13747965D02*
X22380067Y-13709869D01*
X22380067Y-13709869D02*
X22380067Y-13633679D01*
X22380067Y-13633679D02*
X22370544Y-13614631D01*
X22370544Y-13614631D02*
X22361020Y-13605108D01*
X22361020Y-13605108D02*
X22341972Y-13595584D01*
X22341972Y-13595584D02*
X22303877Y-13595584D01*
X22303877Y-13595584D02*
X22284829Y-13605108D01*
X22284829Y-13605108D02*
X22275306Y-13614631D01*
X22275306Y-13614631D02*
X22265782Y-13633679D01*
X22265782Y-13633679D02*
X22265782Y-13681298D01*
X22265782Y-13681298D02*
X22275306Y-13700346D01*
X22275306Y-13700346D02*
X22284829Y-13709869D01*
X22284829Y-13709869D02*
X22303877Y-13719393D01*
X22303877Y-13719393D02*
X22341972Y-13719393D01*
X22341972Y-13719393D02*
X22361020Y-13709869D01*
X22361020Y-13709869D02*
X22370544Y-13700346D01*
X22370544Y-13700346D02*
X22380067Y-13681298D01*
X22446734Y-13595584D02*
X22580067Y-13595584D01*
X22580067Y-13595584D02*
X22494353Y-13795584D01*
X22646734Y-13595584D02*
X22646734Y-13633679D01*
X22722925Y-13595584D02*
X22722925Y-13633679D01*
X23018163Y-13871774D02*
X23008639Y-13862250D01*
X23008639Y-13862250D02*
X22989591Y-13833679D01*
X22989591Y-13833679D02*
X22980068Y-13814631D01*
X22980068Y-13814631D02*
X22970544Y-13786060D01*
X22970544Y-13786060D02*
X22961020Y-13738441D01*
X22961020Y-13738441D02*
X22961020Y-13700346D01*
X22961020Y-13700346D02*
X22970544Y-13652727D01*
X22970544Y-13652727D02*
X22980068Y-13624155D01*
X22980068Y-13624155D02*
X22989591Y-13605108D01*
X22989591Y-13605108D02*
X23008639Y-13576536D01*
X23008639Y-13576536D02*
X23018163Y-13567012D01*
X23180068Y-13662250D02*
X23180068Y-13795584D01*
X23132448Y-13586060D02*
X23084829Y-13728917D01*
X23084829Y-13728917D02*
X23208639Y-13728917D01*
X23370544Y-13662250D02*
X23370544Y-13795584D01*
X23322925Y-13586060D02*
X23275306Y-13728917D01*
X23275306Y-13728917D02*
X23399115Y-13728917D01*
X23627687Y-13795584D02*
X23627687Y-13595584D01*
X23713401Y-13795584D02*
X23713401Y-13690822D01*
X23713401Y-13690822D02*
X23703877Y-13671774D01*
X23703877Y-13671774D02*
X23684830Y-13662250D01*
X23684830Y-13662250D02*
X23656258Y-13662250D01*
X23656258Y-13662250D02*
X23637210Y-13671774D01*
X23637210Y-13671774D02*
X23627687Y-13681298D01*
X23837210Y-13795584D02*
X23818163Y-13786060D01*
X23818163Y-13786060D02*
X23808639Y-13776536D01*
X23808639Y-13776536D02*
X23799115Y-13757488D01*
X23799115Y-13757488D02*
X23799115Y-13700346D01*
X23799115Y-13700346D02*
X23808639Y-13681298D01*
X23808639Y-13681298D02*
X23818163Y-13671774D01*
X23818163Y-13671774D02*
X23837210Y-13662250D01*
X23837210Y-13662250D02*
X23865782Y-13662250D01*
X23865782Y-13662250D02*
X23884830Y-13671774D01*
X23884830Y-13671774D02*
X23894353Y-13681298D01*
X23894353Y-13681298D02*
X23903877Y-13700346D01*
X23903877Y-13700346D02*
X23903877Y-13757488D01*
X23903877Y-13757488D02*
X23894353Y-13776536D01*
X23894353Y-13776536D02*
X23884830Y-13786060D01*
X23884830Y-13786060D02*
X23865782Y-13795584D01*
X23865782Y-13795584D02*
X23837210Y-13795584D01*
X24018163Y-13795584D02*
X23999115Y-13786060D01*
X23999115Y-13786060D02*
X23989591Y-13767012D01*
X23989591Y-13767012D02*
X23989591Y-13595584D01*
X24170544Y-13786060D02*
X24151496Y-13795584D01*
X24151496Y-13795584D02*
X24113401Y-13795584D01*
X24113401Y-13795584D02*
X24094353Y-13786060D01*
X24094353Y-13786060D02*
X24084830Y-13767012D01*
X24084830Y-13767012D02*
X24084830Y-13690822D01*
X24084830Y-13690822D02*
X24094353Y-13671774D01*
X24094353Y-13671774D02*
X24113401Y-13662250D01*
X24113401Y-13662250D02*
X24151496Y-13662250D01*
X24151496Y-13662250D02*
X24170544Y-13671774D01*
X24170544Y-13671774D02*
X24180068Y-13690822D01*
X24180068Y-13690822D02*
X24180068Y-13709869D01*
X24180068Y-13709869D02*
X24084830Y-13728917D01*
X24256258Y-13786060D02*
X24275306Y-13795584D01*
X24275306Y-13795584D02*
X24313401Y-13795584D01*
X24313401Y-13795584D02*
X24332449Y-13786060D01*
X24332449Y-13786060D02*
X24341972Y-13767012D01*
X24341972Y-13767012D02*
X24341972Y-13757488D01*
X24341972Y-13757488D02*
X24332449Y-13738441D01*
X24332449Y-13738441D02*
X24313401Y-13728917D01*
X24313401Y-13728917D02*
X24284830Y-13728917D01*
X24284830Y-13728917D02*
X24265782Y-13719393D01*
X24265782Y-13719393D02*
X24256258Y-13700346D01*
X24256258Y-13700346D02*
X24256258Y-13690822D01*
X24256258Y-13690822D02*
X24265782Y-13671774D01*
X24265782Y-13671774D02*
X24284830Y-13662250D01*
X24284830Y-13662250D02*
X24313401Y-13662250D01*
X24313401Y-13662250D02*
X24332449Y-13671774D01*
X24408639Y-13871774D02*
X24418163Y-13862250D01*
X24418163Y-13862250D02*
X24437211Y-13833679D01*
X24437211Y-13833679D02*
X24446734Y-13814631D01*
X24446734Y-13814631D02*
X24456258Y-13786060D01*
X24456258Y-13786060D02*
X24465782Y-13738441D01*
X24465782Y-13738441D02*
X24465782Y-13700346D01*
X24465782Y-13700346D02*
X24456258Y-13652727D01*
X24456258Y-13652727D02*
X24446734Y-13624155D01*
X24446734Y-13624155D02*
X24437211Y-13605108D01*
X24437211Y-13605108D02*
X24418163Y-13576536D01*
X24418163Y-13576536D02*
X24408639Y-13567012D01*
D12*
X19393100Y-13943100D02*
X19443100Y-13993100D01*
X19443100Y-13943100D02*
X19393100Y-13993100D01*
X19443100Y-13968100D02*
G75*
G02*
X19393100Y-13968100I-25000J0D01*
G01*
X19393100Y-13968100D02*
G75*
G02*
X19443100Y-13968100I25000J0D01*
G01*
D11*
X19741972Y-13859584D02*
X19761020Y-13859584D01*
X19761020Y-13859584D02*
X19780067Y-13869108D01*
X19780067Y-13869108D02*
X19789591Y-13878631D01*
X19789591Y-13878631D02*
X19799115Y-13897679D01*
X19799115Y-13897679D02*
X19808639Y-13935774D01*
X19808639Y-13935774D02*
X19808639Y-13983393D01*
X19808639Y-13983393D02*
X19799115Y-14021488D01*
X19799115Y-14021488D02*
X19789591Y-14040536D01*
X19789591Y-14040536D02*
X19780067Y-14050060D01*
X19780067Y-14050060D02*
X19761020Y-14059584D01*
X19761020Y-14059584D02*
X19741972Y-14059584D01*
X19741972Y-14059584D02*
X19722924Y-14050060D01*
X19722924Y-14050060D02*
X19713401Y-14040536D01*
X19713401Y-14040536D02*
X19703877Y-14021488D01*
X19703877Y-14021488D02*
X19694353Y-13983393D01*
X19694353Y-13983393D02*
X19694353Y-13935774D01*
X19694353Y-13935774D02*
X19703877Y-13897679D01*
X19703877Y-13897679D02*
X19713401Y-13878631D01*
X19713401Y-13878631D02*
X19722924Y-13869108D01*
X19722924Y-13869108D02*
X19741972Y-13859584D01*
X19894353Y-14040536D02*
X19903877Y-14050060D01*
X19903877Y-14050060D02*
X19894353Y-14059584D01*
X19894353Y-14059584D02*
X19884829Y-14050060D01*
X19884829Y-14050060D02*
X19894353Y-14040536D01*
X19894353Y-14040536D02*
X19894353Y-14059584D01*
X20084829Y-13859584D02*
X19989591Y-13859584D01*
X19989591Y-13859584D02*
X19980067Y-13954822D01*
X19980067Y-13954822D02*
X19989591Y-13945298D01*
X19989591Y-13945298D02*
X20008639Y-13935774D01*
X20008639Y-13935774D02*
X20056258Y-13935774D01*
X20056258Y-13935774D02*
X20075305Y-13945298D01*
X20075305Y-13945298D02*
X20084829Y-13954822D01*
X20084829Y-13954822D02*
X20094353Y-13973869D01*
X20094353Y-13973869D02*
X20094353Y-14021488D01*
X20094353Y-14021488D02*
X20084829Y-14040536D01*
X20084829Y-14040536D02*
X20075305Y-14050060D01*
X20075305Y-14050060D02*
X20056258Y-14059584D01*
X20056258Y-14059584D02*
X20008639Y-14059584D01*
X20008639Y-14059584D02*
X19989591Y-14050060D01*
X19989591Y-14050060D02*
X19980067Y-14040536D01*
X20218163Y-13859584D02*
X20237210Y-13859584D01*
X20237210Y-13859584D02*
X20256258Y-13869108D01*
X20256258Y-13869108D02*
X20265782Y-13878631D01*
X20265782Y-13878631D02*
X20275305Y-13897679D01*
X20275305Y-13897679D02*
X20284829Y-13935774D01*
X20284829Y-13935774D02*
X20284829Y-13983393D01*
X20284829Y-13983393D02*
X20275305Y-14021488D01*
X20275305Y-14021488D02*
X20265782Y-14040536D01*
X20265782Y-14040536D02*
X20256258Y-14050060D01*
X20256258Y-14050060D02*
X20237210Y-14059584D01*
X20237210Y-14059584D02*
X20218163Y-14059584D01*
X20218163Y-14059584D02*
X20199115Y-14050060D01*
X20199115Y-14050060D02*
X20189591Y-14040536D01*
X20189591Y-14040536D02*
X20180067Y-14021488D01*
X20180067Y-14021488D02*
X20170544Y-13983393D01*
X20170544Y-13983393D02*
X20170544Y-13935774D01*
X20170544Y-13935774D02*
X20180067Y-13897679D01*
X20180067Y-13897679D02*
X20189591Y-13878631D01*
X20189591Y-13878631D02*
X20199115Y-13869108D01*
X20199115Y-13869108D02*
X20218163Y-13859584D01*
X20408639Y-13859584D02*
X20427686Y-13859584D01*
X20427686Y-13859584D02*
X20446734Y-13869108D01*
X20446734Y-13869108D02*
X20456258Y-13878631D01*
X20456258Y-13878631D02*
X20465782Y-13897679D01*
X20465782Y-13897679D02*
X20475305Y-13935774D01*
X20475305Y-13935774D02*
X20475305Y-13983393D01*
X20475305Y-13983393D02*
X20465782Y-14021488D01*
X20465782Y-14021488D02*
X20456258Y-14040536D01*
X20456258Y-14040536D02*
X20446734Y-14050060D01*
X20446734Y-14050060D02*
X20427686Y-14059584D01*
X20427686Y-14059584D02*
X20408639Y-14059584D01*
X20408639Y-14059584D02*
X20389591Y-14050060D01*
X20389591Y-14050060D02*
X20380067Y-14040536D01*
X20380067Y-14040536D02*
X20370544Y-14021488D01*
X20370544Y-14021488D02*
X20361020Y-13983393D01*
X20361020Y-13983393D02*
X20361020Y-13935774D01*
X20361020Y-13935774D02*
X20370544Y-13897679D01*
X20370544Y-13897679D02*
X20380067Y-13878631D01*
X20380067Y-13878631D02*
X20389591Y-13869108D01*
X20389591Y-13869108D02*
X20408639Y-13859584D01*
X20561020Y-14059584D02*
X20561020Y-13926250D01*
X20561020Y-13945298D02*
X20570544Y-13935774D01*
X20570544Y-13935774D02*
X20589591Y-13926250D01*
X20589591Y-13926250D02*
X20618163Y-13926250D01*
X20618163Y-13926250D02*
X20637210Y-13935774D01*
X20637210Y-13935774D02*
X20646734Y-13954822D01*
X20646734Y-13954822D02*
X20646734Y-14059584D01*
X20646734Y-13954822D02*
X20656258Y-13935774D01*
X20656258Y-13935774D02*
X20675305Y-13926250D01*
X20675305Y-13926250D02*
X20703877Y-13926250D01*
X20703877Y-13926250D02*
X20722925Y-13935774D01*
X20722925Y-13935774D02*
X20732448Y-13954822D01*
X20732448Y-13954822D02*
X20732448Y-14059584D01*
X20827686Y-14059584D02*
X20827686Y-13926250D01*
X20827686Y-13945298D02*
X20837210Y-13935774D01*
X20837210Y-13935774D02*
X20856258Y-13926250D01*
X20856258Y-13926250D02*
X20884829Y-13926250D01*
X20884829Y-13926250D02*
X20903877Y-13935774D01*
X20903877Y-13935774D02*
X20913401Y-13954822D01*
X20913401Y-13954822D02*
X20913401Y-14059584D01*
X20913401Y-13954822D02*
X20922925Y-13935774D01*
X20922925Y-13935774D02*
X20941972Y-13926250D01*
X20941972Y-13926250D02*
X20970544Y-13926250D01*
X20970544Y-13926250D02*
X20989591Y-13935774D01*
X20989591Y-13935774D02*
X20999115Y-13954822D01*
X20999115Y-13954822D02*
X20999115Y-14059584D01*
X21389591Y-13850060D02*
X21218163Y-14107203D01*
X21646734Y-13859584D02*
X21665782Y-13859584D01*
X21665782Y-13859584D02*
X21684829Y-13869108D01*
X21684829Y-13869108D02*
X21694353Y-13878631D01*
X21694353Y-13878631D02*
X21703877Y-13897679D01*
X21703877Y-13897679D02*
X21713401Y-13935774D01*
X21713401Y-13935774D02*
X21713401Y-13983393D01*
X21713401Y-13983393D02*
X21703877Y-14021488D01*
X21703877Y-14021488D02*
X21694353Y-14040536D01*
X21694353Y-14040536D02*
X21684829Y-14050060D01*
X21684829Y-14050060D02*
X21665782Y-14059584D01*
X21665782Y-14059584D02*
X21646734Y-14059584D01*
X21646734Y-14059584D02*
X21627687Y-14050060D01*
X21627687Y-14050060D02*
X21618163Y-14040536D01*
X21618163Y-14040536D02*
X21608639Y-14021488D01*
X21608639Y-14021488D02*
X21599115Y-13983393D01*
X21599115Y-13983393D02*
X21599115Y-13935774D01*
X21599115Y-13935774D02*
X21608639Y-13897679D01*
X21608639Y-13897679D02*
X21618163Y-13878631D01*
X21618163Y-13878631D02*
X21627687Y-13869108D01*
X21627687Y-13869108D02*
X21646734Y-13859584D01*
X21799115Y-14040536D02*
X21808639Y-14050060D01*
X21808639Y-14050060D02*
X21799115Y-14059584D01*
X21799115Y-14059584D02*
X21789591Y-14050060D01*
X21789591Y-14050060D02*
X21799115Y-14040536D01*
X21799115Y-14040536D02*
X21799115Y-14059584D01*
X21932448Y-13859584D02*
X21951496Y-13859584D01*
X21951496Y-13859584D02*
X21970544Y-13869108D01*
X21970544Y-13869108D02*
X21980068Y-13878631D01*
X21980068Y-13878631D02*
X21989591Y-13897679D01*
X21989591Y-13897679D02*
X21999115Y-13935774D01*
X21999115Y-13935774D02*
X21999115Y-13983393D01*
X21999115Y-13983393D02*
X21989591Y-14021488D01*
X21989591Y-14021488D02*
X21980068Y-14040536D01*
X21980068Y-14040536D02*
X21970544Y-14050060D01*
X21970544Y-14050060D02*
X21951496Y-14059584D01*
X21951496Y-14059584D02*
X21932448Y-14059584D01*
X21932448Y-14059584D02*
X21913401Y-14050060D01*
X21913401Y-14050060D02*
X21903877Y-14040536D01*
X21903877Y-14040536D02*
X21894353Y-14021488D01*
X21894353Y-14021488D02*
X21884829Y-13983393D01*
X21884829Y-13983393D02*
X21884829Y-13935774D01*
X21884829Y-13935774D02*
X21894353Y-13897679D01*
X21894353Y-13897679D02*
X21903877Y-13878631D01*
X21903877Y-13878631D02*
X21913401Y-13869108D01*
X21913401Y-13869108D02*
X21932448Y-13859584D01*
X22189591Y-14059584D02*
X22075306Y-14059584D01*
X22132448Y-14059584D02*
X22132448Y-13859584D01*
X22132448Y-13859584D02*
X22113401Y-13888155D01*
X22113401Y-13888155D02*
X22094353Y-13907203D01*
X22094353Y-13907203D02*
X22075306Y-13916727D01*
X22284829Y-14059584D02*
X22322925Y-14059584D01*
X22322925Y-14059584D02*
X22341972Y-14050060D01*
X22341972Y-14050060D02*
X22351496Y-14040536D01*
X22351496Y-14040536D02*
X22370544Y-14011965D01*
X22370544Y-14011965D02*
X22380067Y-13973869D01*
X22380067Y-13973869D02*
X22380067Y-13897679D01*
X22380067Y-13897679D02*
X22370544Y-13878631D01*
X22370544Y-13878631D02*
X22361020Y-13869108D01*
X22361020Y-13869108D02*
X22341972Y-13859584D01*
X22341972Y-13859584D02*
X22303877Y-13859584D01*
X22303877Y-13859584D02*
X22284829Y-13869108D01*
X22284829Y-13869108D02*
X22275306Y-13878631D01*
X22275306Y-13878631D02*
X22265782Y-13897679D01*
X22265782Y-13897679D02*
X22265782Y-13945298D01*
X22265782Y-13945298D02*
X22275306Y-13964346D01*
X22275306Y-13964346D02*
X22284829Y-13973869D01*
X22284829Y-13973869D02*
X22303877Y-13983393D01*
X22303877Y-13983393D02*
X22341972Y-13983393D01*
X22341972Y-13983393D02*
X22361020Y-13973869D01*
X22361020Y-13973869D02*
X22370544Y-13964346D01*
X22370544Y-13964346D02*
X22380067Y-13945298D01*
X22446734Y-13859584D02*
X22580067Y-13859584D01*
X22580067Y-13859584D02*
X22494353Y-14059584D01*
X22646734Y-13859584D02*
X22646734Y-13897679D01*
X22722925Y-13859584D02*
X22722925Y-13897679D01*
X23018163Y-14135774D02*
X23008639Y-14126250D01*
X23008639Y-14126250D02*
X22989591Y-14097679D01*
X22989591Y-14097679D02*
X22980068Y-14078631D01*
X22980068Y-14078631D02*
X22970544Y-14050060D01*
X22970544Y-14050060D02*
X22961020Y-14002441D01*
X22961020Y-14002441D02*
X22961020Y-13964346D01*
X22961020Y-13964346D02*
X22970544Y-13916727D01*
X22970544Y-13916727D02*
X22980068Y-13888155D01*
X22980068Y-13888155D02*
X22989591Y-13869108D01*
X22989591Y-13869108D02*
X23008639Y-13840536D01*
X23008639Y-13840536D02*
X23018163Y-13831012D01*
X23132448Y-13859584D02*
X23151496Y-13859584D01*
X23151496Y-13859584D02*
X23170544Y-13869108D01*
X23170544Y-13869108D02*
X23180068Y-13878631D01*
X23180068Y-13878631D02*
X23189591Y-13897679D01*
X23189591Y-13897679D02*
X23199115Y-13935774D01*
X23199115Y-13935774D02*
X23199115Y-13983393D01*
X23199115Y-13983393D02*
X23189591Y-14021488D01*
X23189591Y-14021488D02*
X23180068Y-14040536D01*
X23180068Y-14040536D02*
X23170544Y-14050060D01*
X23170544Y-14050060D02*
X23151496Y-14059584D01*
X23151496Y-14059584D02*
X23132448Y-14059584D01*
X23132448Y-14059584D02*
X23113401Y-14050060D01*
X23113401Y-14050060D02*
X23103877Y-14040536D01*
X23103877Y-14040536D02*
X23094353Y-14021488D01*
X23094353Y-14021488D02*
X23084829Y-13983393D01*
X23084829Y-13983393D02*
X23084829Y-13935774D01*
X23084829Y-13935774D02*
X23094353Y-13897679D01*
X23094353Y-13897679D02*
X23103877Y-13878631D01*
X23103877Y-13878631D02*
X23113401Y-13869108D01*
X23113401Y-13869108D02*
X23132448Y-13859584D01*
X23437210Y-14059584D02*
X23437210Y-13859584D01*
X23522925Y-14059584D02*
X23522925Y-13954822D01*
X23522925Y-13954822D02*
X23513401Y-13935774D01*
X23513401Y-13935774D02*
X23494353Y-13926250D01*
X23494353Y-13926250D02*
X23465782Y-13926250D01*
X23465782Y-13926250D02*
X23446734Y-13935774D01*
X23446734Y-13935774D02*
X23437210Y-13945298D01*
X23646734Y-14059584D02*
X23627687Y-14050060D01*
X23627687Y-14050060D02*
X23618163Y-14040536D01*
X23618163Y-14040536D02*
X23608639Y-14021488D01*
X23608639Y-14021488D02*
X23608639Y-13964346D01*
X23608639Y-13964346D02*
X23618163Y-13945298D01*
X23618163Y-13945298D02*
X23627687Y-13935774D01*
X23627687Y-13935774D02*
X23646734Y-13926250D01*
X23646734Y-13926250D02*
X23675306Y-13926250D01*
X23675306Y-13926250D02*
X23694353Y-13935774D01*
X23694353Y-13935774D02*
X23703877Y-13945298D01*
X23703877Y-13945298D02*
X23713401Y-13964346D01*
X23713401Y-13964346D02*
X23713401Y-14021488D01*
X23713401Y-14021488D02*
X23703877Y-14040536D01*
X23703877Y-14040536D02*
X23694353Y-14050060D01*
X23694353Y-14050060D02*
X23675306Y-14059584D01*
X23675306Y-14059584D02*
X23646734Y-14059584D01*
X23827687Y-14059584D02*
X23808639Y-14050060D01*
X23808639Y-14050060D02*
X23799115Y-14031012D01*
X23799115Y-14031012D02*
X23799115Y-13859584D01*
X23980068Y-14050060D02*
X23961020Y-14059584D01*
X23961020Y-14059584D02*
X23922925Y-14059584D01*
X23922925Y-14059584D02*
X23903877Y-14050060D01*
X23903877Y-14050060D02*
X23894353Y-14031012D01*
X23894353Y-14031012D02*
X23894353Y-13954822D01*
X23894353Y-13954822D02*
X23903877Y-13935774D01*
X23903877Y-13935774D02*
X23922925Y-13926250D01*
X23922925Y-13926250D02*
X23961020Y-13926250D01*
X23961020Y-13926250D02*
X23980068Y-13935774D01*
X23980068Y-13935774D02*
X23989591Y-13954822D01*
X23989591Y-13954822D02*
X23989591Y-13973869D01*
X23989591Y-13973869D02*
X23894353Y-13992917D01*
X24065782Y-14050060D02*
X24084830Y-14059584D01*
X24084830Y-14059584D02*
X24122925Y-14059584D01*
X24122925Y-14059584D02*
X24141972Y-14050060D01*
X24141972Y-14050060D02*
X24151496Y-14031012D01*
X24151496Y-14031012D02*
X24151496Y-14021488D01*
X24151496Y-14021488D02*
X24141972Y-14002441D01*
X24141972Y-14002441D02*
X24122925Y-13992917D01*
X24122925Y-13992917D02*
X24094353Y-13992917D01*
X24094353Y-13992917D02*
X24075306Y-13983393D01*
X24075306Y-13983393D02*
X24065782Y-13964346D01*
X24065782Y-13964346D02*
X24065782Y-13954822D01*
X24065782Y-13954822D02*
X24075306Y-13935774D01*
X24075306Y-13935774D02*
X24094353Y-13926250D01*
X24094353Y-13926250D02*
X24122925Y-13926250D01*
X24122925Y-13926250D02*
X24141972Y-13935774D01*
X24389592Y-13983393D02*
X24541973Y-13983393D01*
X24465782Y-14059584D02*
X24465782Y-13907203D01*
X24875306Y-13926250D02*
X24875306Y-14059584D01*
X24827687Y-13850060D02*
X24780068Y-13992917D01*
X24780068Y-13992917D02*
X24903877Y-13992917D01*
X25122925Y-14050060D02*
X25141973Y-14059584D01*
X25141973Y-14059584D02*
X25180068Y-14059584D01*
X25180068Y-14059584D02*
X25199115Y-14050060D01*
X25199115Y-14050060D02*
X25208639Y-14031012D01*
X25208639Y-14031012D02*
X25208639Y-14021488D01*
X25208639Y-14021488D02*
X25199115Y-14002441D01*
X25199115Y-14002441D02*
X25180068Y-13992917D01*
X25180068Y-13992917D02*
X25151496Y-13992917D01*
X25151496Y-13992917D02*
X25132449Y-13983393D01*
X25132449Y-13983393D02*
X25122925Y-13964346D01*
X25122925Y-13964346D02*
X25122925Y-13954822D01*
X25122925Y-13954822D02*
X25132449Y-13935774D01*
X25132449Y-13935774D02*
X25151496Y-13926250D01*
X25151496Y-13926250D02*
X25180068Y-13926250D01*
X25180068Y-13926250D02*
X25199115Y-13935774D01*
X25322925Y-14059584D02*
X25303877Y-14050060D01*
X25303877Y-14050060D02*
X25294354Y-14031012D01*
X25294354Y-14031012D02*
X25294354Y-13859584D01*
X25427687Y-14059584D02*
X25408639Y-14050060D01*
X25408639Y-14050060D02*
X25399115Y-14040536D01*
X25399115Y-14040536D02*
X25389592Y-14021488D01*
X25389592Y-14021488D02*
X25389592Y-13964346D01*
X25389592Y-13964346D02*
X25399115Y-13945298D01*
X25399115Y-13945298D02*
X25408639Y-13935774D01*
X25408639Y-13935774D02*
X25427687Y-13926250D01*
X25427687Y-13926250D02*
X25456258Y-13926250D01*
X25456258Y-13926250D02*
X25475306Y-13935774D01*
X25475306Y-13935774D02*
X25484830Y-13945298D01*
X25484830Y-13945298D02*
X25494354Y-13964346D01*
X25494354Y-13964346D02*
X25494354Y-14021488D01*
X25494354Y-14021488D02*
X25484830Y-14040536D01*
X25484830Y-14040536D02*
X25475306Y-14050060D01*
X25475306Y-14050060D02*
X25456258Y-14059584D01*
X25456258Y-14059584D02*
X25427687Y-14059584D01*
X25551496Y-13926250D02*
X25627687Y-13926250D01*
X25580068Y-13859584D02*
X25580068Y-14031012D01*
X25580068Y-14031012D02*
X25589592Y-14050060D01*
X25589592Y-14050060D02*
X25608639Y-14059584D01*
X25608639Y-14059584D02*
X25627687Y-14059584D01*
X25684830Y-14050060D02*
X25703877Y-14059584D01*
X25703877Y-14059584D02*
X25741973Y-14059584D01*
X25741973Y-14059584D02*
X25761020Y-14050060D01*
X25761020Y-14050060D02*
X25770544Y-14031012D01*
X25770544Y-14031012D02*
X25770544Y-14021488D01*
X25770544Y-14021488D02*
X25761020Y-14002441D01*
X25761020Y-14002441D02*
X25741973Y-13992917D01*
X25741973Y-13992917D02*
X25713401Y-13992917D01*
X25713401Y-13992917D02*
X25694354Y-13983393D01*
X25694354Y-13983393D02*
X25684830Y-13964346D01*
X25684830Y-13964346D02*
X25684830Y-13954822D01*
X25684830Y-13954822D02*
X25694354Y-13935774D01*
X25694354Y-13935774D02*
X25713401Y-13926250D01*
X25713401Y-13926250D02*
X25741973Y-13926250D01*
X25741973Y-13926250D02*
X25761020Y-13935774D01*
X25837211Y-14135774D02*
X25846735Y-14126250D01*
X25846735Y-14126250D02*
X25865782Y-14097679D01*
X25865782Y-14097679D02*
X25875306Y-14078631D01*
X25875306Y-14078631D02*
X25884830Y-14050060D01*
X25884830Y-14050060D02*
X25894354Y-14002441D01*
X25894354Y-14002441D02*
X25894354Y-13964346D01*
X25894354Y-13964346D02*
X25884830Y-13916727D01*
X25884830Y-13916727D02*
X25875306Y-13888155D01*
X25875306Y-13888155D02*
X25865782Y-13869108D01*
X25865782Y-13869108D02*
X25846735Y-13840536D01*
X25846735Y-13840536D02*
X25837211Y-13831012D01*
D12*
X19373100Y-14197100D02*
X19443100Y-14267100D01*
X19443100Y-14197100D02*
X19373100Y-14267100D01*
X19408100Y-14197100D02*
X19408100Y-14267100D01*
X19373100Y-14232100D02*
X19443100Y-14232100D01*
D11*
X19741972Y-14123584D02*
X19761020Y-14123584D01*
X19761020Y-14123584D02*
X19780067Y-14133108D01*
X19780067Y-14133108D02*
X19789591Y-14142631D01*
X19789591Y-14142631D02*
X19799115Y-14161679D01*
X19799115Y-14161679D02*
X19808639Y-14199774D01*
X19808639Y-14199774D02*
X19808639Y-14247393D01*
X19808639Y-14247393D02*
X19799115Y-14285488D01*
X19799115Y-14285488D02*
X19789591Y-14304536D01*
X19789591Y-14304536D02*
X19780067Y-14314060D01*
X19780067Y-14314060D02*
X19761020Y-14323584D01*
X19761020Y-14323584D02*
X19741972Y-14323584D01*
X19741972Y-14323584D02*
X19722924Y-14314060D01*
X19722924Y-14314060D02*
X19713401Y-14304536D01*
X19713401Y-14304536D02*
X19703877Y-14285488D01*
X19703877Y-14285488D02*
X19694353Y-14247393D01*
X19694353Y-14247393D02*
X19694353Y-14199774D01*
X19694353Y-14199774D02*
X19703877Y-14161679D01*
X19703877Y-14161679D02*
X19713401Y-14142631D01*
X19713401Y-14142631D02*
X19722924Y-14133108D01*
X19722924Y-14133108D02*
X19741972Y-14123584D01*
X19894353Y-14304536D02*
X19903877Y-14314060D01*
X19903877Y-14314060D02*
X19894353Y-14323584D01*
X19894353Y-14323584D02*
X19884829Y-14314060D01*
X19884829Y-14314060D02*
X19894353Y-14304536D01*
X19894353Y-14304536D02*
X19894353Y-14323584D01*
X19970544Y-14123584D02*
X20103877Y-14123584D01*
X20103877Y-14123584D02*
X20018163Y-14323584D01*
X20218163Y-14123584D02*
X20237210Y-14123584D01*
X20237210Y-14123584D02*
X20256258Y-14133108D01*
X20256258Y-14133108D02*
X20265782Y-14142631D01*
X20265782Y-14142631D02*
X20275305Y-14161679D01*
X20275305Y-14161679D02*
X20284829Y-14199774D01*
X20284829Y-14199774D02*
X20284829Y-14247393D01*
X20284829Y-14247393D02*
X20275305Y-14285488D01*
X20275305Y-14285488D02*
X20265782Y-14304536D01*
X20265782Y-14304536D02*
X20256258Y-14314060D01*
X20256258Y-14314060D02*
X20237210Y-14323584D01*
X20237210Y-14323584D02*
X20218163Y-14323584D01*
X20218163Y-14323584D02*
X20199115Y-14314060D01*
X20199115Y-14314060D02*
X20189591Y-14304536D01*
X20189591Y-14304536D02*
X20180067Y-14285488D01*
X20180067Y-14285488D02*
X20170544Y-14247393D01*
X20170544Y-14247393D02*
X20170544Y-14199774D01*
X20170544Y-14199774D02*
X20180067Y-14161679D01*
X20180067Y-14161679D02*
X20189591Y-14142631D01*
X20189591Y-14142631D02*
X20199115Y-14133108D01*
X20199115Y-14133108D02*
X20218163Y-14123584D01*
X20408639Y-14123584D02*
X20427686Y-14123584D01*
X20427686Y-14123584D02*
X20446734Y-14133108D01*
X20446734Y-14133108D02*
X20456258Y-14142631D01*
X20456258Y-14142631D02*
X20465782Y-14161679D01*
X20465782Y-14161679D02*
X20475305Y-14199774D01*
X20475305Y-14199774D02*
X20475305Y-14247393D01*
X20475305Y-14247393D02*
X20465782Y-14285488D01*
X20465782Y-14285488D02*
X20456258Y-14304536D01*
X20456258Y-14304536D02*
X20446734Y-14314060D01*
X20446734Y-14314060D02*
X20427686Y-14323584D01*
X20427686Y-14323584D02*
X20408639Y-14323584D01*
X20408639Y-14323584D02*
X20389591Y-14314060D01*
X20389591Y-14314060D02*
X20380067Y-14304536D01*
X20380067Y-14304536D02*
X20370544Y-14285488D01*
X20370544Y-14285488D02*
X20361020Y-14247393D01*
X20361020Y-14247393D02*
X20361020Y-14199774D01*
X20361020Y-14199774D02*
X20370544Y-14161679D01*
X20370544Y-14161679D02*
X20380067Y-14142631D01*
X20380067Y-14142631D02*
X20389591Y-14133108D01*
X20389591Y-14133108D02*
X20408639Y-14123584D01*
X20561020Y-14323584D02*
X20561020Y-14190250D01*
X20561020Y-14209298D02*
X20570544Y-14199774D01*
X20570544Y-14199774D02*
X20589591Y-14190250D01*
X20589591Y-14190250D02*
X20618163Y-14190250D01*
X20618163Y-14190250D02*
X20637210Y-14199774D01*
X20637210Y-14199774D02*
X20646734Y-14218822D01*
X20646734Y-14218822D02*
X20646734Y-14323584D01*
X20646734Y-14218822D02*
X20656258Y-14199774D01*
X20656258Y-14199774D02*
X20675305Y-14190250D01*
X20675305Y-14190250D02*
X20703877Y-14190250D01*
X20703877Y-14190250D02*
X20722925Y-14199774D01*
X20722925Y-14199774D02*
X20732448Y-14218822D01*
X20732448Y-14218822D02*
X20732448Y-14323584D01*
X20827686Y-14323584D02*
X20827686Y-14190250D01*
X20827686Y-14209298D02*
X20837210Y-14199774D01*
X20837210Y-14199774D02*
X20856258Y-14190250D01*
X20856258Y-14190250D02*
X20884829Y-14190250D01*
X20884829Y-14190250D02*
X20903877Y-14199774D01*
X20903877Y-14199774D02*
X20913401Y-14218822D01*
X20913401Y-14218822D02*
X20913401Y-14323584D01*
X20913401Y-14218822D02*
X20922925Y-14199774D01*
X20922925Y-14199774D02*
X20941972Y-14190250D01*
X20941972Y-14190250D02*
X20970544Y-14190250D01*
X20970544Y-14190250D02*
X20989591Y-14199774D01*
X20989591Y-14199774D02*
X20999115Y-14218822D01*
X20999115Y-14218822D02*
X20999115Y-14323584D01*
X21389591Y-14114060D02*
X21218163Y-14371203D01*
X21646734Y-14123584D02*
X21665782Y-14123584D01*
X21665782Y-14123584D02*
X21684829Y-14133108D01*
X21684829Y-14133108D02*
X21694353Y-14142631D01*
X21694353Y-14142631D02*
X21703877Y-14161679D01*
X21703877Y-14161679D02*
X21713401Y-14199774D01*
X21713401Y-14199774D02*
X21713401Y-14247393D01*
X21713401Y-14247393D02*
X21703877Y-14285488D01*
X21703877Y-14285488D02*
X21694353Y-14304536D01*
X21694353Y-14304536D02*
X21684829Y-14314060D01*
X21684829Y-14314060D02*
X21665782Y-14323584D01*
X21665782Y-14323584D02*
X21646734Y-14323584D01*
X21646734Y-14323584D02*
X21627687Y-14314060D01*
X21627687Y-14314060D02*
X21618163Y-14304536D01*
X21618163Y-14304536D02*
X21608639Y-14285488D01*
X21608639Y-14285488D02*
X21599115Y-14247393D01*
X21599115Y-14247393D02*
X21599115Y-14199774D01*
X21599115Y-14199774D02*
X21608639Y-14161679D01*
X21608639Y-14161679D02*
X21618163Y-14142631D01*
X21618163Y-14142631D02*
X21627687Y-14133108D01*
X21627687Y-14133108D02*
X21646734Y-14123584D01*
X21799115Y-14304536D02*
X21808639Y-14314060D01*
X21808639Y-14314060D02*
X21799115Y-14323584D01*
X21799115Y-14323584D02*
X21789591Y-14314060D01*
X21789591Y-14314060D02*
X21799115Y-14304536D01*
X21799115Y-14304536D02*
X21799115Y-14323584D01*
X21932448Y-14123584D02*
X21951496Y-14123584D01*
X21951496Y-14123584D02*
X21970544Y-14133108D01*
X21970544Y-14133108D02*
X21980068Y-14142631D01*
X21980068Y-14142631D02*
X21989591Y-14161679D01*
X21989591Y-14161679D02*
X21999115Y-14199774D01*
X21999115Y-14199774D02*
X21999115Y-14247393D01*
X21999115Y-14247393D02*
X21989591Y-14285488D01*
X21989591Y-14285488D02*
X21980068Y-14304536D01*
X21980068Y-14304536D02*
X21970544Y-14314060D01*
X21970544Y-14314060D02*
X21951496Y-14323584D01*
X21951496Y-14323584D02*
X21932448Y-14323584D01*
X21932448Y-14323584D02*
X21913401Y-14314060D01*
X21913401Y-14314060D02*
X21903877Y-14304536D01*
X21903877Y-14304536D02*
X21894353Y-14285488D01*
X21894353Y-14285488D02*
X21884829Y-14247393D01*
X21884829Y-14247393D02*
X21884829Y-14199774D01*
X21884829Y-14199774D02*
X21894353Y-14161679D01*
X21894353Y-14161679D02*
X21903877Y-14142631D01*
X21903877Y-14142631D02*
X21913401Y-14133108D01*
X21913401Y-14133108D02*
X21932448Y-14123584D01*
X22075306Y-14142631D02*
X22084829Y-14133108D01*
X22084829Y-14133108D02*
X22103877Y-14123584D01*
X22103877Y-14123584D02*
X22151496Y-14123584D01*
X22151496Y-14123584D02*
X22170544Y-14133108D01*
X22170544Y-14133108D02*
X22180068Y-14142631D01*
X22180068Y-14142631D02*
X22189591Y-14161679D01*
X22189591Y-14161679D02*
X22189591Y-14180727D01*
X22189591Y-14180727D02*
X22180068Y-14209298D01*
X22180068Y-14209298D02*
X22065782Y-14323584D01*
X22065782Y-14323584D02*
X22189591Y-14323584D01*
X22256258Y-14123584D02*
X22389591Y-14123584D01*
X22389591Y-14123584D02*
X22303877Y-14323584D01*
X22551496Y-14123584D02*
X22513401Y-14123584D01*
X22513401Y-14123584D02*
X22494353Y-14133108D01*
X22494353Y-14133108D02*
X22484829Y-14142631D01*
X22484829Y-14142631D02*
X22465782Y-14171203D01*
X22465782Y-14171203D02*
X22456258Y-14209298D01*
X22456258Y-14209298D02*
X22456258Y-14285488D01*
X22456258Y-14285488D02*
X22465782Y-14304536D01*
X22465782Y-14304536D02*
X22475306Y-14314060D01*
X22475306Y-14314060D02*
X22494353Y-14323584D01*
X22494353Y-14323584D02*
X22532448Y-14323584D01*
X22532448Y-14323584D02*
X22551496Y-14314060D01*
X22551496Y-14314060D02*
X22561020Y-14304536D01*
X22561020Y-14304536D02*
X22570544Y-14285488D01*
X22570544Y-14285488D02*
X22570544Y-14237869D01*
X22570544Y-14237869D02*
X22561020Y-14218822D01*
X22561020Y-14218822D02*
X22551496Y-14209298D01*
X22551496Y-14209298D02*
X22532448Y-14199774D01*
X22532448Y-14199774D02*
X22494353Y-14199774D01*
X22494353Y-14199774D02*
X22475306Y-14209298D01*
X22475306Y-14209298D02*
X22465782Y-14218822D01*
X22465782Y-14218822D02*
X22456258Y-14237869D01*
X22646734Y-14123584D02*
X22646734Y-14161679D01*
X22722925Y-14123584D02*
X22722925Y-14161679D01*
X23018163Y-14399774D02*
X23008639Y-14390250D01*
X23008639Y-14390250D02*
X22989591Y-14361679D01*
X22989591Y-14361679D02*
X22980068Y-14342631D01*
X22980068Y-14342631D02*
X22970544Y-14314060D01*
X22970544Y-14314060D02*
X22961020Y-14266441D01*
X22961020Y-14266441D02*
X22961020Y-14228346D01*
X22961020Y-14228346D02*
X22970544Y-14180727D01*
X22970544Y-14180727D02*
X22980068Y-14152155D01*
X22980068Y-14152155D02*
X22989591Y-14133108D01*
X22989591Y-14133108D02*
X23008639Y-14104536D01*
X23008639Y-14104536D02*
X23018163Y-14095012D01*
X23180068Y-14190250D02*
X23180068Y-14323584D01*
X23132448Y-14114060D02*
X23084829Y-14256917D01*
X23084829Y-14256917D02*
X23208639Y-14256917D01*
X23437210Y-14323584D02*
X23437210Y-14123584D01*
X23522925Y-14323584D02*
X23522925Y-14218822D01*
X23522925Y-14218822D02*
X23513401Y-14199774D01*
X23513401Y-14199774D02*
X23494353Y-14190250D01*
X23494353Y-14190250D02*
X23465782Y-14190250D01*
X23465782Y-14190250D02*
X23446734Y-14199774D01*
X23446734Y-14199774D02*
X23437210Y-14209298D01*
X23646734Y-14323584D02*
X23627687Y-14314060D01*
X23627687Y-14314060D02*
X23618163Y-14304536D01*
X23618163Y-14304536D02*
X23608639Y-14285488D01*
X23608639Y-14285488D02*
X23608639Y-14228346D01*
X23608639Y-14228346D02*
X23618163Y-14209298D01*
X23618163Y-14209298D02*
X23627687Y-14199774D01*
X23627687Y-14199774D02*
X23646734Y-14190250D01*
X23646734Y-14190250D02*
X23675306Y-14190250D01*
X23675306Y-14190250D02*
X23694353Y-14199774D01*
X23694353Y-14199774D02*
X23703877Y-14209298D01*
X23703877Y-14209298D02*
X23713401Y-14228346D01*
X23713401Y-14228346D02*
X23713401Y-14285488D01*
X23713401Y-14285488D02*
X23703877Y-14304536D01*
X23703877Y-14304536D02*
X23694353Y-14314060D01*
X23694353Y-14314060D02*
X23675306Y-14323584D01*
X23675306Y-14323584D02*
X23646734Y-14323584D01*
X23827687Y-14323584D02*
X23808639Y-14314060D01*
X23808639Y-14314060D02*
X23799115Y-14295012D01*
X23799115Y-14295012D02*
X23799115Y-14123584D01*
X23980068Y-14314060D02*
X23961020Y-14323584D01*
X23961020Y-14323584D02*
X23922925Y-14323584D01*
X23922925Y-14323584D02*
X23903877Y-14314060D01*
X23903877Y-14314060D02*
X23894353Y-14295012D01*
X23894353Y-14295012D02*
X23894353Y-14218822D01*
X23894353Y-14218822D02*
X23903877Y-14199774D01*
X23903877Y-14199774D02*
X23922925Y-14190250D01*
X23922925Y-14190250D02*
X23961020Y-14190250D01*
X23961020Y-14190250D02*
X23980068Y-14199774D01*
X23980068Y-14199774D02*
X23989591Y-14218822D01*
X23989591Y-14218822D02*
X23989591Y-14237869D01*
X23989591Y-14237869D02*
X23894353Y-14256917D01*
X24065782Y-14314060D02*
X24084830Y-14323584D01*
X24084830Y-14323584D02*
X24122925Y-14323584D01*
X24122925Y-14323584D02*
X24141972Y-14314060D01*
X24141972Y-14314060D02*
X24151496Y-14295012D01*
X24151496Y-14295012D02*
X24151496Y-14285488D01*
X24151496Y-14285488D02*
X24141972Y-14266441D01*
X24141972Y-14266441D02*
X24122925Y-14256917D01*
X24122925Y-14256917D02*
X24094353Y-14256917D01*
X24094353Y-14256917D02*
X24075306Y-14247393D01*
X24075306Y-14247393D02*
X24065782Y-14228346D01*
X24065782Y-14228346D02*
X24065782Y-14218822D01*
X24065782Y-14218822D02*
X24075306Y-14199774D01*
X24075306Y-14199774D02*
X24094353Y-14190250D01*
X24094353Y-14190250D02*
X24122925Y-14190250D01*
X24122925Y-14190250D02*
X24141972Y-14199774D01*
X24218163Y-14399774D02*
X24227687Y-14390250D01*
X24227687Y-14390250D02*
X24246734Y-14361679D01*
X24246734Y-14361679D02*
X24256258Y-14342631D01*
X24256258Y-14342631D02*
X24265782Y-14314060D01*
X24265782Y-14314060D02*
X24275306Y-14266441D01*
X24275306Y-14266441D02*
X24275306Y-14228346D01*
X24275306Y-14228346D02*
X24265782Y-14180727D01*
X24265782Y-14180727D02*
X24256258Y-14152155D01*
X24256258Y-14152155D02*
X24246734Y-14133108D01*
X24246734Y-14133108D02*
X24227687Y-14104536D01*
X24227687Y-14104536D02*
X24218163Y-14095012D01*
D12*
X19358100Y-14453600D02*
X19443100Y-14538600D01*
X19443100Y-14453600D02*
X19358100Y-14538600D01*
X19430652Y-14526152D02*
X19430652Y-14466048D01*
X19370548Y-14466048D01*
X19370548Y-14526152D01*
X19430652Y-14526152D01*
D11*
X19741972Y-14387584D02*
X19761020Y-14387584D01*
X19761020Y-14387584D02*
X19780067Y-14397108D01*
X19780067Y-14397108D02*
X19789591Y-14406631D01*
X19789591Y-14406631D02*
X19799115Y-14425679D01*
X19799115Y-14425679D02*
X19808639Y-14463774D01*
X19808639Y-14463774D02*
X19808639Y-14511393D01*
X19808639Y-14511393D02*
X19799115Y-14549488D01*
X19799115Y-14549488D02*
X19789591Y-14568536D01*
X19789591Y-14568536D02*
X19780067Y-14578060D01*
X19780067Y-14578060D02*
X19761020Y-14587584D01*
X19761020Y-14587584D02*
X19741972Y-14587584D01*
X19741972Y-14587584D02*
X19722924Y-14578060D01*
X19722924Y-14578060D02*
X19713401Y-14568536D01*
X19713401Y-14568536D02*
X19703877Y-14549488D01*
X19703877Y-14549488D02*
X19694353Y-14511393D01*
X19694353Y-14511393D02*
X19694353Y-14463774D01*
X19694353Y-14463774D02*
X19703877Y-14425679D01*
X19703877Y-14425679D02*
X19713401Y-14406631D01*
X19713401Y-14406631D02*
X19722924Y-14397108D01*
X19722924Y-14397108D02*
X19741972Y-14387584D01*
X19894353Y-14568536D02*
X19903877Y-14578060D01*
X19903877Y-14578060D02*
X19894353Y-14587584D01*
X19894353Y-14587584D02*
X19884829Y-14578060D01*
X19884829Y-14578060D02*
X19894353Y-14568536D01*
X19894353Y-14568536D02*
X19894353Y-14587584D01*
X20018163Y-14473298D02*
X19999115Y-14463774D01*
X19999115Y-14463774D02*
X19989591Y-14454250D01*
X19989591Y-14454250D02*
X19980067Y-14435203D01*
X19980067Y-14435203D02*
X19980067Y-14425679D01*
X19980067Y-14425679D02*
X19989591Y-14406631D01*
X19989591Y-14406631D02*
X19999115Y-14397108D01*
X19999115Y-14397108D02*
X20018163Y-14387584D01*
X20018163Y-14387584D02*
X20056258Y-14387584D01*
X20056258Y-14387584D02*
X20075305Y-14397108D01*
X20075305Y-14397108D02*
X20084829Y-14406631D01*
X20084829Y-14406631D02*
X20094353Y-14425679D01*
X20094353Y-14425679D02*
X20094353Y-14435203D01*
X20094353Y-14435203D02*
X20084829Y-14454250D01*
X20084829Y-14454250D02*
X20075305Y-14463774D01*
X20075305Y-14463774D02*
X20056258Y-14473298D01*
X20056258Y-14473298D02*
X20018163Y-14473298D01*
X20018163Y-14473298D02*
X19999115Y-14482822D01*
X19999115Y-14482822D02*
X19989591Y-14492346D01*
X19989591Y-14492346D02*
X19980067Y-14511393D01*
X19980067Y-14511393D02*
X19980067Y-14549488D01*
X19980067Y-14549488D02*
X19989591Y-14568536D01*
X19989591Y-14568536D02*
X19999115Y-14578060D01*
X19999115Y-14578060D02*
X20018163Y-14587584D01*
X20018163Y-14587584D02*
X20056258Y-14587584D01*
X20056258Y-14587584D02*
X20075305Y-14578060D01*
X20075305Y-14578060D02*
X20084829Y-14568536D01*
X20084829Y-14568536D02*
X20094353Y-14549488D01*
X20094353Y-14549488D02*
X20094353Y-14511393D01*
X20094353Y-14511393D02*
X20084829Y-14492346D01*
X20084829Y-14492346D02*
X20075305Y-14482822D01*
X20075305Y-14482822D02*
X20056258Y-14473298D01*
X20275305Y-14387584D02*
X20180067Y-14387584D01*
X20180067Y-14387584D02*
X20170544Y-14482822D01*
X20170544Y-14482822D02*
X20180067Y-14473298D01*
X20180067Y-14473298D02*
X20199115Y-14463774D01*
X20199115Y-14463774D02*
X20246734Y-14463774D01*
X20246734Y-14463774D02*
X20265782Y-14473298D01*
X20265782Y-14473298D02*
X20275305Y-14482822D01*
X20275305Y-14482822D02*
X20284829Y-14501869D01*
X20284829Y-14501869D02*
X20284829Y-14549488D01*
X20284829Y-14549488D02*
X20275305Y-14568536D01*
X20275305Y-14568536D02*
X20265782Y-14578060D01*
X20265782Y-14578060D02*
X20246734Y-14587584D01*
X20246734Y-14587584D02*
X20199115Y-14587584D01*
X20199115Y-14587584D02*
X20180067Y-14578060D01*
X20180067Y-14578060D02*
X20170544Y-14568536D01*
X20408639Y-14387584D02*
X20427686Y-14387584D01*
X20427686Y-14387584D02*
X20446734Y-14397108D01*
X20446734Y-14397108D02*
X20456258Y-14406631D01*
X20456258Y-14406631D02*
X20465782Y-14425679D01*
X20465782Y-14425679D02*
X20475305Y-14463774D01*
X20475305Y-14463774D02*
X20475305Y-14511393D01*
X20475305Y-14511393D02*
X20465782Y-14549488D01*
X20465782Y-14549488D02*
X20456258Y-14568536D01*
X20456258Y-14568536D02*
X20446734Y-14578060D01*
X20446734Y-14578060D02*
X20427686Y-14587584D01*
X20427686Y-14587584D02*
X20408639Y-14587584D01*
X20408639Y-14587584D02*
X20389591Y-14578060D01*
X20389591Y-14578060D02*
X20380067Y-14568536D01*
X20380067Y-14568536D02*
X20370544Y-14549488D01*
X20370544Y-14549488D02*
X20361020Y-14511393D01*
X20361020Y-14511393D02*
X20361020Y-14463774D01*
X20361020Y-14463774D02*
X20370544Y-14425679D01*
X20370544Y-14425679D02*
X20380067Y-14406631D01*
X20380067Y-14406631D02*
X20389591Y-14397108D01*
X20389591Y-14397108D02*
X20408639Y-14387584D01*
X20561020Y-14587584D02*
X20561020Y-14454250D01*
X20561020Y-14473298D02*
X20570544Y-14463774D01*
X20570544Y-14463774D02*
X20589591Y-14454250D01*
X20589591Y-14454250D02*
X20618163Y-14454250D01*
X20618163Y-14454250D02*
X20637210Y-14463774D01*
X20637210Y-14463774D02*
X20646734Y-14482822D01*
X20646734Y-14482822D02*
X20646734Y-14587584D01*
X20646734Y-14482822D02*
X20656258Y-14463774D01*
X20656258Y-14463774D02*
X20675305Y-14454250D01*
X20675305Y-14454250D02*
X20703877Y-14454250D01*
X20703877Y-14454250D02*
X20722925Y-14463774D01*
X20722925Y-14463774D02*
X20732448Y-14482822D01*
X20732448Y-14482822D02*
X20732448Y-14587584D01*
X20827686Y-14587584D02*
X20827686Y-14454250D01*
X20827686Y-14473298D02*
X20837210Y-14463774D01*
X20837210Y-14463774D02*
X20856258Y-14454250D01*
X20856258Y-14454250D02*
X20884829Y-14454250D01*
X20884829Y-14454250D02*
X20903877Y-14463774D01*
X20903877Y-14463774D02*
X20913401Y-14482822D01*
X20913401Y-14482822D02*
X20913401Y-14587584D01*
X20913401Y-14482822D02*
X20922925Y-14463774D01*
X20922925Y-14463774D02*
X20941972Y-14454250D01*
X20941972Y-14454250D02*
X20970544Y-14454250D01*
X20970544Y-14454250D02*
X20989591Y-14463774D01*
X20989591Y-14463774D02*
X20999115Y-14482822D01*
X20999115Y-14482822D02*
X20999115Y-14587584D01*
X21389591Y-14378060D02*
X21218163Y-14635203D01*
X21646734Y-14387584D02*
X21665782Y-14387584D01*
X21665782Y-14387584D02*
X21684829Y-14397108D01*
X21684829Y-14397108D02*
X21694353Y-14406631D01*
X21694353Y-14406631D02*
X21703877Y-14425679D01*
X21703877Y-14425679D02*
X21713401Y-14463774D01*
X21713401Y-14463774D02*
X21713401Y-14511393D01*
X21713401Y-14511393D02*
X21703877Y-14549488D01*
X21703877Y-14549488D02*
X21694353Y-14568536D01*
X21694353Y-14568536D02*
X21684829Y-14578060D01*
X21684829Y-14578060D02*
X21665782Y-14587584D01*
X21665782Y-14587584D02*
X21646734Y-14587584D01*
X21646734Y-14587584D02*
X21627687Y-14578060D01*
X21627687Y-14578060D02*
X21618163Y-14568536D01*
X21618163Y-14568536D02*
X21608639Y-14549488D01*
X21608639Y-14549488D02*
X21599115Y-14511393D01*
X21599115Y-14511393D02*
X21599115Y-14463774D01*
X21599115Y-14463774D02*
X21608639Y-14425679D01*
X21608639Y-14425679D02*
X21618163Y-14406631D01*
X21618163Y-14406631D02*
X21627687Y-14397108D01*
X21627687Y-14397108D02*
X21646734Y-14387584D01*
X21799115Y-14568536D02*
X21808639Y-14578060D01*
X21808639Y-14578060D02*
X21799115Y-14587584D01*
X21799115Y-14587584D02*
X21789591Y-14578060D01*
X21789591Y-14578060D02*
X21799115Y-14568536D01*
X21799115Y-14568536D02*
X21799115Y-14587584D01*
X21932448Y-14387584D02*
X21951496Y-14387584D01*
X21951496Y-14387584D02*
X21970544Y-14397108D01*
X21970544Y-14397108D02*
X21980068Y-14406631D01*
X21980068Y-14406631D02*
X21989591Y-14425679D01*
X21989591Y-14425679D02*
X21999115Y-14463774D01*
X21999115Y-14463774D02*
X21999115Y-14511393D01*
X21999115Y-14511393D02*
X21989591Y-14549488D01*
X21989591Y-14549488D02*
X21980068Y-14568536D01*
X21980068Y-14568536D02*
X21970544Y-14578060D01*
X21970544Y-14578060D02*
X21951496Y-14587584D01*
X21951496Y-14587584D02*
X21932448Y-14587584D01*
X21932448Y-14587584D02*
X21913401Y-14578060D01*
X21913401Y-14578060D02*
X21903877Y-14568536D01*
X21903877Y-14568536D02*
X21894353Y-14549488D01*
X21894353Y-14549488D02*
X21884829Y-14511393D01*
X21884829Y-14511393D02*
X21884829Y-14463774D01*
X21884829Y-14463774D02*
X21894353Y-14425679D01*
X21894353Y-14425679D02*
X21903877Y-14406631D01*
X21903877Y-14406631D02*
X21913401Y-14397108D01*
X21913401Y-14397108D02*
X21932448Y-14387584D01*
X22065782Y-14387584D02*
X22189591Y-14387584D01*
X22189591Y-14387584D02*
X22122925Y-14463774D01*
X22122925Y-14463774D02*
X22151496Y-14463774D01*
X22151496Y-14463774D02*
X22170544Y-14473298D01*
X22170544Y-14473298D02*
X22180068Y-14482822D01*
X22180068Y-14482822D02*
X22189591Y-14501869D01*
X22189591Y-14501869D02*
X22189591Y-14549488D01*
X22189591Y-14549488D02*
X22180068Y-14568536D01*
X22180068Y-14568536D02*
X22170544Y-14578060D01*
X22170544Y-14578060D02*
X22151496Y-14587584D01*
X22151496Y-14587584D02*
X22094353Y-14587584D01*
X22094353Y-14587584D02*
X22075306Y-14578060D01*
X22075306Y-14578060D02*
X22065782Y-14568536D01*
X22256258Y-14387584D02*
X22380067Y-14387584D01*
X22380067Y-14387584D02*
X22313401Y-14463774D01*
X22313401Y-14463774D02*
X22341972Y-14463774D01*
X22341972Y-14463774D02*
X22361020Y-14473298D01*
X22361020Y-14473298D02*
X22370544Y-14482822D01*
X22370544Y-14482822D02*
X22380067Y-14501869D01*
X22380067Y-14501869D02*
X22380067Y-14549488D01*
X22380067Y-14549488D02*
X22370544Y-14568536D01*
X22370544Y-14568536D02*
X22361020Y-14578060D01*
X22361020Y-14578060D02*
X22341972Y-14587584D01*
X22341972Y-14587584D02*
X22284829Y-14587584D01*
X22284829Y-14587584D02*
X22265782Y-14578060D01*
X22265782Y-14578060D02*
X22256258Y-14568536D01*
X22561020Y-14387584D02*
X22465782Y-14387584D01*
X22465782Y-14387584D02*
X22456258Y-14482822D01*
X22456258Y-14482822D02*
X22465782Y-14473298D01*
X22465782Y-14473298D02*
X22484829Y-14463774D01*
X22484829Y-14463774D02*
X22532448Y-14463774D01*
X22532448Y-14463774D02*
X22551496Y-14473298D01*
X22551496Y-14473298D02*
X22561020Y-14482822D01*
X22561020Y-14482822D02*
X22570544Y-14501869D01*
X22570544Y-14501869D02*
X22570544Y-14549488D01*
X22570544Y-14549488D02*
X22561020Y-14568536D01*
X22561020Y-14568536D02*
X22551496Y-14578060D01*
X22551496Y-14578060D02*
X22532448Y-14587584D01*
X22532448Y-14587584D02*
X22484829Y-14587584D01*
X22484829Y-14587584D02*
X22465782Y-14578060D01*
X22465782Y-14578060D02*
X22456258Y-14568536D01*
X22646734Y-14387584D02*
X22646734Y-14425679D01*
X22722925Y-14387584D02*
X22722925Y-14425679D01*
X23018163Y-14663774D02*
X23008639Y-14654250D01*
X23008639Y-14654250D02*
X22989591Y-14625679D01*
X22989591Y-14625679D02*
X22980068Y-14606631D01*
X22980068Y-14606631D02*
X22970544Y-14578060D01*
X22970544Y-14578060D02*
X22961020Y-14530441D01*
X22961020Y-14530441D02*
X22961020Y-14492346D01*
X22961020Y-14492346D02*
X22970544Y-14444727D01*
X22970544Y-14444727D02*
X22980068Y-14416155D01*
X22980068Y-14416155D02*
X22989591Y-14397108D01*
X22989591Y-14397108D02*
X23008639Y-14368536D01*
X23008639Y-14368536D02*
X23018163Y-14359012D01*
X23084829Y-14406631D02*
X23094353Y-14397108D01*
X23094353Y-14397108D02*
X23113401Y-14387584D01*
X23113401Y-14387584D02*
X23161020Y-14387584D01*
X23161020Y-14387584D02*
X23180068Y-14397108D01*
X23180068Y-14397108D02*
X23189591Y-14406631D01*
X23189591Y-14406631D02*
X23199115Y-14425679D01*
X23199115Y-14425679D02*
X23199115Y-14444727D01*
X23199115Y-14444727D02*
X23189591Y-14473298D01*
X23189591Y-14473298D02*
X23075306Y-14587584D01*
X23075306Y-14587584D02*
X23199115Y-14587584D01*
X23437210Y-14587584D02*
X23437210Y-14387584D01*
X23522925Y-14587584D02*
X23522925Y-14482822D01*
X23522925Y-14482822D02*
X23513401Y-14463774D01*
X23513401Y-14463774D02*
X23494353Y-14454250D01*
X23494353Y-14454250D02*
X23465782Y-14454250D01*
X23465782Y-14454250D02*
X23446734Y-14463774D01*
X23446734Y-14463774D02*
X23437210Y-14473298D01*
X23646734Y-14587584D02*
X23627687Y-14578060D01*
X23627687Y-14578060D02*
X23618163Y-14568536D01*
X23618163Y-14568536D02*
X23608639Y-14549488D01*
X23608639Y-14549488D02*
X23608639Y-14492346D01*
X23608639Y-14492346D02*
X23618163Y-14473298D01*
X23618163Y-14473298D02*
X23627687Y-14463774D01*
X23627687Y-14463774D02*
X23646734Y-14454250D01*
X23646734Y-14454250D02*
X23675306Y-14454250D01*
X23675306Y-14454250D02*
X23694353Y-14463774D01*
X23694353Y-14463774D02*
X23703877Y-14473298D01*
X23703877Y-14473298D02*
X23713401Y-14492346D01*
X23713401Y-14492346D02*
X23713401Y-14549488D01*
X23713401Y-14549488D02*
X23703877Y-14568536D01*
X23703877Y-14568536D02*
X23694353Y-14578060D01*
X23694353Y-14578060D02*
X23675306Y-14587584D01*
X23675306Y-14587584D02*
X23646734Y-14587584D01*
X23827687Y-14587584D02*
X23808639Y-14578060D01*
X23808639Y-14578060D02*
X23799115Y-14559012D01*
X23799115Y-14559012D02*
X23799115Y-14387584D01*
X23980068Y-14578060D02*
X23961020Y-14587584D01*
X23961020Y-14587584D02*
X23922925Y-14587584D01*
X23922925Y-14587584D02*
X23903877Y-14578060D01*
X23903877Y-14578060D02*
X23894353Y-14559012D01*
X23894353Y-14559012D02*
X23894353Y-14482822D01*
X23894353Y-14482822D02*
X23903877Y-14463774D01*
X23903877Y-14463774D02*
X23922925Y-14454250D01*
X23922925Y-14454250D02*
X23961020Y-14454250D01*
X23961020Y-14454250D02*
X23980068Y-14463774D01*
X23980068Y-14463774D02*
X23989591Y-14482822D01*
X23989591Y-14482822D02*
X23989591Y-14501869D01*
X23989591Y-14501869D02*
X23894353Y-14520917D01*
X24065782Y-14578060D02*
X24084830Y-14587584D01*
X24084830Y-14587584D02*
X24122925Y-14587584D01*
X24122925Y-14587584D02*
X24141972Y-14578060D01*
X24141972Y-14578060D02*
X24151496Y-14559012D01*
X24151496Y-14559012D02*
X24151496Y-14549488D01*
X24151496Y-14549488D02*
X24141972Y-14530441D01*
X24141972Y-14530441D02*
X24122925Y-14520917D01*
X24122925Y-14520917D02*
X24094353Y-14520917D01*
X24094353Y-14520917D02*
X24075306Y-14511393D01*
X24075306Y-14511393D02*
X24065782Y-14492346D01*
X24065782Y-14492346D02*
X24065782Y-14482822D01*
X24065782Y-14482822D02*
X24075306Y-14463774D01*
X24075306Y-14463774D02*
X24094353Y-14454250D01*
X24094353Y-14454250D02*
X24122925Y-14454250D01*
X24122925Y-14454250D02*
X24141972Y-14463774D01*
X24218163Y-14663774D02*
X24227687Y-14654250D01*
X24227687Y-14654250D02*
X24246734Y-14625679D01*
X24246734Y-14625679D02*
X24256258Y-14606631D01*
X24256258Y-14606631D02*
X24265782Y-14578060D01*
X24265782Y-14578060D02*
X24275306Y-14530441D01*
X24275306Y-14530441D02*
X24275306Y-14492346D01*
X24275306Y-14492346D02*
X24265782Y-14444727D01*
X24265782Y-14444727D02*
X24256258Y-14416155D01*
X24256258Y-14416155D02*
X24246734Y-14397108D01*
X24246734Y-14397108D02*
X24227687Y-14368536D01*
X24227687Y-14368536D02*
X24218163Y-14359012D01*
D13*
X19273100Y-14675100D02*
X19443100Y-14845100D01*
X19443100Y-14675100D02*
X19273100Y-14845100D01*
X19358100Y-14845100D02*
X19443100Y-14760100D01*
X19358100Y-14675100D01*
X19273100Y-14760100D01*
X19358100Y-14845100D01*
D11*
X19808639Y-14851584D02*
X19694353Y-14851584D01*
X19751496Y-14851584D02*
X19751496Y-14651584D01*
X19751496Y-14651584D02*
X19732448Y-14680155D01*
X19732448Y-14680155D02*
X19713401Y-14699203D01*
X19713401Y-14699203D02*
X19694353Y-14708727D01*
X19894353Y-14832536D02*
X19903877Y-14842060D01*
X19903877Y-14842060D02*
X19894353Y-14851584D01*
X19894353Y-14851584D02*
X19884829Y-14842060D01*
X19884829Y-14842060D02*
X19894353Y-14832536D01*
X19894353Y-14832536D02*
X19894353Y-14851584D01*
X19970544Y-14651584D02*
X20103877Y-14651584D01*
X20103877Y-14651584D02*
X20018163Y-14851584D01*
X20218163Y-14651584D02*
X20237210Y-14651584D01*
X20237210Y-14651584D02*
X20256258Y-14661108D01*
X20256258Y-14661108D02*
X20265782Y-14670631D01*
X20265782Y-14670631D02*
X20275305Y-14689679D01*
X20275305Y-14689679D02*
X20284829Y-14727774D01*
X20284829Y-14727774D02*
X20284829Y-14775393D01*
X20284829Y-14775393D02*
X20275305Y-14813488D01*
X20275305Y-14813488D02*
X20265782Y-14832536D01*
X20265782Y-14832536D02*
X20256258Y-14842060D01*
X20256258Y-14842060D02*
X20237210Y-14851584D01*
X20237210Y-14851584D02*
X20218163Y-14851584D01*
X20218163Y-14851584D02*
X20199115Y-14842060D01*
X20199115Y-14842060D02*
X20189591Y-14832536D01*
X20189591Y-14832536D02*
X20180067Y-14813488D01*
X20180067Y-14813488D02*
X20170544Y-14775393D01*
X20170544Y-14775393D02*
X20170544Y-14727774D01*
X20170544Y-14727774D02*
X20180067Y-14689679D01*
X20180067Y-14689679D02*
X20189591Y-14670631D01*
X20189591Y-14670631D02*
X20199115Y-14661108D01*
X20199115Y-14661108D02*
X20218163Y-14651584D01*
X20408639Y-14651584D02*
X20427686Y-14651584D01*
X20427686Y-14651584D02*
X20446734Y-14661108D01*
X20446734Y-14661108D02*
X20456258Y-14670631D01*
X20456258Y-14670631D02*
X20465782Y-14689679D01*
X20465782Y-14689679D02*
X20475305Y-14727774D01*
X20475305Y-14727774D02*
X20475305Y-14775393D01*
X20475305Y-14775393D02*
X20465782Y-14813488D01*
X20465782Y-14813488D02*
X20456258Y-14832536D01*
X20456258Y-14832536D02*
X20446734Y-14842060D01*
X20446734Y-14842060D02*
X20427686Y-14851584D01*
X20427686Y-14851584D02*
X20408639Y-14851584D01*
X20408639Y-14851584D02*
X20389591Y-14842060D01*
X20389591Y-14842060D02*
X20380067Y-14832536D01*
X20380067Y-14832536D02*
X20370544Y-14813488D01*
X20370544Y-14813488D02*
X20361020Y-14775393D01*
X20361020Y-14775393D02*
X20361020Y-14727774D01*
X20361020Y-14727774D02*
X20370544Y-14689679D01*
X20370544Y-14689679D02*
X20380067Y-14670631D01*
X20380067Y-14670631D02*
X20389591Y-14661108D01*
X20389591Y-14661108D02*
X20408639Y-14651584D01*
X20561020Y-14851584D02*
X20561020Y-14718250D01*
X20561020Y-14737298D02*
X20570544Y-14727774D01*
X20570544Y-14727774D02*
X20589591Y-14718250D01*
X20589591Y-14718250D02*
X20618163Y-14718250D01*
X20618163Y-14718250D02*
X20637210Y-14727774D01*
X20637210Y-14727774D02*
X20646734Y-14746822D01*
X20646734Y-14746822D02*
X20646734Y-14851584D01*
X20646734Y-14746822D02*
X20656258Y-14727774D01*
X20656258Y-14727774D02*
X20675305Y-14718250D01*
X20675305Y-14718250D02*
X20703877Y-14718250D01*
X20703877Y-14718250D02*
X20722925Y-14727774D01*
X20722925Y-14727774D02*
X20732448Y-14746822D01*
X20732448Y-14746822D02*
X20732448Y-14851584D01*
X20827686Y-14851584D02*
X20827686Y-14718250D01*
X20827686Y-14737298D02*
X20837210Y-14727774D01*
X20837210Y-14727774D02*
X20856258Y-14718250D01*
X20856258Y-14718250D02*
X20884829Y-14718250D01*
X20884829Y-14718250D02*
X20903877Y-14727774D01*
X20903877Y-14727774D02*
X20913401Y-14746822D01*
X20913401Y-14746822D02*
X20913401Y-14851584D01*
X20913401Y-14746822D02*
X20922925Y-14727774D01*
X20922925Y-14727774D02*
X20941972Y-14718250D01*
X20941972Y-14718250D02*
X20970544Y-14718250D01*
X20970544Y-14718250D02*
X20989591Y-14727774D01*
X20989591Y-14727774D02*
X20999115Y-14746822D01*
X20999115Y-14746822D02*
X20999115Y-14851584D01*
X21389591Y-14642060D02*
X21218163Y-14899203D01*
X21646734Y-14651584D02*
X21665782Y-14651584D01*
X21665782Y-14651584D02*
X21684829Y-14661108D01*
X21684829Y-14661108D02*
X21694353Y-14670631D01*
X21694353Y-14670631D02*
X21703877Y-14689679D01*
X21703877Y-14689679D02*
X21713401Y-14727774D01*
X21713401Y-14727774D02*
X21713401Y-14775393D01*
X21713401Y-14775393D02*
X21703877Y-14813488D01*
X21703877Y-14813488D02*
X21694353Y-14832536D01*
X21694353Y-14832536D02*
X21684829Y-14842060D01*
X21684829Y-14842060D02*
X21665782Y-14851584D01*
X21665782Y-14851584D02*
X21646734Y-14851584D01*
X21646734Y-14851584D02*
X21627687Y-14842060D01*
X21627687Y-14842060D02*
X21618163Y-14832536D01*
X21618163Y-14832536D02*
X21608639Y-14813488D01*
X21608639Y-14813488D02*
X21599115Y-14775393D01*
X21599115Y-14775393D02*
X21599115Y-14727774D01*
X21599115Y-14727774D02*
X21608639Y-14689679D01*
X21608639Y-14689679D02*
X21618163Y-14670631D01*
X21618163Y-14670631D02*
X21627687Y-14661108D01*
X21627687Y-14661108D02*
X21646734Y-14651584D01*
X21799115Y-14832536D02*
X21808639Y-14842060D01*
X21808639Y-14842060D02*
X21799115Y-14851584D01*
X21799115Y-14851584D02*
X21789591Y-14842060D01*
X21789591Y-14842060D02*
X21799115Y-14832536D01*
X21799115Y-14832536D02*
X21799115Y-14851584D01*
X21932448Y-14651584D02*
X21951496Y-14651584D01*
X21951496Y-14651584D02*
X21970544Y-14661108D01*
X21970544Y-14661108D02*
X21980068Y-14670631D01*
X21980068Y-14670631D02*
X21989591Y-14689679D01*
X21989591Y-14689679D02*
X21999115Y-14727774D01*
X21999115Y-14727774D02*
X21999115Y-14775393D01*
X21999115Y-14775393D02*
X21989591Y-14813488D01*
X21989591Y-14813488D02*
X21980068Y-14832536D01*
X21980068Y-14832536D02*
X21970544Y-14842060D01*
X21970544Y-14842060D02*
X21951496Y-14851584D01*
X21951496Y-14851584D02*
X21932448Y-14851584D01*
X21932448Y-14851584D02*
X21913401Y-14842060D01*
X21913401Y-14842060D02*
X21903877Y-14832536D01*
X21903877Y-14832536D02*
X21894353Y-14813488D01*
X21894353Y-14813488D02*
X21884829Y-14775393D01*
X21884829Y-14775393D02*
X21884829Y-14727774D01*
X21884829Y-14727774D02*
X21894353Y-14689679D01*
X21894353Y-14689679D02*
X21903877Y-14670631D01*
X21903877Y-14670631D02*
X21913401Y-14661108D01*
X21913401Y-14661108D02*
X21932448Y-14651584D01*
X22170544Y-14651584D02*
X22132448Y-14651584D01*
X22132448Y-14651584D02*
X22113401Y-14661108D01*
X22113401Y-14661108D02*
X22103877Y-14670631D01*
X22103877Y-14670631D02*
X22084829Y-14699203D01*
X22084829Y-14699203D02*
X22075306Y-14737298D01*
X22075306Y-14737298D02*
X22075306Y-14813488D01*
X22075306Y-14813488D02*
X22084829Y-14832536D01*
X22084829Y-14832536D02*
X22094353Y-14842060D01*
X22094353Y-14842060D02*
X22113401Y-14851584D01*
X22113401Y-14851584D02*
X22151496Y-14851584D01*
X22151496Y-14851584D02*
X22170544Y-14842060D01*
X22170544Y-14842060D02*
X22180068Y-14832536D01*
X22180068Y-14832536D02*
X22189591Y-14813488D01*
X22189591Y-14813488D02*
X22189591Y-14765869D01*
X22189591Y-14765869D02*
X22180068Y-14746822D01*
X22180068Y-14746822D02*
X22170544Y-14737298D01*
X22170544Y-14737298D02*
X22151496Y-14727774D01*
X22151496Y-14727774D02*
X22113401Y-14727774D01*
X22113401Y-14727774D02*
X22094353Y-14737298D01*
X22094353Y-14737298D02*
X22084829Y-14746822D01*
X22084829Y-14746822D02*
X22075306Y-14765869D01*
X22361020Y-14651584D02*
X22322925Y-14651584D01*
X22322925Y-14651584D02*
X22303877Y-14661108D01*
X22303877Y-14661108D02*
X22294353Y-14670631D01*
X22294353Y-14670631D02*
X22275306Y-14699203D01*
X22275306Y-14699203D02*
X22265782Y-14737298D01*
X22265782Y-14737298D02*
X22265782Y-14813488D01*
X22265782Y-14813488D02*
X22275306Y-14832536D01*
X22275306Y-14832536D02*
X22284829Y-14842060D01*
X22284829Y-14842060D02*
X22303877Y-14851584D01*
X22303877Y-14851584D02*
X22341972Y-14851584D01*
X22341972Y-14851584D02*
X22361020Y-14842060D01*
X22361020Y-14842060D02*
X22370544Y-14832536D01*
X22370544Y-14832536D02*
X22380067Y-14813488D01*
X22380067Y-14813488D02*
X22380067Y-14765869D01*
X22380067Y-14765869D02*
X22370544Y-14746822D01*
X22370544Y-14746822D02*
X22361020Y-14737298D01*
X22361020Y-14737298D02*
X22341972Y-14727774D01*
X22341972Y-14727774D02*
X22303877Y-14727774D01*
X22303877Y-14727774D02*
X22284829Y-14737298D01*
X22284829Y-14737298D02*
X22275306Y-14746822D01*
X22275306Y-14746822D02*
X22265782Y-14765869D01*
X22475306Y-14851584D02*
X22513401Y-14851584D01*
X22513401Y-14851584D02*
X22532448Y-14842060D01*
X22532448Y-14842060D02*
X22541972Y-14832536D01*
X22541972Y-14832536D02*
X22561020Y-14803965D01*
X22561020Y-14803965D02*
X22570544Y-14765869D01*
X22570544Y-14765869D02*
X22570544Y-14689679D01*
X22570544Y-14689679D02*
X22561020Y-14670631D01*
X22561020Y-14670631D02*
X22551496Y-14661108D01*
X22551496Y-14661108D02*
X22532448Y-14651584D01*
X22532448Y-14651584D02*
X22494353Y-14651584D01*
X22494353Y-14651584D02*
X22475306Y-14661108D01*
X22475306Y-14661108D02*
X22465782Y-14670631D01*
X22465782Y-14670631D02*
X22456258Y-14689679D01*
X22456258Y-14689679D02*
X22456258Y-14737298D01*
X22456258Y-14737298D02*
X22465782Y-14756346D01*
X22465782Y-14756346D02*
X22475306Y-14765869D01*
X22475306Y-14765869D02*
X22494353Y-14775393D01*
X22494353Y-14775393D02*
X22532448Y-14775393D01*
X22532448Y-14775393D02*
X22551496Y-14765869D01*
X22551496Y-14765869D02*
X22561020Y-14756346D01*
X22561020Y-14756346D02*
X22570544Y-14737298D01*
X22646734Y-14651584D02*
X22646734Y-14689679D01*
X22722925Y-14651584D02*
X22722925Y-14689679D01*
X23018163Y-14927774D02*
X23008639Y-14918250D01*
X23008639Y-14918250D02*
X22989591Y-14889679D01*
X22989591Y-14889679D02*
X22980068Y-14870631D01*
X22980068Y-14870631D02*
X22970544Y-14842060D01*
X22970544Y-14842060D02*
X22961020Y-14794441D01*
X22961020Y-14794441D02*
X22961020Y-14756346D01*
X22961020Y-14756346D02*
X22970544Y-14708727D01*
X22970544Y-14708727D02*
X22980068Y-14680155D01*
X22980068Y-14680155D02*
X22989591Y-14661108D01*
X22989591Y-14661108D02*
X23008639Y-14632536D01*
X23008639Y-14632536D02*
X23018163Y-14623012D01*
X23180068Y-14651584D02*
X23141972Y-14651584D01*
X23141972Y-14651584D02*
X23122925Y-14661108D01*
X23122925Y-14661108D02*
X23113401Y-14670631D01*
X23113401Y-14670631D02*
X23094353Y-14699203D01*
X23094353Y-14699203D02*
X23084829Y-14737298D01*
X23084829Y-14737298D02*
X23084829Y-14813488D01*
X23084829Y-14813488D02*
X23094353Y-14832536D01*
X23094353Y-14832536D02*
X23103877Y-14842060D01*
X23103877Y-14842060D02*
X23122925Y-14851584D01*
X23122925Y-14851584D02*
X23161020Y-14851584D01*
X23161020Y-14851584D02*
X23180068Y-14842060D01*
X23180068Y-14842060D02*
X23189591Y-14832536D01*
X23189591Y-14832536D02*
X23199115Y-14813488D01*
X23199115Y-14813488D02*
X23199115Y-14765869D01*
X23199115Y-14765869D02*
X23189591Y-14746822D01*
X23189591Y-14746822D02*
X23180068Y-14737298D01*
X23180068Y-14737298D02*
X23161020Y-14727774D01*
X23161020Y-14727774D02*
X23122925Y-14727774D01*
X23122925Y-14727774D02*
X23103877Y-14737298D01*
X23103877Y-14737298D02*
X23094353Y-14746822D01*
X23094353Y-14746822D02*
X23084829Y-14765869D01*
X23437210Y-14851584D02*
X23437210Y-14651584D01*
X23522925Y-14851584D02*
X23522925Y-14746822D01*
X23522925Y-14746822D02*
X23513401Y-14727774D01*
X23513401Y-14727774D02*
X23494353Y-14718250D01*
X23494353Y-14718250D02*
X23465782Y-14718250D01*
X23465782Y-14718250D02*
X23446734Y-14727774D01*
X23446734Y-14727774D02*
X23437210Y-14737298D01*
X23646734Y-14851584D02*
X23627687Y-14842060D01*
X23627687Y-14842060D02*
X23618163Y-14832536D01*
X23618163Y-14832536D02*
X23608639Y-14813488D01*
X23608639Y-14813488D02*
X23608639Y-14756346D01*
X23608639Y-14756346D02*
X23618163Y-14737298D01*
X23618163Y-14737298D02*
X23627687Y-14727774D01*
X23627687Y-14727774D02*
X23646734Y-14718250D01*
X23646734Y-14718250D02*
X23675306Y-14718250D01*
X23675306Y-14718250D02*
X23694353Y-14727774D01*
X23694353Y-14727774D02*
X23703877Y-14737298D01*
X23703877Y-14737298D02*
X23713401Y-14756346D01*
X23713401Y-14756346D02*
X23713401Y-14813488D01*
X23713401Y-14813488D02*
X23703877Y-14832536D01*
X23703877Y-14832536D02*
X23694353Y-14842060D01*
X23694353Y-14842060D02*
X23675306Y-14851584D01*
X23675306Y-14851584D02*
X23646734Y-14851584D01*
X23827687Y-14851584D02*
X23808639Y-14842060D01*
X23808639Y-14842060D02*
X23799115Y-14823012D01*
X23799115Y-14823012D02*
X23799115Y-14651584D01*
X23980068Y-14842060D02*
X23961020Y-14851584D01*
X23961020Y-14851584D02*
X23922925Y-14851584D01*
X23922925Y-14851584D02*
X23903877Y-14842060D01*
X23903877Y-14842060D02*
X23894353Y-14823012D01*
X23894353Y-14823012D02*
X23894353Y-14746822D01*
X23894353Y-14746822D02*
X23903877Y-14727774D01*
X23903877Y-14727774D02*
X23922925Y-14718250D01*
X23922925Y-14718250D02*
X23961020Y-14718250D01*
X23961020Y-14718250D02*
X23980068Y-14727774D01*
X23980068Y-14727774D02*
X23989591Y-14746822D01*
X23989591Y-14746822D02*
X23989591Y-14765869D01*
X23989591Y-14765869D02*
X23894353Y-14784917D01*
X24065782Y-14842060D02*
X24084830Y-14851584D01*
X24084830Y-14851584D02*
X24122925Y-14851584D01*
X24122925Y-14851584D02*
X24141972Y-14842060D01*
X24141972Y-14842060D02*
X24151496Y-14823012D01*
X24151496Y-14823012D02*
X24151496Y-14813488D01*
X24151496Y-14813488D02*
X24141972Y-14794441D01*
X24141972Y-14794441D02*
X24122925Y-14784917D01*
X24122925Y-14784917D02*
X24094353Y-14784917D01*
X24094353Y-14784917D02*
X24075306Y-14775393D01*
X24075306Y-14775393D02*
X24065782Y-14756346D01*
X24065782Y-14756346D02*
X24065782Y-14746822D01*
X24065782Y-14746822D02*
X24075306Y-14727774D01*
X24075306Y-14727774D02*
X24094353Y-14718250D01*
X24094353Y-14718250D02*
X24122925Y-14718250D01*
X24122925Y-14718250D02*
X24141972Y-14727774D01*
X24218163Y-14927774D02*
X24227687Y-14918250D01*
X24227687Y-14918250D02*
X24246734Y-14889679D01*
X24246734Y-14889679D02*
X24256258Y-14870631D01*
X24256258Y-14870631D02*
X24265782Y-14842060D01*
X24265782Y-14842060D02*
X24275306Y-14794441D01*
X24275306Y-14794441D02*
X24275306Y-14756346D01*
X24275306Y-14756346D02*
X24265782Y-14708727D01*
X24265782Y-14708727D02*
X24256258Y-14680155D01*
X24256258Y-14680155D02*
X24246734Y-14661108D01*
X24246734Y-14661108D02*
X24227687Y-14632536D01*
X24227687Y-14632536D02*
X24218163Y-14623012D01*
D14*
X19353100Y-14960100D02*
X19353100Y-15140100D01*
X19263100Y-15050100D02*
X19443100Y-15050100D01*
X19443100Y-15050100D02*
G75*
G02*
X19263100Y-15050100I-90000J0D01*
G01*
X19263100Y-15050100D02*
G75*
G02*
X19443100Y-15050100I90000J0D01*
G01*
D11*
X19808639Y-15141584D02*
X19694353Y-15141584D01*
X19751496Y-15141584D02*
X19751496Y-14941584D01*
X19751496Y-14941584D02*
X19732448Y-14970155D01*
X19732448Y-14970155D02*
X19713401Y-14989203D01*
X19713401Y-14989203D02*
X19694353Y-14998727D01*
X19894353Y-15122536D02*
X19903877Y-15132060D01*
X19903877Y-15132060D02*
X19894353Y-15141584D01*
X19894353Y-15141584D02*
X19884829Y-15132060D01*
X19884829Y-15132060D02*
X19894353Y-15122536D01*
X19894353Y-15122536D02*
X19894353Y-15141584D01*
X20018163Y-15027298D02*
X19999115Y-15017774D01*
X19999115Y-15017774D02*
X19989591Y-15008250D01*
X19989591Y-15008250D02*
X19980067Y-14989203D01*
X19980067Y-14989203D02*
X19980067Y-14979679D01*
X19980067Y-14979679D02*
X19989591Y-14960631D01*
X19989591Y-14960631D02*
X19999115Y-14951108D01*
X19999115Y-14951108D02*
X20018163Y-14941584D01*
X20018163Y-14941584D02*
X20056258Y-14941584D01*
X20056258Y-14941584D02*
X20075305Y-14951108D01*
X20075305Y-14951108D02*
X20084829Y-14960631D01*
X20084829Y-14960631D02*
X20094353Y-14979679D01*
X20094353Y-14979679D02*
X20094353Y-14989203D01*
X20094353Y-14989203D02*
X20084829Y-15008250D01*
X20084829Y-15008250D02*
X20075305Y-15017774D01*
X20075305Y-15017774D02*
X20056258Y-15027298D01*
X20056258Y-15027298D02*
X20018163Y-15027298D01*
X20018163Y-15027298D02*
X19999115Y-15036822D01*
X19999115Y-15036822D02*
X19989591Y-15046346D01*
X19989591Y-15046346D02*
X19980067Y-15065393D01*
X19980067Y-15065393D02*
X19980067Y-15103488D01*
X19980067Y-15103488D02*
X19989591Y-15122536D01*
X19989591Y-15122536D02*
X19999115Y-15132060D01*
X19999115Y-15132060D02*
X20018163Y-15141584D01*
X20018163Y-15141584D02*
X20056258Y-15141584D01*
X20056258Y-15141584D02*
X20075305Y-15132060D01*
X20075305Y-15132060D02*
X20084829Y-15122536D01*
X20084829Y-15122536D02*
X20094353Y-15103488D01*
X20094353Y-15103488D02*
X20094353Y-15065393D01*
X20094353Y-15065393D02*
X20084829Y-15046346D01*
X20084829Y-15046346D02*
X20075305Y-15036822D01*
X20075305Y-15036822D02*
X20056258Y-15027298D01*
X20218163Y-14941584D02*
X20237210Y-14941584D01*
X20237210Y-14941584D02*
X20256258Y-14951108D01*
X20256258Y-14951108D02*
X20265782Y-14960631D01*
X20265782Y-14960631D02*
X20275305Y-14979679D01*
X20275305Y-14979679D02*
X20284829Y-15017774D01*
X20284829Y-15017774D02*
X20284829Y-15065393D01*
X20284829Y-15065393D02*
X20275305Y-15103488D01*
X20275305Y-15103488D02*
X20265782Y-15122536D01*
X20265782Y-15122536D02*
X20256258Y-15132060D01*
X20256258Y-15132060D02*
X20237210Y-15141584D01*
X20237210Y-15141584D02*
X20218163Y-15141584D01*
X20218163Y-15141584D02*
X20199115Y-15132060D01*
X20199115Y-15132060D02*
X20189591Y-15122536D01*
X20189591Y-15122536D02*
X20180067Y-15103488D01*
X20180067Y-15103488D02*
X20170544Y-15065393D01*
X20170544Y-15065393D02*
X20170544Y-15017774D01*
X20170544Y-15017774D02*
X20180067Y-14979679D01*
X20180067Y-14979679D02*
X20189591Y-14960631D01*
X20189591Y-14960631D02*
X20199115Y-14951108D01*
X20199115Y-14951108D02*
X20218163Y-14941584D01*
X20408639Y-14941584D02*
X20427686Y-14941584D01*
X20427686Y-14941584D02*
X20446734Y-14951108D01*
X20446734Y-14951108D02*
X20456258Y-14960631D01*
X20456258Y-14960631D02*
X20465782Y-14979679D01*
X20465782Y-14979679D02*
X20475305Y-15017774D01*
X20475305Y-15017774D02*
X20475305Y-15065393D01*
X20475305Y-15065393D02*
X20465782Y-15103488D01*
X20465782Y-15103488D02*
X20456258Y-15122536D01*
X20456258Y-15122536D02*
X20446734Y-15132060D01*
X20446734Y-15132060D02*
X20427686Y-15141584D01*
X20427686Y-15141584D02*
X20408639Y-15141584D01*
X20408639Y-15141584D02*
X20389591Y-15132060D01*
X20389591Y-15132060D02*
X20380067Y-15122536D01*
X20380067Y-15122536D02*
X20370544Y-15103488D01*
X20370544Y-15103488D02*
X20361020Y-15065393D01*
X20361020Y-15065393D02*
X20361020Y-15017774D01*
X20361020Y-15017774D02*
X20370544Y-14979679D01*
X20370544Y-14979679D02*
X20380067Y-14960631D01*
X20380067Y-14960631D02*
X20389591Y-14951108D01*
X20389591Y-14951108D02*
X20408639Y-14941584D01*
X20561020Y-15141584D02*
X20561020Y-15008250D01*
X20561020Y-15027298D02*
X20570544Y-15017774D01*
X20570544Y-15017774D02*
X20589591Y-15008250D01*
X20589591Y-15008250D02*
X20618163Y-15008250D01*
X20618163Y-15008250D02*
X20637210Y-15017774D01*
X20637210Y-15017774D02*
X20646734Y-15036822D01*
X20646734Y-15036822D02*
X20646734Y-15141584D01*
X20646734Y-15036822D02*
X20656258Y-15017774D01*
X20656258Y-15017774D02*
X20675305Y-15008250D01*
X20675305Y-15008250D02*
X20703877Y-15008250D01*
X20703877Y-15008250D02*
X20722925Y-15017774D01*
X20722925Y-15017774D02*
X20732448Y-15036822D01*
X20732448Y-15036822D02*
X20732448Y-15141584D01*
X20827686Y-15141584D02*
X20827686Y-15008250D01*
X20827686Y-15027298D02*
X20837210Y-15017774D01*
X20837210Y-15017774D02*
X20856258Y-15008250D01*
X20856258Y-15008250D02*
X20884829Y-15008250D01*
X20884829Y-15008250D02*
X20903877Y-15017774D01*
X20903877Y-15017774D02*
X20913401Y-15036822D01*
X20913401Y-15036822D02*
X20913401Y-15141584D01*
X20913401Y-15036822D02*
X20922925Y-15017774D01*
X20922925Y-15017774D02*
X20941972Y-15008250D01*
X20941972Y-15008250D02*
X20970544Y-15008250D01*
X20970544Y-15008250D02*
X20989591Y-15017774D01*
X20989591Y-15017774D02*
X20999115Y-15036822D01*
X20999115Y-15036822D02*
X20999115Y-15141584D01*
X21389591Y-14932060D02*
X21218163Y-15189203D01*
X21646734Y-14941584D02*
X21665782Y-14941584D01*
X21665782Y-14941584D02*
X21684829Y-14951108D01*
X21684829Y-14951108D02*
X21694353Y-14960631D01*
X21694353Y-14960631D02*
X21703877Y-14979679D01*
X21703877Y-14979679D02*
X21713401Y-15017774D01*
X21713401Y-15017774D02*
X21713401Y-15065393D01*
X21713401Y-15065393D02*
X21703877Y-15103488D01*
X21703877Y-15103488D02*
X21694353Y-15122536D01*
X21694353Y-15122536D02*
X21684829Y-15132060D01*
X21684829Y-15132060D02*
X21665782Y-15141584D01*
X21665782Y-15141584D02*
X21646734Y-15141584D01*
X21646734Y-15141584D02*
X21627687Y-15132060D01*
X21627687Y-15132060D02*
X21618163Y-15122536D01*
X21618163Y-15122536D02*
X21608639Y-15103488D01*
X21608639Y-15103488D02*
X21599115Y-15065393D01*
X21599115Y-15065393D02*
X21599115Y-15017774D01*
X21599115Y-15017774D02*
X21608639Y-14979679D01*
X21608639Y-14979679D02*
X21618163Y-14960631D01*
X21618163Y-14960631D02*
X21627687Y-14951108D01*
X21627687Y-14951108D02*
X21646734Y-14941584D01*
X21799115Y-15122536D02*
X21808639Y-15132060D01*
X21808639Y-15132060D02*
X21799115Y-15141584D01*
X21799115Y-15141584D02*
X21789591Y-15132060D01*
X21789591Y-15132060D02*
X21799115Y-15122536D01*
X21799115Y-15122536D02*
X21799115Y-15141584D01*
X21932448Y-14941584D02*
X21951496Y-14941584D01*
X21951496Y-14941584D02*
X21970544Y-14951108D01*
X21970544Y-14951108D02*
X21980068Y-14960631D01*
X21980068Y-14960631D02*
X21989591Y-14979679D01*
X21989591Y-14979679D02*
X21999115Y-15017774D01*
X21999115Y-15017774D02*
X21999115Y-15065393D01*
X21999115Y-15065393D02*
X21989591Y-15103488D01*
X21989591Y-15103488D02*
X21980068Y-15122536D01*
X21980068Y-15122536D02*
X21970544Y-15132060D01*
X21970544Y-15132060D02*
X21951496Y-15141584D01*
X21951496Y-15141584D02*
X21932448Y-15141584D01*
X21932448Y-15141584D02*
X21913401Y-15132060D01*
X21913401Y-15132060D02*
X21903877Y-15122536D01*
X21903877Y-15122536D02*
X21894353Y-15103488D01*
X21894353Y-15103488D02*
X21884829Y-15065393D01*
X21884829Y-15065393D02*
X21884829Y-15017774D01*
X21884829Y-15017774D02*
X21894353Y-14979679D01*
X21894353Y-14979679D02*
X21903877Y-14960631D01*
X21903877Y-14960631D02*
X21913401Y-14951108D01*
X21913401Y-14951108D02*
X21932448Y-14941584D01*
X22065782Y-14941584D02*
X22199115Y-14941584D01*
X22199115Y-14941584D02*
X22113401Y-15141584D01*
X22313401Y-14941584D02*
X22332449Y-14941584D01*
X22332449Y-14941584D02*
X22351496Y-14951108D01*
X22351496Y-14951108D02*
X22361020Y-14960631D01*
X22361020Y-14960631D02*
X22370544Y-14979679D01*
X22370544Y-14979679D02*
X22380067Y-15017774D01*
X22380067Y-15017774D02*
X22380067Y-15065393D01*
X22380067Y-15065393D02*
X22370544Y-15103488D01*
X22370544Y-15103488D02*
X22361020Y-15122536D01*
X22361020Y-15122536D02*
X22351496Y-15132060D01*
X22351496Y-15132060D02*
X22332449Y-15141584D01*
X22332449Y-15141584D02*
X22313401Y-15141584D01*
X22313401Y-15141584D02*
X22294353Y-15132060D01*
X22294353Y-15132060D02*
X22284829Y-15122536D01*
X22284829Y-15122536D02*
X22275306Y-15103488D01*
X22275306Y-15103488D02*
X22265782Y-15065393D01*
X22265782Y-15065393D02*
X22265782Y-15017774D01*
X22265782Y-15017774D02*
X22275306Y-14979679D01*
X22275306Y-14979679D02*
X22284829Y-14960631D01*
X22284829Y-14960631D02*
X22294353Y-14951108D01*
X22294353Y-14951108D02*
X22313401Y-14941584D01*
X22475306Y-15141584D02*
X22513401Y-15141584D01*
X22513401Y-15141584D02*
X22532448Y-15132060D01*
X22532448Y-15132060D02*
X22541972Y-15122536D01*
X22541972Y-15122536D02*
X22561020Y-15093965D01*
X22561020Y-15093965D02*
X22570544Y-15055869D01*
X22570544Y-15055869D02*
X22570544Y-14979679D01*
X22570544Y-14979679D02*
X22561020Y-14960631D01*
X22561020Y-14960631D02*
X22551496Y-14951108D01*
X22551496Y-14951108D02*
X22532448Y-14941584D01*
X22532448Y-14941584D02*
X22494353Y-14941584D01*
X22494353Y-14941584D02*
X22475306Y-14951108D01*
X22475306Y-14951108D02*
X22465782Y-14960631D01*
X22465782Y-14960631D02*
X22456258Y-14979679D01*
X22456258Y-14979679D02*
X22456258Y-15027298D01*
X22456258Y-15027298D02*
X22465782Y-15046346D01*
X22465782Y-15046346D02*
X22475306Y-15055869D01*
X22475306Y-15055869D02*
X22494353Y-15065393D01*
X22494353Y-15065393D02*
X22532448Y-15065393D01*
X22532448Y-15065393D02*
X22551496Y-15055869D01*
X22551496Y-15055869D02*
X22561020Y-15046346D01*
X22561020Y-15046346D02*
X22570544Y-15027298D01*
X22646734Y-14941584D02*
X22646734Y-14979679D01*
X22722925Y-14941584D02*
X22722925Y-14979679D01*
X23018163Y-15217774D02*
X23008639Y-15208250D01*
X23008639Y-15208250D02*
X22989591Y-15179679D01*
X22989591Y-15179679D02*
X22980068Y-15160631D01*
X22980068Y-15160631D02*
X22970544Y-15132060D01*
X22970544Y-15132060D02*
X22961020Y-15084441D01*
X22961020Y-15084441D02*
X22961020Y-15046346D01*
X22961020Y-15046346D02*
X22970544Y-14998727D01*
X22970544Y-14998727D02*
X22980068Y-14970155D01*
X22980068Y-14970155D02*
X22989591Y-14951108D01*
X22989591Y-14951108D02*
X23008639Y-14922536D01*
X23008639Y-14922536D02*
X23018163Y-14913012D01*
X23180068Y-15008250D02*
X23180068Y-15141584D01*
X23132448Y-14932060D02*
X23084829Y-15074917D01*
X23084829Y-15074917D02*
X23208639Y-15074917D01*
X23437210Y-15141584D02*
X23437210Y-14941584D01*
X23522925Y-15141584D02*
X23522925Y-15036822D01*
X23522925Y-15036822D02*
X23513401Y-15017774D01*
X23513401Y-15017774D02*
X23494353Y-15008250D01*
X23494353Y-15008250D02*
X23465782Y-15008250D01*
X23465782Y-15008250D02*
X23446734Y-15017774D01*
X23446734Y-15017774D02*
X23437210Y-15027298D01*
X23646734Y-15141584D02*
X23627687Y-15132060D01*
X23627687Y-15132060D02*
X23618163Y-15122536D01*
X23618163Y-15122536D02*
X23608639Y-15103488D01*
X23608639Y-15103488D02*
X23608639Y-15046346D01*
X23608639Y-15046346D02*
X23618163Y-15027298D01*
X23618163Y-15027298D02*
X23627687Y-15017774D01*
X23627687Y-15017774D02*
X23646734Y-15008250D01*
X23646734Y-15008250D02*
X23675306Y-15008250D01*
X23675306Y-15008250D02*
X23694353Y-15017774D01*
X23694353Y-15017774D02*
X23703877Y-15027298D01*
X23703877Y-15027298D02*
X23713401Y-15046346D01*
X23713401Y-15046346D02*
X23713401Y-15103488D01*
X23713401Y-15103488D02*
X23703877Y-15122536D01*
X23703877Y-15122536D02*
X23694353Y-15132060D01*
X23694353Y-15132060D02*
X23675306Y-15141584D01*
X23675306Y-15141584D02*
X23646734Y-15141584D01*
X23827687Y-15141584D02*
X23808639Y-15132060D01*
X23808639Y-15132060D02*
X23799115Y-15113012D01*
X23799115Y-15113012D02*
X23799115Y-14941584D01*
X23980068Y-15132060D02*
X23961020Y-15141584D01*
X23961020Y-15141584D02*
X23922925Y-15141584D01*
X23922925Y-15141584D02*
X23903877Y-15132060D01*
X23903877Y-15132060D02*
X23894353Y-15113012D01*
X23894353Y-15113012D02*
X23894353Y-15036822D01*
X23894353Y-15036822D02*
X23903877Y-15017774D01*
X23903877Y-15017774D02*
X23922925Y-15008250D01*
X23922925Y-15008250D02*
X23961020Y-15008250D01*
X23961020Y-15008250D02*
X23980068Y-15017774D01*
X23980068Y-15017774D02*
X23989591Y-15036822D01*
X23989591Y-15036822D02*
X23989591Y-15055869D01*
X23989591Y-15055869D02*
X23894353Y-15074917D01*
X24065782Y-15132060D02*
X24084830Y-15141584D01*
X24084830Y-15141584D02*
X24122925Y-15141584D01*
X24122925Y-15141584D02*
X24141972Y-15132060D01*
X24141972Y-15132060D02*
X24151496Y-15113012D01*
X24151496Y-15113012D02*
X24151496Y-15103488D01*
X24151496Y-15103488D02*
X24141972Y-15084441D01*
X24141972Y-15084441D02*
X24122925Y-15074917D01*
X24122925Y-15074917D02*
X24094353Y-15074917D01*
X24094353Y-15074917D02*
X24075306Y-15065393D01*
X24075306Y-15065393D02*
X24065782Y-15046346D01*
X24065782Y-15046346D02*
X24065782Y-15036822D01*
X24065782Y-15036822D02*
X24075306Y-15017774D01*
X24075306Y-15017774D02*
X24094353Y-15008250D01*
X24094353Y-15008250D02*
X24122925Y-15008250D01*
X24122925Y-15008250D02*
X24141972Y-15017774D01*
X24218163Y-15217774D02*
X24227687Y-15208250D01*
X24227687Y-15208250D02*
X24246734Y-15179679D01*
X24246734Y-15179679D02*
X24256258Y-15160631D01*
X24256258Y-15160631D02*
X24265782Y-15132060D01*
X24265782Y-15132060D02*
X24275306Y-15084441D01*
X24275306Y-15084441D02*
X24275306Y-15046346D01*
X24275306Y-15046346D02*
X24265782Y-14998727D01*
X24265782Y-14998727D02*
X24256258Y-14970155D01*
X24256258Y-14970155D02*
X24246734Y-14951108D01*
X24246734Y-14951108D02*
X24227687Y-14922536D01*
X24227687Y-14922536D02*
X24218163Y-14913012D01*
M02*
