%TF.GenerationSoftware,KiCad,Pcbnew,9.0.0*%
%TF.CreationDate,2025-03-01T12:44:55-04:00*%
%TF.ProjectId,PROYECT T,50524f59-4543-4542-9054-2e6b69636164,rev?*%
%TF.SameCoordinates,Original*%
%TF.FileFunction,Drillmap*%
%TF.FilePolarity,Positive*%
%FSLAX45Y45*%
G04 Gerber Fmt 4.5, Leading zero omitted, Abs format (unit mm)*
G04 Created by KiCad (PCBNEW 9.0.0) date 2025-03-01 12:44:55*
%MOMM*%
%LPD*%
G01*
G04 APERTURE LIST*
%ADD10C,0.050000*%
%ADD11C,0.200000*%
%ADD12C,0.100000*%
G04 APERTURE END LIST*
D10*
X24445600Y-6555600D02*
X24445600Y-11755600D01*
X24445600Y-11755600D02*
G75*
G02*
X24195600Y-12005600I-250000J0D01*
G01*
X19695600Y-6305600D02*
X24195600Y-6305600D01*
X24195600Y-12005600D02*
X19695600Y-12005600D01*
X19695600Y-12005600D02*
G75*
G02*
X19445600Y-11755600I0J250000D01*
G01*
X24195600Y-6305600D02*
G75*
G02*
X24445600Y-6555600I0J-250000D01*
G01*
X19445600Y-11755600D02*
X19445600Y-6555600D01*
X19445600Y-6555600D02*
G75*
G02*
X19695600Y-6305600I250000J0D01*
G01*
D11*
D12*
X19954350Y-7468600D02*
X20014350Y-7528600D01*
X20014350Y-7468600D02*
X19954350Y-7528600D01*
X19954350Y-8046600D02*
X20014350Y-8106600D01*
X20014350Y-8046600D02*
X19954350Y-8106600D01*
D11*
X19703877Y-12319584D02*
X19703877Y-12119584D01*
X19703877Y-12119584D02*
X19751496Y-12119584D01*
X19751496Y-12119584D02*
X19780067Y-12129108D01*
X19780067Y-12129108D02*
X19799115Y-12148155D01*
X19799115Y-12148155D02*
X19808639Y-12167203D01*
X19808639Y-12167203D02*
X19818163Y-12205298D01*
X19818163Y-12205298D02*
X19818163Y-12233869D01*
X19818163Y-12233869D02*
X19808639Y-12271965D01*
X19808639Y-12271965D02*
X19799115Y-12291012D01*
X19799115Y-12291012D02*
X19780067Y-12310060D01*
X19780067Y-12310060D02*
X19751496Y-12319584D01*
X19751496Y-12319584D02*
X19703877Y-12319584D01*
X19903877Y-12319584D02*
X19903877Y-12186250D01*
X19903877Y-12224346D02*
X19913401Y-12205298D01*
X19913401Y-12205298D02*
X19922924Y-12195774D01*
X19922924Y-12195774D02*
X19941972Y-12186250D01*
X19941972Y-12186250D02*
X19961020Y-12186250D01*
X20027686Y-12319584D02*
X20027686Y-12186250D01*
X20027686Y-12119584D02*
X20018163Y-12129108D01*
X20018163Y-12129108D02*
X20027686Y-12138631D01*
X20027686Y-12138631D02*
X20037210Y-12129108D01*
X20037210Y-12129108D02*
X20027686Y-12119584D01*
X20027686Y-12119584D02*
X20027686Y-12138631D01*
X20151496Y-12319584D02*
X20132448Y-12310060D01*
X20132448Y-12310060D02*
X20122924Y-12291012D01*
X20122924Y-12291012D02*
X20122924Y-12119584D01*
X20256258Y-12319584D02*
X20237210Y-12310060D01*
X20237210Y-12310060D02*
X20227686Y-12291012D01*
X20227686Y-12291012D02*
X20227686Y-12119584D01*
X20484829Y-12319584D02*
X20484829Y-12119584D01*
X20484829Y-12119584D02*
X20551496Y-12262441D01*
X20551496Y-12262441D02*
X20618163Y-12119584D01*
X20618163Y-12119584D02*
X20618163Y-12319584D01*
X20799115Y-12319584D02*
X20799115Y-12214822D01*
X20799115Y-12214822D02*
X20789591Y-12195774D01*
X20789591Y-12195774D02*
X20770544Y-12186250D01*
X20770544Y-12186250D02*
X20732448Y-12186250D01*
X20732448Y-12186250D02*
X20713401Y-12195774D01*
X20799115Y-12310060D02*
X20780067Y-12319584D01*
X20780067Y-12319584D02*
X20732448Y-12319584D01*
X20732448Y-12319584D02*
X20713401Y-12310060D01*
X20713401Y-12310060D02*
X20703877Y-12291012D01*
X20703877Y-12291012D02*
X20703877Y-12271965D01*
X20703877Y-12271965D02*
X20713401Y-12252917D01*
X20713401Y-12252917D02*
X20732448Y-12243393D01*
X20732448Y-12243393D02*
X20780067Y-12243393D01*
X20780067Y-12243393D02*
X20799115Y-12233869D01*
X20894353Y-12186250D02*
X20894353Y-12386250D01*
X20894353Y-12195774D02*
X20913401Y-12186250D01*
X20913401Y-12186250D02*
X20951496Y-12186250D01*
X20951496Y-12186250D02*
X20970544Y-12195774D01*
X20970544Y-12195774D02*
X20980067Y-12205298D01*
X20980067Y-12205298D02*
X20989591Y-12224346D01*
X20989591Y-12224346D02*
X20989591Y-12281488D01*
X20989591Y-12281488D02*
X20980067Y-12300536D01*
X20980067Y-12300536D02*
X20970544Y-12310060D01*
X20970544Y-12310060D02*
X20951496Y-12319584D01*
X20951496Y-12319584D02*
X20913401Y-12319584D01*
X20913401Y-12319584D02*
X20894353Y-12310060D01*
X21075305Y-12300536D02*
X21084829Y-12310060D01*
X21084829Y-12310060D02*
X21075305Y-12319584D01*
X21075305Y-12319584D02*
X21065782Y-12310060D01*
X21065782Y-12310060D02*
X21075305Y-12300536D01*
X21075305Y-12300536D02*
X21075305Y-12319584D01*
X21075305Y-12195774D02*
X21084829Y-12205298D01*
X21084829Y-12205298D02*
X21075305Y-12214822D01*
X21075305Y-12214822D02*
X21065782Y-12205298D01*
X21065782Y-12205298D02*
X21075305Y-12195774D01*
X21075305Y-12195774D02*
X21075305Y-12214822D01*
D12*
X19383100Y-12618100D02*
X19443100Y-12678100D01*
X19443100Y-12618100D02*
X19383100Y-12678100D01*
D11*
X19741972Y-12539584D02*
X19761020Y-12539584D01*
X19761020Y-12539584D02*
X19780067Y-12549108D01*
X19780067Y-12549108D02*
X19789591Y-12558631D01*
X19789591Y-12558631D02*
X19799115Y-12577679D01*
X19799115Y-12577679D02*
X19808639Y-12615774D01*
X19808639Y-12615774D02*
X19808639Y-12663393D01*
X19808639Y-12663393D02*
X19799115Y-12701488D01*
X19799115Y-12701488D02*
X19789591Y-12720536D01*
X19789591Y-12720536D02*
X19780067Y-12730060D01*
X19780067Y-12730060D02*
X19761020Y-12739584D01*
X19761020Y-12739584D02*
X19741972Y-12739584D01*
X19741972Y-12739584D02*
X19722924Y-12730060D01*
X19722924Y-12730060D02*
X19713401Y-12720536D01*
X19713401Y-12720536D02*
X19703877Y-12701488D01*
X19703877Y-12701488D02*
X19694353Y-12663393D01*
X19694353Y-12663393D02*
X19694353Y-12615774D01*
X19694353Y-12615774D02*
X19703877Y-12577679D01*
X19703877Y-12577679D02*
X19713401Y-12558631D01*
X19713401Y-12558631D02*
X19722924Y-12549108D01*
X19722924Y-12549108D02*
X19741972Y-12539584D01*
X19894353Y-12720536D02*
X19903877Y-12730060D01*
X19903877Y-12730060D02*
X19894353Y-12739584D01*
X19894353Y-12739584D02*
X19884829Y-12730060D01*
X19884829Y-12730060D02*
X19894353Y-12720536D01*
X19894353Y-12720536D02*
X19894353Y-12739584D01*
X20075305Y-12539584D02*
X20037210Y-12539584D01*
X20037210Y-12539584D02*
X20018163Y-12549108D01*
X20018163Y-12549108D02*
X20008639Y-12558631D01*
X20008639Y-12558631D02*
X19989591Y-12587203D01*
X19989591Y-12587203D02*
X19980067Y-12625298D01*
X19980067Y-12625298D02*
X19980067Y-12701488D01*
X19980067Y-12701488D02*
X19989591Y-12720536D01*
X19989591Y-12720536D02*
X19999115Y-12730060D01*
X19999115Y-12730060D02*
X20018163Y-12739584D01*
X20018163Y-12739584D02*
X20056258Y-12739584D01*
X20056258Y-12739584D02*
X20075305Y-12730060D01*
X20075305Y-12730060D02*
X20084829Y-12720536D01*
X20084829Y-12720536D02*
X20094353Y-12701488D01*
X20094353Y-12701488D02*
X20094353Y-12653869D01*
X20094353Y-12653869D02*
X20084829Y-12634822D01*
X20084829Y-12634822D02*
X20075305Y-12625298D01*
X20075305Y-12625298D02*
X20056258Y-12615774D01*
X20056258Y-12615774D02*
X20018163Y-12615774D01*
X20018163Y-12615774D02*
X19999115Y-12625298D01*
X19999115Y-12625298D02*
X19989591Y-12634822D01*
X19989591Y-12634822D02*
X19980067Y-12653869D01*
X20218163Y-12539584D02*
X20237210Y-12539584D01*
X20237210Y-12539584D02*
X20256258Y-12549108D01*
X20256258Y-12549108D02*
X20265782Y-12558631D01*
X20265782Y-12558631D02*
X20275305Y-12577679D01*
X20275305Y-12577679D02*
X20284829Y-12615774D01*
X20284829Y-12615774D02*
X20284829Y-12663393D01*
X20284829Y-12663393D02*
X20275305Y-12701488D01*
X20275305Y-12701488D02*
X20265782Y-12720536D01*
X20265782Y-12720536D02*
X20256258Y-12730060D01*
X20256258Y-12730060D02*
X20237210Y-12739584D01*
X20237210Y-12739584D02*
X20218163Y-12739584D01*
X20218163Y-12739584D02*
X20199115Y-12730060D01*
X20199115Y-12730060D02*
X20189591Y-12720536D01*
X20189591Y-12720536D02*
X20180067Y-12701488D01*
X20180067Y-12701488D02*
X20170544Y-12663393D01*
X20170544Y-12663393D02*
X20170544Y-12615774D01*
X20170544Y-12615774D02*
X20180067Y-12577679D01*
X20180067Y-12577679D02*
X20189591Y-12558631D01*
X20189591Y-12558631D02*
X20199115Y-12549108D01*
X20199115Y-12549108D02*
X20218163Y-12539584D01*
X20408639Y-12539584D02*
X20427686Y-12539584D01*
X20427686Y-12539584D02*
X20446734Y-12549108D01*
X20446734Y-12549108D02*
X20456258Y-12558631D01*
X20456258Y-12558631D02*
X20465782Y-12577679D01*
X20465782Y-12577679D02*
X20475305Y-12615774D01*
X20475305Y-12615774D02*
X20475305Y-12663393D01*
X20475305Y-12663393D02*
X20465782Y-12701488D01*
X20465782Y-12701488D02*
X20456258Y-12720536D01*
X20456258Y-12720536D02*
X20446734Y-12730060D01*
X20446734Y-12730060D02*
X20427686Y-12739584D01*
X20427686Y-12739584D02*
X20408639Y-12739584D01*
X20408639Y-12739584D02*
X20389591Y-12730060D01*
X20389591Y-12730060D02*
X20380067Y-12720536D01*
X20380067Y-12720536D02*
X20370544Y-12701488D01*
X20370544Y-12701488D02*
X20361020Y-12663393D01*
X20361020Y-12663393D02*
X20361020Y-12615774D01*
X20361020Y-12615774D02*
X20370544Y-12577679D01*
X20370544Y-12577679D02*
X20380067Y-12558631D01*
X20380067Y-12558631D02*
X20389591Y-12549108D01*
X20389591Y-12549108D02*
X20408639Y-12539584D01*
X20561020Y-12739584D02*
X20561020Y-12606250D01*
X20561020Y-12625298D02*
X20570544Y-12615774D01*
X20570544Y-12615774D02*
X20589591Y-12606250D01*
X20589591Y-12606250D02*
X20618163Y-12606250D01*
X20618163Y-12606250D02*
X20637210Y-12615774D01*
X20637210Y-12615774D02*
X20646734Y-12634822D01*
X20646734Y-12634822D02*
X20646734Y-12739584D01*
X20646734Y-12634822D02*
X20656258Y-12615774D01*
X20656258Y-12615774D02*
X20675305Y-12606250D01*
X20675305Y-12606250D02*
X20703877Y-12606250D01*
X20703877Y-12606250D02*
X20722925Y-12615774D01*
X20722925Y-12615774D02*
X20732448Y-12634822D01*
X20732448Y-12634822D02*
X20732448Y-12739584D01*
X20827686Y-12739584D02*
X20827686Y-12606250D01*
X20827686Y-12625298D02*
X20837210Y-12615774D01*
X20837210Y-12615774D02*
X20856258Y-12606250D01*
X20856258Y-12606250D02*
X20884829Y-12606250D01*
X20884829Y-12606250D02*
X20903877Y-12615774D01*
X20903877Y-12615774D02*
X20913401Y-12634822D01*
X20913401Y-12634822D02*
X20913401Y-12739584D01*
X20913401Y-12634822D02*
X20922925Y-12615774D01*
X20922925Y-12615774D02*
X20941972Y-12606250D01*
X20941972Y-12606250D02*
X20970544Y-12606250D01*
X20970544Y-12606250D02*
X20989591Y-12615774D01*
X20989591Y-12615774D02*
X20999115Y-12634822D01*
X20999115Y-12634822D02*
X20999115Y-12739584D01*
X21389591Y-12530060D02*
X21218163Y-12787203D01*
X21646734Y-12539584D02*
X21665782Y-12539584D01*
X21665782Y-12539584D02*
X21684829Y-12549108D01*
X21684829Y-12549108D02*
X21694353Y-12558631D01*
X21694353Y-12558631D02*
X21703877Y-12577679D01*
X21703877Y-12577679D02*
X21713401Y-12615774D01*
X21713401Y-12615774D02*
X21713401Y-12663393D01*
X21713401Y-12663393D02*
X21703877Y-12701488D01*
X21703877Y-12701488D02*
X21694353Y-12720536D01*
X21694353Y-12720536D02*
X21684829Y-12730060D01*
X21684829Y-12730060D02*
X21665782Y-12739584D01*
X21665782Y-12739584D02*
X21646734Y-12739584D01*
X21646734Y-12739584D02*
X21627687Y-12730060D01*
X21627687Y-12730060D02*
X21618163Y-12720536D01*
X21618163Y-12720536D02*
X21608639Y-12701488D01*
X21608639Y-12701488D02*
X21599115Y-12663393D01*
X21599115Y-12663393D02*
X21599115Y-12615774D01*
X21599115Y-12615774D02*
X21608639Y-12577679D01*
X21608639Y-12577679D02*
X21618163Y-12558631D01*
X21618163Y-12558631D02*
X21627687Y-12549108D01*
X21627687Y-12549108D02*
X21646734Y-12539584D01*
X21799115Y-12720536D02*
X21808639Y-12730060D01*
X21808639Y-12730060D02*
X21799115Y-12739584D01*
X21799115Y-12739584D02*
X21789591Y-12730060D01*
X21789591Y-12730060D02*
X21799115Y-12720536D01*
X21799115Y-12720536D02*
X21799115Y-12739584D01*
X21932448Y-12539584D02*
X21951496Y-12539584D01*
X21951496Y-12539584D02*
X21970544Y-12549108D01*
X21970544Y-12549108D02*
X21980068Y-12558631D01*
X21980068Y-12558631D02*
X21989591Y-12577679D01*
X21989591Y-12577679D02*
X21999115Y-12615774D01*
X21999115Y-12615774D02*
X21999115Y-12663393D01*
X21999115Y-12663393D02*
X21989591Y-12701488D01*
X21989591Y-12701488D02*
X21980068Y-12720536D01*
X21980068Y-12720536D02*
X21970544Y-12730060D01*
X21970544Y-12730060D02*
X21951496Y-12739584D01*
X21951496Y-12739584D02*
X21932448Y-12739584D01*
X21932448Y-12739584D02*
X21913401Y-12730060D01*
X21913401Y-12730060D02*
X21903877Y-12720536D01*
X21903877Y-12720536D02*
X21894353Y-12701488D01*
X21894353Y-12701488D02*
X21884829Y-12663393D01*
X21884829Y-12663393D02*
X21884829Y-12615774D01*
X21884829Y-12615774D02*
X21894353Y-12577679D01*
X21894353Y-12577679D02*
X21903877Y-12558631D01*
X21903877Y-12558631D02*
X21913401Y-12549108D01*
X21913401Y-12549108D02*
X21932448Y-12539584D01*
X22075306Y-12558631D02*
X22084829Y-12549108D01*
X22084829Y-12549108D02*
X22103877Y-12539584D01*
X22103877Y-12539584D02*
X22151496Y-12539584D01*
X22151496Y-12539584D02*
X22170544Y-12549108D01*
X22170544Y-12549108D02*
X22180068Y-12558631D01*
X22180068Y-12558631D02*
X22189591Y-12577679D01*
X22189591Y-12577679D02*
X22189591Y-12596727D01*
X22189591Y-12596727D02*
X22180068Y-12625298D01*
X22180068Y-12625298D02*
X22065782Y-12739584D01*
X22065782Y-12739584D02*
X22189591Y-12739584D01*
X22256258Y-12539584D02*
X22380067Y-12539584D01*
X22380067Y-12539584D02*
X22313401Y-12615774D01*
X22313401Y-12615774D02*
X22341972Y-12615774D01*
X22341972Y-12615774D02*
X22361020Y-12625298D01*
X22361020Y-12625298D02*
X22370544Y-12634822D01*
X22370544Y-12634822D02*
X22380067Y-12653869D01*
X22380067Y-12653869D02*
X22380067Y-12701488D01*
X22380067Y-12701488D02*
X22370544Y-12720536D01*
X22370544Y-12720536D02*
X22361020Y-12730060D01*
X22361020Y-12730060D02*
X22341972Y-12739584D01*
X22341972Y-12739584D02*
X22284829Y-12739584D01*
X22284829Y-12739584D02*
X22265782Y-12730060D01*
X22265782Y-12730060D02*
X22256258Y-12720536D01*
X22551496Y-12539584D02*
X22513401Y-12539584D01*
X22513401Y-12539584D02*
X22494353Y-12549108D01*
X22494353Y-12549108D02*
X22484829Y-12558631D01*
X22484829Y-12558631D02*
X22465782Y-12587203D01*
X22465782Y-12587203D02*
X22456258Y-12625298D01*
X22456258Y-12625298D02*
X22456258Y-12701488D01*
X22456258Y-12701488D02*
X22465782Y-12720536D01*
X22465782Y-12720536D02*
X22475306Y-12730060D01*
X22475306Y-12730060D02*
X22494353Y-12739584D01*
X22494353Y-12739584D02*
X22532448Y-12739584D01*
X22532448Y-12739584D02*
X22551496Y-12730060D01*
X22551496Y-12730060D02*
X22561020Y-12720536D01*
X22561020Y-12720536D02*
X22570544Y-12701488D01*
X22570544Y-12701488D02*
X22570544Y-12653869D01*
X22570544Y-12653869D02*
X22561020Y-12634822D01*
X22561020Y-12634822D02*
X22551496Y-12625298D01*
X22551496Y-12625298D02*
X22532448Y-12615774D01*
X22532448Y-12615774D02*
X22494353Y-12615774D01*
X22494353Y-12615774D02*
X22475306Y-12625298D01*
X22475306Y-12625298D02*
X22465782Y-12634822D01*
X22465782Y-12634822D02*
X22456258Y-12653869D01*
X22646734Y-12539584D02*
X22646734Y-12577679D01*
X22722925Y-12539584D02*
X22722925Y-12577679D01*
X23018163Y-12815774D02*
X23008639Y-12806250D01*
X23008639Y-12806250D02*
X22989591Y-12777679D01*
X22989591Y-12777679D02*
X22980068Y-12758631D01*
X22980068Y-12758631D02*
X22970544Y-12730060D01*
X22970544Y-12730060D02*
X22961020Y-12682441D01*
X22961020Y-12682441D02*
X22961020Y-12644346D01*
X22961020Y-12644346D02*
X22970544Y-12596727D01*
X22970544Y-12596727D02*
X22980068Y-12568155D01*
X22980068Y-12568155D02*
X22989591Y-12549108D01*
X22989591Y-12549108D02*
X23008639Y-12520536D01*
X23008639Y-12520536D02*
X23018163Y-12511012D01*
X23084829Y-12558631D02*
X23094353Y-12549108D01*
X23094353Y-12549108D02*
X23113401Y-12539584D01*
X23113401Y-12539584D02*
X23161020Y-12539584D01*
X23161020Y-12539584D02*
X23180068Y-12549108D01*
X23180068Y-12549108D02*
X23189591Y-12558631D01*
X23189591Y-12558631D02*
X23199115Y-12577679D01*
X23199115Y-12577679D02*
X23199115Y-12596727D01*
X23199115Y-12596727D02*
X23189591Y-12625298D01*
X23189591Y-12625298D02*
X23075306Y-12739584D01*
X23075306Y-12739584D02*
X23199115Y-12739584D01*
X23437210Y-12739584D02*
X23437210Y-12539584D01*
X23522925Y-12739584D02*
X23522925Y-12634822D01*
X23522925Y-12634822D02*
X23513401Y-12615774D01*
X23513401Y-12615774D02*
X23494353Y-12606250D01*
X23494353Y-12606250D02*
X23465782Y-12606250D01*
X23465782Y-12606250D02*
X23446734Y-12615774D01*
X23446734Y-12615774D02*
X23437210Y-12625298D01*
X23646734Y-12739584D02*
X23627687Y-12730060D01*
X23627687Y-12730060D02*
X23618163Y-12720536D01*
X23618163Y-12720536D02*
X23608639Y-12701488D01*
X23608639Y-12701488D02*
X23608639Y-12644346D01*
X23608639Y-12644346D02*
X23618163Y-12625298D01*
X23618163Y-12625298D02*
X23627687Y-12615774D01*
X23627687Y-12615774D02*
X23646734Y-12606250D01*
X23646734Y-12606250D02*
X23675306Y-12606250D01*
X23675306Y-12606250D02*
X23694353Y-12615774D01*
X23694353Y-12615774D02*
X23703877Y-12625298D01*
X23703877Y-12625298D02*
X23713401Y-12644346D01*
X23713401Y-12644346D02*
X23713401Y-12701488D01*
X23713401Y-12701488D02*
X23703877Y-12720536D01*
X23703877Y-12720536D02*
X23694353Y-12730060D01*
X23694353Y-12730060D02*
X23675306Y-12739584D01*
X23675306Y-12739584D02*
X23646734Y-12739584D01*
X23827687Y-12739584D02*
X23808639Y-12730060D01*
X23808639Y-12730060D02*
X23799115Y-12711012D01*
X23799115Y-12711012D02*
X23799115Y-12539584D01*
X23980068Y-12730060D02*
X23961020Y-12739584D01*
X23961020Y-12739584D02*
X23922925Y-12739584D01*
X23922925Y-12739584D02*
X23903877Y-12730060D01*
X23903877Y-12730060D02*
X23894353Y-12711012D01*
X23894353Y-12711012D02*
X23894353Y-12634822D01*
X23894353Y-12634822D02*
X23903877Y-12615774D01*
X23903877Y-12615774D02*
X23922925Y-12606250D01*
X23922925Y-12606250D02*
X23961020Y-12606250D01*
X23961020Y-12606250D02*
X23980068Y-12615774D01*
X23980068Y-12615774D02*
X23989591Y-12634822D01*
X23989591Y-12634822D02*
X23989591Y-12653869D01*
X23989591Y-12653869D02*
X23894353Y-12672917D01*
X24065782Y-12730060D02*
X24084830Y-12739584D01*
X24084830Y-12739584D02*
X24122925Y-12739584D01*
X24122925Y-12739584D02*
X24141972Y-12730060D01*
X24141972Y-12730060D02*
X24151496Y-12711012D01*
X24151496Y-12711012D02*
X24151496Y-12701488D01*
X24151496Y-12701488D02*
X24141972Y-12682441D01*
X24141972Y-12682441D02*
X24122925Y-12672917D01*
X24122925Y-12672917D02*
X24094353Y-12672917D01*
X24094353Y-12672917D02*
X24075306Y-12663393D01*
X24075306Y-12663393D02*
X24065782Y-12644346D01*
X24065782Y-12644346D02*
X24065782Y-12634822D01*
X24065782Y-12634822D02*
X24075306Y-12615774D01*
X24075306Y-12615774D02*
X24094353Y-12606250D01*
X24094353Y-12606250D02*
X24122925Y-12606250D01*
X24122925Y-12606250D02*
X24141972Y-12615774D01*
X24218163Y-12815774D02*
X24227687Y-12806250D01*
X24227687Y-12806250D02*
X24246734Y-12777679D01*
X24246734Y-12777679D02*
X24256258Y-12758631D01*
X24256258Y-12758631D02*
X24265782Y-12730060D01*
X24265782Y-12730060D02*
X24275306Y-12682441D01*
X24275306Y-12682441D02*
X24275306Y-12644346D01*
X24275306Y-12644346D02*
X24265782Y-12596727D01*
X24265782Y-12596727D02*
X24256258Y-12568155D01*
X24256258Y-12568155D02*
X24246734Y-12549108D01*
X24246734Y-12549108D02*
X24227687Y-12520536D01*
X24227687Y-12520536D02*
X24218163Y-12511012D01*
X24580068Y-12815774D02*
X24570544Y-12806250D01*
X24570544Y-12806250D02*
X24551496Y-12777679D01*
X24551496Y-12777679D02*
X24541972Y-12758631D01*
X24541972Y-12758631D02*
X24532449Y-12730060D01*
X24532449Y-12730060D02*
X24522925Y-12682441D01*
X24522925Y-12682441D02*
X24522925Y-12644346D01*
X24522925Y-12644346D02*
X24532449Y-12596727D01*
X24532449Y-12596727D02*
X24541972Y-12568155D01*
X24541972Y-12568155D02*
X24551496Y-12549108D01*
X24551496Y-12549108D02*
X24570544Y-12520536D01*
X24570544Y-12520536D02*
X24580068Y-12511012D01*
X24656258Y-12606250D02*
X24656258Y-12739584D01*
X24656258Y-12625298D02*
X24665782Y-12615774D01*
X24665782Y-12615774D02*
X24684830Y-12606250D01*
X24684830Y-12606250D02*
X24713401Y-12606250D01*
X24713401Y-12606250D02*
X24732449Y-12615774D01*
X24732449Y-12615774D02*
X24741972Y-12634822D01*
X24741972Y-12634822D02*
X24741972Y-12739584D01*
X24865782Y-12739584D02*
X24846734Y-12730060D01*
X24846734Y-12730060D02*
X24837211Y-12720536D01*
X24837211Y-12720536D02*
X24827687Y-12701488D01*
X24827687Y-12701488D02*
X24827687Y-12644346D01*
X24827687Y-12644346D02*
X24837211Y-12625298D01*
X24837211Y-12625298D02*
X24846734Y-12615774D01*
X24846734Y-12615774D02*
X24865782Y-12606250D01*
X24865782Y-12606250D02*
X24894353Y-12606250D01*
X24894353Y-12606250D02*
X24913401Y-12615774D01*
X24913401Y-12615774D02*
X24922925Y-12625298D01*
X24922925Y-12625298D02*
X24932449Y-12644346D01*
X24932449Y-12644346D02*
X24932449Y-12701488D01*
X24932449Y-12701488D02*
X24922925Y-12720536D01*
X24922925Y-12720536D02*
X24913401Y-12730060D01*
X24913401Y-12730060D02*
X24894353Y-12739584D01*
X24894353Y-12739584D02*
X24865782Y-12739584D01*
X24989592Y-12606250D02*
X25065782Y-12606250D01*
X25018163Y-12539584D02*
X25018163Y-12711012D01*
X25018163Y-12711012D02*
X25027687Y-12730060D01*
X25027687Y-12730060D02*
X25046734Y-12739584D01*
X25046734Y-12739584D02*
X25065782Y-12739584D01*
X25284830Y-12606250D02*
X25284830Y-12806250D01*
X25284830Y-12615774D02*
X25303877Y-12606250D01*
X25303877Y-12606250D02*
X25341973Y-12606250D01*
X25341973Y-12606250D02*
X25361020Y-12615774D01*
X25361020Y-12615774D02*
X25370544Y-12625298D01*
X25370544Y-12625298D02*
X25380068Y-12644346D01*
X25380068Y-12644346D02*
X25380068Y-12701488D01*
X25380068Y-12701488D02*
X25370544Y-12720536D01*
X25370544Y-12720536D02*
X25361020Y-12730060D01*
X25361020Y-12730060D02*
X25341973Y-12739584D01*
X25341973Y-12739584D02*
X25303877Y-12739584D01*
X25303877Y-12739584D02*
X25284830Y-12730060D01*
X25494353Y-12739584D02*
X25475306Y-12730060D01*
X25475306Y-12730060D02*
X25465782Y-12711012D01*
X25465782Y-12711012D02*
X25465782Y-12539584D01*
X25656258Y-12739584D02*
X25656258Y-12634822D01*
X25656258Y-12634822D02*
X25646734Y-12615774D01*
X25646734Y-12615774D02*
X25627687Y-12606250D01*
X25627687Y-12606250D02*
X25589592Y-12606250D01*
X25589592Y-12606250D02*
X25570544Y-12615774D01*
X25656258Y-12730060D02*
X25637211Y-12739584D01*
X25637211Y-12739584D02*
X25589592Y-12739584D01*
X25589592Y-12739584D02*
X25570544Y-12730060D01*
X25570544Y-12730060D02*
X25561020Y-12711012D01*
X25561020Y-12711012D02*
X25561020Y-12691965D01*
X25561020Y-12691965D02*
X25570544Y-12672917D01*
X25570544Y-12672917D02*
X25589592Y-12663393D01*
X25589592Y-12663393D02*
X25637211Y-12663393D01*
X25637211Y-12663393D02*
X25656258Y-12653869D01*
X25722925Y-12606250D02*
X25799115Y-12606250D01*
X25751496Y-12539584D02*
X25751496Y-12711012D01*
X25751496Y-12711012D02*
X25761020Y-12730060D01*
X25761020Y-12730060D02*
X25780068Y-12739584D01*
X25780068Y-12739584D02*
X25799115Y-12739584D01*
X25941973Y-12730060D02*
X25922925Y-12739584D01*
X25922925Y-12739584D02*
X25884830Y-12739584D01*
X25884830Y-12739584D02*
X25865782Y-12730060D01*
X25865782Y-12730060D02*
X25856258Y-12711012D01*
X25856258Y-12711012D02*
X25856258Y-12634822D01*
X25856258Y-12634822D02*
X25865782Y-12615774D01*
X25865782Y-12615774D02*
X25884830Y-12606250D01*
X25884830Y-12606250D02*
X25922925Y-12606250D01*
X25922925Y-12606250D02*
X25941973Y-12615774D01*
X25941973Y-12615774D02*
X25951496Y-12634822D01*
X25951496Y-12634822D02*
X25951496Y-12653869D01*
X25951496Y-12653869D02*
X25856258Y-12672917D01*
X26122925Y-12739584D02*
X26122925Y-12539584D01*
X26122925Y-12730060D02*
X26103877Y-12739584D01*
X26103877Y-12739584D02*
X26065782Y-12739584D01*
X26065782Y-12739584D02*
X26046734Y-12730060D01*
X26046734Y-12730060D02*
X26037211Y-12720536D01*
X26037211Y-12720536D02*
X26027687Y-12701488D01*
X26027687Y-12701488D02*
X26027687Y-12644346D01*
X26027687Y-12644346D02*
X26037211Y-12625298D01*
X26037211Y-12625298D02*
X26046734Y-12615774D01*
X26046734Y-12615774D02*
X26065782Y-12606250D01*
X26065782Y-12606250D02*
X26103877Y-12606250D01*
X26103877Y-12606250D02*
X26122925Y-12615774D01*
X26199115Y-12815774D02*
X26208639Y-12806250D01*
X26208639Y-12806250D02*
X26227687Y-12777679D01*
X26227687Y-12777679D02*
X26237211Y-12758631D01*
X26237211Y-12758631D02*
X26246734Y-12730060D01*
X26246734Y-12730060D02*
X26256258Y-12682441D01*
X26256258Y-12682441D02*
X26256258Y-12644346D01*
X26256258Y-12644346D02*
X26246734Y-12596727D01*
X26246734Y-12596727D02*
X26237211Y-12568155D01*
X26237211Y-12568155D02*
X26227687Y-12549108D01*
X26227687Y-12549108D02*
X26208639Y-12520536D01*
X26208639Y-12520536D02*
X26199115Y-12511012D01*
M02*
